<svg width="250" height="138" viewBox="0 0 250 138" fill="none" xmlns="http://www.w3.org/2000/svg">
  <g filter="url(#filter0_bd_177_1499)">
    <path
      d="M42.95 73.49C42.59 73.49 42.23 73.46 41.87 73.4C41.51 73.4 41.12 73.37 40.7 73.31C40.64 73.31 40.49 73.22 40.25 73.04C40.01 72.92 39.83 72.86 39.71 72.86C39.35 72.86 38.96 72.83 38.54 72.77C38.18 72.77 37.79 72.74 37.37 72.68C37.31 72.62 37.25 72.53 37.19 72.41C37.19 72.35 37.13 72.32 37.01 72.32C36.95 72.32 36.92 72.32 36.92 72.32C36.98 72.38 36.98 72.41 36.92 72.41C36.86 72.41 36.71 72.35 36.47 72.23C36.29 72.11 36.14 72.02 36.02 71.96V71.78C35.78 71.72 35.63 71.63 35.57 71.51C35.51 71.45 35.45 71.42 35.39 71.42H35.21C35.09 71.42 35.03 71.39 35.03 71.33C34.79 71.21 34.49 71.03 34.13 70.79C33.77 70.61 33.53 70.43 33.41 70.25C33.17 70.19 33.02 70.1 32.96 69.98C32.9 69.92 32.81 69.83 32.69 69.71C32.63 69.59 32.57 69.53 32.51 69.53C32.51 69.59 32.48 69.59 32.42 69.53C32.18 69.17 31.88 68.87 31.52 68.63C31.52 68.57 31.49 68.51 31.43 68.45C31.43 68.45 31.43 68.42 31.43 68.36C31.31 68.36 31.22 68.33 31.16 68.27C31.1 68.15 31.07 68.06 31.07 68C31.07 67.88 31.01 67.82 30.89 67.82C30.83 67.52 30.74 67.31 30.62 67.19C30.5 67.07 30.38 66.89 30.26 66.65C30.2 66.53 30.17 66.41 30.17 66.29C30.17 66.11 30.11 66.02 29.99 66.02V65.93C30.05 65.81 29.96 65.48 29.72 64.94C29.54 64.34 29.45 63.83 29.45 63.41L29.27 63.32C29.09 63.02 28.97 62.66 28.91 62.24C28.91 61.82 28.94 61.4 29 60.98C29.12 60.5 29.12 60.29 29 60.35C28.88 60.41 28.88 60.11 29 59.45L29.63 58.19C29.63 58.07 29.6 57.95 29.54 57.83C29.48 57.71 29.45 57.62 29.45 57.56C29.45 57.5 29.48 57.44 29.54 57.38C29.6 57.32 29.63 57.26 29.63 57.2C29.69 57.08 29.72 56.9 29.72 56.66C29.72 56.42 29.75 56.27 29.81 56.21C29.87 56.09 29.96 56 30.08 55.94C30.2 55.82 30.29 55.73 30.35 55.67L30.8 54.59C30.92 54.47 31.01 54.38 31.07 54.32C31.19 54.2 31.28 54.08 31.34 53.96C31.46 53.78 31.55 53.63 31.61 53.51C31.67 53.33 31.76 53.15 31.88 52.97C31.94 52.85 32.03 52.73 32.15 52.61C32.33 52.49 32.45 52.4 32.51 52.34C32.81 52.16 33.05 52.07 33.23 52.07C33.47 52.07 33.62 52.31 33.68 52.79L33.59 53.24C33.35 53.54 33.11 53.81 32.87 54.05C32.63 54.23 32.36 54.44 32.06 54.68C32.06 54.74 32.03 54.83 31.97 54.95C31.97 55.01 31.97 55.1 31.97 55.22C31.85 55.22 31.79 55.28 31.79 55.4C31.79 55.46 31.76 55.55 31.7 55.67C31.7 55.73 31.61 55.85 31.43 56.03C31.37 56.15 31.31 56.3 31.25 56.48C31.25 56.6 31.22 56.72 31.16 56.84L30.89 57.02L30.8 59.18C30.86 59.24 30.92 59.24 30.98 59.18C31.04 59.3 31.07 59.48 31.07 59.72V59.81L30.98 59.9V60.62C30.92 60.68 30.89 60.74 30.89 60.8C30.89 60.86 30.92 60.95 30.98 61.07C31.04 61.13 31.07 61.22 31.07 61.34C31.01 61.4 30.98 61.49 30.98 61.61C30.98 61.73 31.04 61.85 31.16 61.97V62.24C31.28 62.42 31.43 62.6 31.61 62.78C31.79 62.9 31.94 63.02 32.06 63.14L32.78 63.41C33.86 64.19 34.67 64.73 35.21 65.03C35.75 65.33 36.65 65.66 37.91 66.02C38.39 66.14 38.87 66.29 39.35 66.47C39.83 66.59 40.31 66.65 40.79 66.65C40.85 66.65 40.88 66.68 40.88 66.74C40.88 66.74 40.91 66.74 40.97 66.74C41.21 66.74 41.42 66.77 41.6 66.83C41.84 66.89 42.08 66.92 42.32 66.92C42.38 66.92 42.44 66.92 42.5 66.92C42.56 66.86 42.62 66.83 42.68 66.83C42.8 66.83 42.89 66.86 42.95 66.92C43.01 66.92 43.07 66.92 43.13 66.92C43.61 66.92 44.09 66.92 44.57 66.92C45.05 66.92 45.5 66.89 45.92 66.83C46.4 66.83 46.88 66.77 47.36 66.65C47.84 66.53 48.29 66.47 48.71 66.47C49.55 66.41 50.36 66.26 51.14 66.02C51.98 65.72 52.79 65.45 53.57 65.21C53.63 65.15 54.14 64.94 55.1 64.58C56.12 64.16 57.17 63.71 58.25 63.23C58.49 62.51 58.61 61.64 58.61 60.62C58.61 58.94 58.25 57.44 57.53 56.12C57.53 56.12 57.38 56.03 57.08 55.85C56.78 55.61 56.6 55.49 56.54 55.49V55.31C56.54 55.01 56.39 54.86 56.09 54.86C55.79 54.8 55.52 54.62 55.28 54.32C55.16 54.14 55.01 53.99 54.83 53.87V53.78C54.65 53.66 54.62 53.57 54.74 53.51C54.92 53.39 55.04 53.3 55.1 53.24L54.92 53.06H54.83C54.71 52.94 54.56 52.85 54.38 52.79C54.2 52.73 54.05 52.61 53.93 52.43L53.48 52.07C53.42 51.95 53.3 51.89 53.12 51.89C52.94 51.89 52.79 51.86 52.67 51.8C52.43 51.62 52.16 51.41 51.86 51.17C51.56 50.93 51.26 50.75 50.96 50.63H50.87C50.63 50.51 50.39 50.36 50.15 50.18C49.97 50 49.73 49.85 49.43 49.73C49.37 49.61 49.28 49.61 49.16 49.73C49.1 49.79 49.04 49.79 48.98 49.73C48.74 49.61 48.53 49.43 48.35 49.19C48.17 48.89 47.93 48.74 47.63 48.74H47.54C47.36 48.62 47.21 48.44 47.09 48.2C47.03 47.9 46.94 47.69 46.82 47.57C46.28 47.27 45.74 47.06 45.2 46.94C44.66 46.82 44.12 46.67 43.58 46.49C43.22 46.31 42.77 46.22 42.23 46.22C41.75 46.16 41.36 46.1 41.06 46.04C40.7 45.92 40.52 45.74 40.52 45.5C40.52 45.2 40.82 44.9 41.42 44.6C41.66 44.48 41.93 44.42 42.23 44.42C42.53 44.36 42.8 44.33 43.04 44.33C43.7 44.33 44.72 44.15 46.1 43.79C47.54 43.43 49.16 42.95 50.96 42.35C52.76 41.69 54.5 41 56.18 40.28C56.54 40.16 56.81 40.04 56.99 39.92C57.23 39.8 57.41 39.83 57.53 40.01C57.41 40.01 57.35 40.1 57.35 40.28C57.65 40.28 57.83 40.19 57.89 40.01C58.01 39.77 58.13 39.53 58.25 39.29H58.34L60.05 38.39C60.29 38.33 60.5 38.36 60.68 38.48C60.92 38.54 61.13 38.51 61.31 38.39C61.25 38.27 61.16 38.18 61.04 38.12C60.98 38 61.04 37.88 61.22 37.76C61.34 37.64 61.43 37.58 61.49 37.58C61.85 37.34 62.18 37.19 62.48 37.13C62.84 37.01 63.11 36.77 63.29 36.41C64.25 35.75 65.06 35.06 65.72 34.34C66.38 33.56 66.71 32.84 66.71 32.18C66.71 31.34 66.11 30.62 64.91 30.02C63.77 29.36 61.7 28.82 58.7 28.4C58.58 28.4 58.46 28.4 58.34 28.4C58.22 28.34 58.1 28.31 57.98 28.31C57.2 28.31 56.45 28.13 55.73 27.77C55.79 28.01 55.67 28.13 55.37 28.13C54.53 28.07 53.69 28.04 52.85 28.04C52.01 27.98 51.2 27.95 50.42 27.95C49.1 27.95 47.87 27.98 46.73 28.04C45.65 28.1 44.87 28.16 44.39 28.22C43.91 28.28 43.4 28.34 42.86 28.4C42.38 28.4 41.9 28.46 41.42 28.58C41.06 28.46 40.7 28.52 40.34 28.76H40.25C39.83 28.82 39.41 28.88 38.99 28.94C38.57 29 38.12 29.09 37.64 29.21C37.4 29.27 37.13 29.33 36.83 29.39C36.53 29.39 36.23 29.45 35.93 29.57L34.13 29.93C33.89 30.11 33.62 30.26 33.32 30.38C33.08 30.44 32.81 30.44 32.51 30.38H32.42L30.71 30.83H30.62C30.44 30.83 30.23 30.71 29.99 30.47C29.81 30.17 29.69 29.9 29.63 29.66C29.57 30.02 29.48 30.41 29.36 30.83C29.24 31.25 29.03 31.46 28.73 31.46L26.21 32.27C25.97 32.33 25.7 32.36 25.4 32.36C25.1 32.36 24.8 32.36 24.5 32.36C24.2 32.36 23.96 32.39 23.78 32.45C23.6 32.51 23.48 32.66 23.42 32.9C23.42 33.08 23.33 33.23 23.15 33.35C22.91 33.59 22.61 33.77 22.25 33.89C21.89 33.95 21.56 34.04 21.26 34.16H21.17C21.05 34.16 20.87 34.1 20.63 33.98C20.45 33.86 20.3 33.83 20.18 33.89C20.12 33.95 20.06 34.1 20 34.34C19.94 34.58 19.85 34.73 19.73 34.79V34.88C19.37 35 18.98 35.15 18.56 35.33C18.14 35.51 17.75 35.69 17.39 35.87C17.03 36.05 16.61 36.26 16.13 36.5C15.71 36.68 15.35 36.8 15.05 36.86C14.93 36.86 14.87 36.74 14.87 36.5C14.93 36.26 14.9 36.2 14.78 36.32C14.42 36.5 14.06 36.83 13.7 37.31C13.34 37.79 13.01 38.12 12.71 38.3C12.41 38.54 12.08 38.66 11.72 38.66C11.42 38.66 11.12 38.78 10.82 39.02C10.64 39.2 10.46 39.5 10.28 39.92C10.16 40.28 10.01 40.55 9.83 40.73C9.35 41.21 8.87 41.78 8.39 42.44C8.33 42.56 8.24 42.68 8.12 42.8C8 42.92 7.94 43.07 7.94 43.25H7.85C7.49 43.97 7.31 44.66 7.31 45.32C7.31 46.64 7.79 47.6 8.75 48.2C9.77 48.8 10.91 49.25 12.17 49.55C12.41 49.61 12.62 49.7 12.8 49.82C13.04 49.94 13.28 49.97 13.52 49.91C13.76 49.79 13.97 49.73 14.15 49.73C14.45 49.73 14.69 49.85 14.87 50.09L16.22 50.36C16.94 50.54 17.3 50.72 17.3 50.9C17.3 51.02 17.12 51.14 16.76 51.26C16.46 51.32 16.16 51.35 15.86 51.35C14.78 51.35 13.46 51.14 11.9 50.72C10.34 50.24 8.93 49.55 7.67 48.65C6.41 47.69 5.69 46.52 5.51 45.14C5.51 45.08 5.42 44.93 5.24 44.69C5.12 44.45 5.03 44.24 4.97 44.06C4.79 43.52 4.7 42.98 4.7 42.44C4.7 41.42 4.91 40.46 5.33 39.56C5.81 38.66 6.44 37.82 7.22 37.04C7.52 36.74 7.79 36.53 8.03 36.41C8.33 36.29 8.66 36.11 9.02 35.87C9.38 35.63 9.56 35.42 9.56 35.24C9.56 35.06 9.74 34.85 10.1 34.61C10.58 34.31 11.24 33.95 12.08 33.53C12.98 33.11 13.67 32.78 14.15 32.54C14.51 32.54 14.84 32.39 15.14 32.09C16.34 31.55 17.6 31.07 18.92 30.65C20.24 30.17 21.56 29.72 22.88 29.3C23.24 29.12 23.6 29.03 23.96 29.03C24.32 29.03 24.59 29.12 24.77 29.3C24.77 29.18 24.74 29.09 24.68 29.03C24.68 28.91 24.74 28.82 24.86 28.76C26.36 28.28 27.86 27.89 29.36 27.59C30.86 27.23 32.3 26.93 33.68 26.69H33.77C33.95 26.69 34.22 26.63 34.58 26.51H34.67C34.79 26.51 34.88 26.51 34.94 26.51C35.06 26.45 35.18 26.42 35.3 26.42C35.66 26.6 36.02 26.54 36.38 26.24C38 25.94 39.5 25.73 40.88 25.61C42.26 25.43 43.43 25.34 44.39 25.34H44.66C44.78 25.34 44.9 25.34 45.02 25.34C45.2 25.28 45.35 25.25 45.47 25.25H46.37C46.55 25.19 46.73 25.19 46.91 25.25C47.15 25.25 47.33 25.25 47.45 25.25H47.54C48.26 25.25 49.01 25.28 49.79 25.34C50.63 25.34 51.47 25.34 52.31 25.34H52.4C52.64 25.4 52.82 25.49 52.94 25.61C53.12 25.73 53.33 25.67 53.57 25.43C55.19 25.49 56.81 25.67 58.43 25.97C59.33 26.09 60.41 26.33 61.67 26.69C62.99 26.99 64.25 27.44 65.45 28.04C66.65 28.58 67.64 29.27 68.42 30.11C69.26 30.95 69.68 31.97 69.68 33.17C69.68 33.65 69.59 34.16 69.41 34.7C69.23 35.24 68.9 35.75 68.42 36.23C67.94 36.65 67.46 37.1 66.98 37.58L65.9 38.57L65.27 38.75L64.55 39.11C63.23 39.71 61.79 40.4 60.23 41.18C58.67 41.9 57.02 42.47 55.28 42.89L54.47 43.07H54.38V43.16H54.29C54.17 43.22 54.02 43.25 53.84 43.25C53.66 43.19 53.48 43.22 53.3 43.34C50.36 44.12 47.57 44.66 44.93 44.96C44.33 45.02 44.03 45.14 44.03 45.32C44.03 45.44 44.24 45.59 44.66 45.77C45.14 45.89 45.5 46.01 45.74 46.13C46.88 46.49 48.08 46.88 49.34 47.3C50.6 47.66 51.89 48.11 53.21 48.65C53.57 48.71 53.93 48.83 54.29 49.01C54.71 49.19 55.01 49.46 55.19 49.82C55.25 49.7 55.34 49.67 55.46 49.73C55.58 49.79 55.67 49.82 55.73 49.82C56.51 50.18 57.26 50.57 57.98 50.99C58.7 51.41 59.36 51.86 59.96 52.34C60.08 52.64 60.14 52.79 60.14 52.79C60.56 52.79 60.86 52.91 61.04 53.15C61.22 53.39 61.43 53.66 61.67 53.96C62.33 54.68 62.84 55.46 63.2 56.3C63.56 57.08 63.74 57.92 63.74 58.82C63.74 59.06 63.71 59.3 63.65 59.54C63.65 59.78 63.62 60.05 63.56 60.35C64.94 59.57 65.96 58.55 66.62 57.29C66.74 57.11 66.89 57.02 67.07 57.02C67.43 57.02 67.55 57.23 67.43 57.65C67.13 58.43 66.56 59.3 65.72 60.26C64.94 61.16 64.04 61.85 63.02 62.33C63.02 62.39 62.99 62.45 62.93 62.51C62.63 63.23 62.33 63.77 62.03 64.13C61.97 64.37 61.85 64.55 61.67 64.67C61.55 64.79 61.46 64.94 61.4 65.12L61.31 65.21L60.95 65.39C60.89 65.45 60.83 65.54 60.77 65.66C60.77 65.78 60.71 65.9 60.59 66.02C60.71 66.14 60.68 66.2 60.5 66.2C59 68 57.08 69.5 54.74 70.7H54.65C54.23 70.94 54.08 71 54.2 70.88C54.32 70.82 54.32 70.73 54.2 70.61H54.11C53.63 70.85 53.33 71.03 53.21 71.15C53.03 71.15 52.82 71.21 52.58 71.33C52.4 71.45 52.31 71.51 52.31 71.51H51.86C51.8 71.51 51.65 71.57 51.41 71.69C51.23 71.87 51.08 71.99 50.96 72.05C50.66 72.05 50.45 72.14 50.33 72.32C50.21 72.32 50.06 72.32 49.88 72.32C49.7 72.32 49.52 72.35 49.34 72.41C49.28 72.47 48.98 72.5 48.44 72.5C47.96 72.56 47.66 72.62 47.54 72.68C47.48 72.74 47.27 72.83 46.91 72.95C46.55 73.07 46.31 73.13 46.19 73.13C46.13 73.13 46.07 73.1 46.01 73.04C46.01 73.04 45.98 73.04 45.92 73.04C45.86 73.04 45.8 73.07 45.74 73.13C45.68 73.25 45.59 73.31 45.47 73.31C45.35 73.31 45.23 73.28 45.11 73.22C44.99 73.16 44.87 73.13 44.75 73.13C44.69 73.13 44.57 73.16 44.39 73.22C44.27 73.34 44.15 73.4 44.03 73.4C43.91 73.4 43.79 73.37 43.67 73.31C43.61 73.31 43.49 73.34 43.31 73.4C43.19 73.46 43.07 73.49 42.95 73.49ZM20.54 74.48C20.12 74.48 19.91 74.03 19.91 73.13C19.91 72.53 20.03 71.78 20.27 70.88C20.57 70.04 20.93 69.05 21.35 67.91C21.83 67.49 22.07 66.95 22.07 66.29C22.19 66.35 22.25 66.35 22.25 66.29C22.31 66.17 22.34 66.11 22.34 66.11C22.46 65.93 22.52 65.75 22.52 65.57C22.52 65.33 22.55 65.12 22.61 64.94C23.69 62.24 25.07 59.3 26.75 56.12C26.87 55.88 26.99 55.82 27.11 55.94C27.29 56 27.41 55.97 27.47 55.85C27.53 55.79 27.56 55.64 27.56 55.4C27.56 55.22 27.53 55.04 27.47 54.86C27.47 54.68 27.56 54.47 27.74 54.23L29 51.98C30.74 48.86 32.48 45.86 34.22 42.98C36.02 40.1 37.7 37.88 39.26 36.32L39.53 36.14L39.8 35.69C39.8 35.69 39.86 35.66 39.98 35.6C40.1 35.54 40.19 35.57 40.25 35.69C40.25 35.75 40.19 35.87 40.07 36.05C40.01 36.23 39.98 36.35 39.98 36.41C40.16 36.71 40.37 36.74 40.61 36.5C40.67 36.38 40.67 36.11 40.61 35.69C40.55 35.27 40.55 35.06 40.61 35.06C40.73 35 40.79 35 40.79 35.06C40.85 35.12 40.91 35.15 40.97 35.15C41.09 35.15 41.15 35.06 41.15 34.88C41.15 34.7 41.18 34.58 41.24 34.52C41.9 34.28 42.5 34.16 43.04 34.16C43.34 34.16 43.76 34.31 44.3 34.61C44.9 34.91 45.2 35.33 45.2 35.87C45.2 36.17 45.05 36.53 44.75 36.95C44.69 37.01 44.63 37.13 44.57 37.31C44.51 37.43 44.42 37.55 44.3 37.67C44.24 37.73 44.18 37.76 44.12 37.76C44.12 37.7 44.06 37.7 43.94 37.76C43.88 37.82 43.79 37.85 43.67 37.85C43.61 37.79 43.52 37.76 43.4 37.76C43.28 37.76 43.25 37.85 43.31 38.03C43.43 38.21 43.46 38.33 43.4 38.39C43.34 38.45 43.28 38.45 43.22 38.39C43.16 38.33 43.07 38.36 42.95 38.48C42.89 38.54 42.92 38.6 43.04 38.66C43.22 38.66 43.25 38.72 43.13 38.84C42.77 39.2 42.32 39.59 41.78 40.01C41.3 40.37 40.82 40.73 40.34 41.09C40.28 41.15 40.22 41.15 40.16 41.09C40.1 40.97 40.04 40.94 39.98 41L39.35 41.9C38.75 42.5 38.15 43.13 37.55 43.79C36.95 44.45 36.32 45.2 35.66 46.04C35.48 46.4 35.27 46.73 35.03 47.03C34.79 47.33 34.46 47.45 34.04 47.39C34.04 47.45 34.1 47.54 34.22 47.66C34.34 47.72 34.34 47.84 34.22 48.02C33.2 49.46 32.18 50.96 31.16 52.52C30.14 54.08 29.18 55.7 28.28 57.38C27.86 58.1 27.35 59.03 26.75 60.17L25.94 61.79C25.88 61.97 25.79 62.06 25.67 62.06C25.61 62 25.52 61.97 25.4 61.97C25.52 62.21 25.58 62.42 25.58 62.6C25.58 63.08 25.31 63.59 24.77 64.13C23.99 65.93 23.27 67.64 22.61 69.26C21.95 70.88 21.44 72.38 21.08 73.76C20.96 74.24 20.78 74.48 20.54 74.48ZM43.31 71.96H43.49C43.61 72.02 43.76 71.96 43.94 71.78H44.3C44.54 71.66 44.69 71.6 44.75 71.6C44.87 71.6 44.96 71.66 45.02 71.78C45.08 71.96 45.23 71.96 45.47 71.78L45.83 71.69C45.95 71.57 46.07 71.51 46.19 71.51C46.31 71.51 46.43 71.48 46.55 71.42C46.67 71.36 46.73 71.27 46.73 71.15C46.79 71.09 46.88 71.09 47 71.15C47.12 71.15 47.18 71.15 47.18 71.15C47.24 71.21 47.3 71.24 47.36 71.24H47.45C47.63 71.24 47.87 71.15 48.17 70.97C48.47 70.79 48.62 70.7 48.62 70.7C48.74 70.7 48.86 70.61 48.98 70.43C49.1 70.31 49.19 70.25 49.25 70.25L49.97 70.07C50.33 69.89 50.6 69.8 50.78 69.8C50.84 69.68 51.02 69.56 51.32 69.44C51.62 69.32 51.77 69.23 51.77 69.17C51.89 69.05 52.07 68.96 52.31 68.9C52.55 68.84 52.7 68.78 52.76 68.72C53 68.72 53.57 68.36 54.47 67.64C55.43 66.92 56.24 65.99 56.9 64.85C56.96 64.73 56.78 64.76 56.36 64.94C55.94 65.12 55.49 65.33 55.01 65.57C54.59 65.75 54.35 65.84 54.29 65.84C54.23 65.84 54.08 65.96 53.84 66.2C53.6 66.38 53.45 66.47 53.39 66.47C53.27 66.59 53.15 66.65 53.03 66.65C53.03 66.65 52.91 66.59 52.67 66.47V66.65C52.55 66.65 52.46 66.68 52.4 66.74C52.34 66.74 52.25 66.74 52.13 66.74C52.01 66.74 51.83 66.8 51.59 66.92C51.35 67.04 51.2 67.1 51.14 67.1C51.08 67.1 50.99 67.13 50.87 67.19C50.81 67.19 50.72 67.16 50.6 67.1C50.36 67.34 49.91 67.52 49.25 67.64C48.59 67.76 48.11 67.82 47.81 67.82C47.75 67.82 47.72 67.82 47.72 67.82C47.78 67.76 47.78 67.73 47.72 67.73C47.66 67.73 47.6 67.76 47.54 67.82C47.48 67.82 47.39 67.82 47.27 67.82L47.09 68H46.37C46.19 68 45.98 68.03 45.74 68.09C45.56 68.15 45.41 68.15 45.29 68.09H45.11C45.05 68.09 44.96 68.09 44.84 68.09C44.78 68.15 44.69 68.18 44.57 68.18C44.51 68.18 44.45 68.15 44.39 68.09C44.39 68.03 44.33 67.97 44.21 67.91C44.15 67.91 44.09 67.94 44.03 68C43.97 68.12 43.88 68.18 43.76 68.18C43.7 68.18 43.64 68.15 43.58 68.09C43.58 68.09 43.55 68.09 43.49 68.09H43.13C43.13 68.15 43.07 68.18 42.95 68.18C42.89 68.18 42.86 68.15 42.86 68.09C42.86 68.09 42.83 68.09 42.77 68.09C42.65 68.09 42.5 68.12 42.32 68.18C42.2 68.24 42.08 68.27 41.96 68.27H41.78C41.78 68.15 41.72 68.06 41.6 68V68.09H40.79C40.43 68.03 40.07 67.91 39.71 67.73C39.35 67.55 39.02 67.43 38.72 67.37C38.66 67.37 38.6 67.4 38.54 67.46C38.54 67.52 38.51 67.55 38.45 67.55C38.39 67.55 38.33 67.52 38.27 67.46C38.27 67.4 38.24 67.37 38.18 67.37C38.12 67.37 38.06 67.4 38 67.46C38 67.46 37.94 67.4 37.82 67.28C37.7 67.28 37.46 67.22 37.1 67.1C37.1 66.92 37.01 66.83 36.83 66.83C36.83 66.71 36.47 66.56 35.75 66.38C35.03 66.2 34.61 66.08 34.49 66.02C34.43 65.96 34.31 65.87 34.13 65.75C34.01 65.63 33.92 65.63 33.86 65.75C33.68 65.69 33.44 65.54 33.14 65.3C32.84 65 32.6 64.85 32.42 64.85L32.06 64.31H31.97L31.7 64.76C31.7 64.82 31.73 64.97 31.79 65.21C31.91 65.45 31.94 65.63 31.88 65.75C32 65.81 32.06 65.93 32.06 66.11C32.06 66.29 32.12 66.38 32.24 66.38C32.24 66.74 32.36 67.1 32.6 67.46C32.6 67.52 32.75 67.64 33.05 67.82C33.41 68 33.56 68.12 33.5 68.18C33.74 68.42 33.86 68.6 33.86 68.72C34.1 68.96 34.22 69.14 34.22 69.26C34.28 69.32 34.31 69.35 34.31 69.35C34.37 69.35 34.4 69.35 34.4 69.35C34.46 69.47 34.61 69.68 34.85 69.98C35.15 70.28 35.36 70.43 35.48 70.43H35.66C35.72 70.49 35.84 70.61 36.02 70.79C36.26 70.97 36.41 71.06 36.47 71.06H36.56C37.04 71.06 37.52 71.12 38 71.24C38.54 71.42 39.05 71.54 39.53 71.6C39.53 71.6 39.59 71.63 39.71 71.69C39.89 71.75 40.07 71.81 40.25 71.87C40.73 71.93 41.3 71.93 41.96 71.87C42.62 71.87 43.07 71.9 43.31 71.96ZM75.3437 68.18C73.8437 68.18 72.5237 67.76 71.3837 66.92C70.2437 66.08 69.6737 64.64 69.6737 62.6C69.6737 61.82 69.7637 61.04 69.9437 60.26C70.1237 59.42 70.3337 58.61 70.5737 57.83C70.6937 57.05 70.8737 56.36 71.1137 55.76C71.1737 55.52 71.2037 55.4 71.2037 55.4C71.2637 55.34 71.4137 55.25 71.6537 55.13L72.3737 54.05V53.69C72.3137 53.69 72.2837 53.69 72.2837 53.69C72.2837 53.63 72.2837 53.6 72.2837 53.6C72.2837 53.42 72.4337 53.21 72.7337 52.97C73.0337 52.73 73.1837 52.61 73.1837 52.61C73.2437 52.31 73.3337 52.16 73.4537 52.16C73.5737 52.16 73.7237 52.07 73.9037 51.89H74.8937V51.71C74.8937 51.41 74.7437 51.29 74.4437 51.35C74.2037 51.35 74.0837 51.32 74.0837 51.26C74.0837 51.2 74.1737 51.08 74.3537 50.9C74.5937 50.66 74.7437 50.51 74.8037 50.45C74.9837 50.21 75.1337 50 75.2537 49.82C75.3737 49.58 75.5537 49.4 75.7937 49.28C76.8737 47.96 77.5337 47.12 77.7737 46.76C78.0737 46.4 78.3737 46.13 78.6737 45.95C78.7937 45.95 78.8837 46.01 78.9437 46.13C79.0637 46.19 79.0637 46.28 78.9437 46.4C79.0637 46.58 79.1537 46.61 79.2137 46.49C79.3337 46.37 79.3937 46.31 79.3937 46.31L79.7537 46.13C79.6337 46.01 79.5737 45.86 79.5737 45.68C79.5737 45.38 79.6337 45.14 79.7537 44.96C79.8737 44.72 80.0837 44.48 80.3837 44.24C80.7437 44 80.9237 43.85 80.9237 43.79C81.2837 43.67 81.5537 43.55 81.7337 43.43C81.9737 43.31 82.2137 43.25 82.4537 43.25C82.8737 43.25 83.2937 43.4 83.7137 43.7C84.8537 44.3 85.8137 44.9 86.5937 45.5C87.3737 46.1 87.7637 46.94 87.7637 48.02C87.7637 49.16 87.2837 50.15 86.3237 50.99C85.4237 51.77 84.3137 52.43 82.9937 52.97C81.6737 53.51 80.3537 53.96 79.0337 54.32C77.7737 54.62 76.7837 54.86 76.0637 55.04C75.6437 55.1 75.4337 55.28 75.4337 55.58C75.4937 55.82 75.4637 56.09 75.3437 56.39L74.7137 57.38L74.1737 58.64L73.7237 59.45C73.3037 59.81 73.1537 60.08 73.2737 60.26C73.3937 60.44 73.6037 60.41 73.9037 60.17C73.9637 60.23 73.9937 60.32 73.9937 60.44C73.9937 60.68 73.9337 60.98 73.8137 61.34C73.6937 61.64 73.6037 61.88 73.5437 62.06C73.4837 62.3 73.4837 62.42 73.5437 62.42C73.6637 62.36 73.7237 62.48 73.7237 62.78L73.8137 64.04C74.1737 65.18 74.9837 65.84 76.2437 66.02C76.3637 66.02 76.4837 66.05 76.6037 66.11C76.7837 66.11 76.9337 66.11 77.0537 66.11C78.1337 66.11 78.7037 66.02 78.7637 65.84C78.8837 65.66 79.0337 65.54 79.2137 65.48C79.7537 65.36 80.2037 65.24 80.5637 65.12C80.9837 65 81.4037 64.82 81.8237 64.58C82.5437 64.28 83.2337 63.89 83.8937 63.41C84.5537 62.93 85.2437 62.45 85.9637 61.97L86.8637 61.34C86.9237 61.22 86.9237 61.13 86.8637 61.07C86.8037 61.01 86.8037 60.95 86.8637 60.89C86.9837 60.83 87.0737 60.83 87.1337 60.89C87.2537 60.89 87.3437 60.86 87.4037 60.8C87.5237 60.74 87.6437 60.65 87.7637 60.53C87.8837 60.35 88.0037 60.2 88.1237 60.08C88.2437 59.96 88.3037 59.84 88.3037 59.72C88.3637 59.6 88.4537 59.48 88.5737 59.36C89.0537 58.88 89.5337 58.37 90.0137 57.83C90.5537 57.29 91.0037 56.81 91.3637 56.39C91.7837 55.79 92.1137 55.49 92.3537 55.49C92.4737 55.49 92.5337 55.55 92.5337 55.67C92.5337 55.97 92.3237 56.42 91.9037 57.02C90.8837 58.52 89.7137 59.99 88.3937 61.43C87.0737 62.81 85.6337 64.07 84.0737 65.21C82.9337 65.99 81.5837 66.68 80.0237 67.28C78.4637 67.88 76.9037 68.18 75.3437 68.18ZM76.6937 53.69C77.5937 53.63 78.7637 53.39 80.2037 52.97C81.6437 52.49 82.8437 51.86 83.8037 51.08C84.8237 50.24 85.3337 49.31 85.3337 48.29C85.3337 47.33 84.8237 46.4 83.8037 45.5C82.9637 46.1 82.0337 46.97 81.0137 48.11C80.0537 49.19 79.1837 50.27 78.4037 51.35C77.6237 52.37 77.0537 53.15 76.6937 53.69ZM106.365 68.27C106.005 68.27 105.825 68.06 105.825 67.64C105.825 67.34 105.915 66.98 106.095 66.56C106.575 65.54 107.115 64.1 107.715 62.24C108.375 60.38 109.185 58.79 110.145 57.47C110.805 56.15 111.405 54.86 111.945 53.6C112.545 52.28 113.115 50.96 113.655 49.64C113.655 49.64 113.595 49.61 113.475 49.55C113.355 49.43 113.295 49.31 113.295 49.19C112.995 48.95 112.635 48.62 112.215 48.2C111.795 47.72 111.765 47.24 112.125 46.76C112.245 46.64 112.305 46.58 112.305 46.58C112.365 46.58 112.395 46.58 112.395 46.58C112.395 46.52 112.365 46.49 112.305 46.49C112.305 46.49 112.305 46.46 112.305 46.4L112.215 46.31C112.155 46.31 112.095 46.31 112.035 46.31C112.035 46.25 112.005 46.22 111.945 46.22C111.705 46.22 111.435 46.28 111.135 46.4C110.835 46.46 110.535 46.49 110.235 46.49C109.875 46.49 109.395 46.64 108.795 46.94C108.195 47.18 107.655 47.39 107.175 47.57C106.935 47.63 106.785 47.66 106.725 47.66C106.725 47.6 106.605 47.63 106.365 47.75C106.305 47.81 106.305 47.72 106.365 47.48C106.485 47.18 106.545 46.97 106.545 46.85C106.545 46.79 106.515 46.76 106.455 46.76C106.335 46.76 106.095 46.94 105.735 47.3C105.375 47.6 105.135 47.78 105.015 47.84C104.955 47.9 104.925 47.99 104.925 48.11C104.985 48.23 105.015 48.35 105.015 48.47C105.015 48.65 104.865 48.86 104.565 49.1C104.265 49.28 104.055 49.43 103.935 49.55C103.695 49.73 103.395 49.85 103.035 49.91C102.735 49.91 102.435 50.03 102.135 50.27C101.775 50.51 101.595 50.69 101.595 50.81C101.655 50.93 101.475 51.14 101.055 51.44C100.515 51.86 99.7648 52.49 98.8048 53.33C97.9048 54.17 97.2148 54.92 96.7348 55.58C95.5948 56.96 94.5448 58.55 93.5848 60.35C92.6848 62.15 92.2348 63.56 92.2348 64.58C92.2348 65.36 92.5648 65.75 93.2248 65.75C93.3448 65.75 93.4648 65.75 93.5848 65.75C93.7048 65.69 93.8548 65.63 94.0348 65.57L96.3748 64.22L96.9148 64.13V64.04L97.2748 64.31C97.3348 64.25 97.3048 64.16 97.1848 64.04C97.1248 63.86 97.1248 63.77 97.1848 63.77C97.2448 63.77 97.2748 63.8 97.2748 63.86C97.3348 63.86 97.3948 63.86 97.4548 63.86L97.6348 63.59C97.6348 63.59 97.7248 63.62 97.9048 63.68C98.1448 63.68 98.3248 63.62 98.4448 63.5C98.6248 63.44 98.6548 63.35 98.5348 63.23C98.4748 63.11 98.3848 63.02 98.2648 62.96L98.8948 62.42C98.9548 62.3 99.1948 62.18 99.6148 62.06C100.635 61.4 101.475 60.62 102.135 59.72C102.855 58.76 103.665 57.89 104.565 57.11H104.655L105.735 56.03L105.645 55.76L106.815 54.41H106.995C107.055 54.29 107.175 54.14 107.355 53.96C107.595 53.78 107.745 53.63 107.805 53.51C107.925 53.45 108.195 53.15 108.615 52.61C109.095 52.01 109.545 51.53 109.965 51.17C110.445 50.81 110.715 50.63 110.775 50.63C110.835 50.63 110.865 50.66 110.865 50.72C110.865 50.9 110.775 51.17 110.595 51.53C110.475 51.89 110.355 52.13 110.235 52.25C109.815 52.91 109.275 53.66 108.615 54.5C107.955 55.28 107.565 55.76 107.445 55.94C106.725 56.72 105.855 57.77 104.835 59.09C103.815 60.35 102.705 61.61 101.505 62.87C100.305 64.13 99.1048 65.21 97.9048 66.11C96.7648 66.95 95.6848 67.37 94.6648 67.37C93.7048 67.37 92.6848 67.07 91.6048 66.47C90.5248 65.87 89.9848 64.73 89.9848 63.05C89.9848 62.51 90.0448 61.91 90.1648 61.25C90.3448 60.53 90.6148 59.78 90.9748 59C90.9748 59 91.0348 58.94 91.1548 58.82C91.2748 58.64 91.3648 58.58 91.4248 58.64C91.5448 58.46 91.5748 58.28 91.5148 58.1C91.5148 57.86 91.5148 57.71 91.5148 57.65L91.6948 57.47C91.8148 56.81 92.2648 56.21 93.0448 55.67C93.8248 55.13 94.2448 54.71 94.3048 54.41C94.3648 54.35 94.3948 54.26 94.3948 54.14L94.7548 52.97V52.61H95.1148L95.3848 52.25L95.4748 52.07C95.3548 52.01 95.3848 51.92 95.5648 51.8C95.8048 51.62 95.9248 51.53 95.9248 51.53C95.9848 51.41 96.0448 51.32 96.1048 51.26C96.2248 51.2 96.3148 51.14 96.3748 51.08H97.0048C97.1248 50.9 97.0648 50.81 96.8248 50.81C96.5848 50.81 96.4648 50.81 96.4648 50.81C96.4648 50.75 96.4648 50.72 96.4648 50.72C96.5248 50.66 96.5548 50.6 96.5548 50.54L97.5448 49.73C97.8448 49.49 98.1448 49.28 98.4448 49.1C98.7448 48.92 99.0148 48.71 99.2548 48.47C99.4348 48.47 99.4648 48.56 99.3448 48.74C99.4048 48.86 99.4648 48.86 99.5248 48.74C99.6448 48.62 99.7048 48.56 99.7048 48.56L100.155 48.47V48.38C100.155 48.26 100.185 48.08 100.245 47.84C100.305 47.6 100.335 47.45 100.335 47.39C101.595 46.43 102.915 45.59 104.295 44.87C105.675 44.09 107.025 43.7 108.345 43.7C109.905 43.7 111.315 44.3 112.575 45.5L113.025 45.77C113.085 45.77 113.115 45.74 113.115 45.68C113.235 44.84 113.925 44.21 115.185 43.79C116.505 43.37 117.675 43.16 118.695 43.16C119.775 43.16 120.315 43.31 120.315 43.61C120.315 43.73 120.135 43.94 119.775 44.24C119.595 44.36 119.295 44.63 118.875 45.05C118.455 45.47 118.035 45.98 117.615 46.58C117.555 46.76 117.465 46.94 117.345 47.12C117.225 47.3 117.105 47.48 116.985 47.66C116.925 47.78 116.835 47.93 116.715 48.11C116.655 48.23 116.565 48.35 116.445 48.47C115.425 50.21 114.615 51.68 114.015 52.88C113.415 54.08 112.695 55.61 111.855 57.47C111.735 57.83 111.675 58.04 111.675 58.1C111.675 58.58 111.945 58.82 112.485 58.82C112.845 58.82 113.205 58.73 113.565 58.55L114.465 58.19C115.905 56.87 117.405 55.76 118.965 54.86C119.025 54.86 119.055 54.86 119.055 54.86C119.115 54.8 119.175 54.77 119.235 54.77C119.415 54.77 119.535 54.89 119.595 55.13C119.655 55.31 119.595 55.46 119.415 55.58C117.675 56.54 116.055 57.77 114.555 59.27C114.495 59.39 114.435 59.51 114.375 59.63C114.315 59.75 114.225 59.87 114.105 59.99C113.925 60.11 113.745 60.32 113.565 60.62C113.385 60.92 113.295 61.1 113.295 61.16C113.235 61.34 113.145 61.4 113.025 61.34C112.965 61.28 112.785 61.37 112.485 61.61C112.425 61.67 112.365 61.79 112.305 61.97C112.305 62.15 112.275 62.3 112.215 62.42C112.095 62.6 111.975 62.75 111.855 62.87C111.735 62.93 111.675 62.99 111.675 63.05C111.615 63.29 111.495 63.44 111.315 63.5C111.195 63.5 111.075 63.56 110.955 63.68C110.895 63.68 110.865 63.71 110.865 63.77C110.865 64.31 110.805 64.55 110.685 64.49C110.565 64.43 110.445 64.49 110.325 64.67C110.205 64.91 110.055 65.03 109.875 65.03C109.515 65.15 109.365 65.24 109.425 65.3C109.545 65.36 109.635 65.42 109.695 65.48C109.815 65.48 109.725 65.57 109.425 65.75C109.305 65.81 109.185 65.99 109.065 66.29C108.945 66.53 108.825 66.71 108.705 66.83C108.525 66.95 108.345 67.04 108.165 67.1C107.985 67.16 107.835 67.28 107.715 67.46C107.175 68 106.725 68.27 106.365 68.27ZM136.916 67.91C136.016 67.91 135.356 67.52 134.936 66.74C134.876 66.56 134.726 66.29 134.486 65.93C134.306 65.57 134.156 65.27 134.036 65.03V64.94C134.036 64.82 134.066 64.7 134.126 64.58C134.186 64.46 134.216 64.34 134.216 64.22C134.216 63.98 134.156 63.77 134.036 63.59C133.916 63.35 133.856 63.11 133.856 62.87C133.856 62.03 134.096 61.04 134.576 59.9C135.116 58.76 135.536 57.77 135.836 56.93C135.956 56.45 136.256 55.88 136.736 55.22C136.796 55.16 136.856 55.13 136.916 55.13C137.036 55.13 137.126 55.1 137.186 55.04C137.306 54.86 137.366 54.68 137.366 54.5C137.426 54.26 137.486 54.05 137.546 53.87C137.606 53.75 137.726 53.69 137.906 53.69C138.086 53.69 138.206 53.63 138.266 53.51C138.326 53.39 138.236 53.33 137.996 53.33C137.756 53.33 137.666 53.27 137.726 53.15C138.146 52.37 138.596 51.56 139.076 50.72C139.616 49.88 139.976 49.34 140.156 49.1C140.096 49.16 140.066 49.1 140.066 48.92C140.066 48.68 140.006 48.59 139.886 48.65C139.826 48.71 139.676 48.86 139.436 49.1C139.196 49.34 139.016 49.52 138.896 49.64C138.596 49.88 138.236 50.21 137.816 50.63C137.396 51.05 137.126 51.32 137.006 51.44C136.826 51.5 136.586 51.77 136.286 52.25C135.986 52.67 135.776 52.94 135.656 53.06C135.416 53.3 135.176 53.42 134.936 53.42C134.816 53.42 134.726 53.36 134.666 53.24C134.666 53.06 134.726 52.88 134.846 52.7C134.966 52.58 135.086 52.43 135.206 52.25C135.326 52.01 135.416 51.83 135.476 51.71C135.536 51.65 135.626 51.56 135.746 51.44C135.866 51.26 135.926 51.14 135.926 51.08L136.646 50.27C136.706 50.21 136.826 50.21 137.006 50.27C137.186 50.27 137.306 50.24 137.366 50.18C137.426 50.06 137.336 50 137.096 50C136.916 49.94 136.856 49.88 136.916 49.82C137.456 48.86 138.146 47.93 138.986 47.03C139.826 46.13 140.396 45.5 140.696 45.14C140.996 44.78 141.386 44.51 141.866 44.33C142.406 44.09 142.916 43.97 143.396 43.97C143.816 43.97 144.116 44 144.296 44.06C144.656 44.18 145.076 44.36 145.556 44.6C146.096 44.78 146.426 45.05 146.546 45.41C146.726 45.77 146.606 46.34 146.186 47.12C145.766 47.9 145.256 48.68 144.656 49.46C144.116 50.18 143.666 50.66 143.306 50.9C143.246 50.96 143.096 50.99 142.856 50.99C142.616 50.99 142.316 50.99 141.956 50.99C141.596 50.93 141.386 50.96 141.326 51.08C141.146 51.32 140.936 51.56 140.696 51.8C140.456 51.98 140.276 52.22 140.156 52.52C140.096 52.88 140.006 53.18 139.886 53.42C139.826 53.66 139.646 54.02 139.346 54.5C139.286 54.62 139.166 54.83 138.986 55.13C138.806 55.37 138.686 55.55 138.626 55.67C138.206 56.99 137.816 58.25 137.456 59.45C137.156 60.59 137.006 61.55 137.006 62.33C137.006 63.11 137.246 63.8 137.726 64.4C138.206 64.94 138.836 65.21 139.616 65.21C140.516 65.21 141.476 64.91 142.496 64.31C143.096 64.07 143.756 63.62 144.476 62.96C144.596 62.84 144.686 62.75 144.746 62.69C144.866 62.57 144.986 62.48 145.106 62.42H145.376C145.676 62.42 145.826 62.54 145.826 62.78C145.826 63.02 145.616 63.32 145.196 63.68C144.956 63.86 144.716 64.01 144.476 64.13C144.296 64.25 144.086 64.4 143.846 64.58C143.546 64.76 143.216 65.06 142.856 65.48C142.496 65.84 142.076 66.02 141.596 66.02H141.506C141.326 66.02 141.176 65.99 141.056 65.93C140.936 65.81 140.816 65.78 140.696 65.84C140.516 65.9 140.516 66.02 140.696 66.2C140.936 66.32 140.966 66.44 140.786 66.56L140.066 66.92C138.746 67.58 137.696 67.91 136.916 67.91ZM122.336 67.37C121.976 67.37 121.526 66.98 120.986 66.2C120.626 65.72 120.446 64.97 120.446 63.95C120.446 62.93 120.626 61.82 120.986 60.62C121.406 59.42 121.916 58.37 122.516 57.47C123.176 56.15 123.626 55.16 123.866 54.5C124.106 53.84 124.346 53.3 124.586 52.88C124.586 52.82 124.526 52.76 124.406 52.7C124.286 52.64 124.226 52.52 124.226 52.34C123.866 52.1 123.476 51.77 123.056 51.35C122.696 50.87 122.666 50.42 122.966 50C123.086 49.88 123.176 49.82 123.236 49.82C123.296 49.76 123.326 49.73 123.326 49.73V49.55C123.326 49.31 123.416 49.16 123.596 49.1C123.836 49.04 123.956 48.95 123.956 48.83C124.076 47.99 124.766 47.36 126.026 46.94C127.346 46.52 128.516 46.31 129.536 46.31C130.676 46.31 131.246 46.49 131.246 46.85C131.246 47.03 131.036 47.24 130.616 47.48C130.436 47.54 130.136 47.78 129.716 48.2C129.296 48.62 128.906 49.13 128.546 49.73L127.916 50.81L127.286 51.62C126.926 52.28 126.536 52.97 126.116 53.69C125.756 54.35 125.156 55.61 124.316 57.47C124.076 58.07 123.866 58.64 123.686 59.18C123.566 59.72 123.566 60.14 123.686 60.44C123.746 60.5 123.536 60.71 123.056 61.07C122.636 61.43 122.456 61.64 122.516 61.7C122.576 61.7 122.666 61.73 122.786 61.79C122.906 61.79 123.056 61.79 123.236 61.79C123.596 61.79 123.956 61.73 124.316 61.61C124.496 61.55 124.646 61.43 124.766 61.25C124.886 61.01 124.976 60.89 125.036 60.89C125.396 60.89 125.786 60.8 126.206 60.62C126.866 60.32 127.676 59.72 128.636 58.82C128.756 58.7 128.996 58.61 129.356 58.55C129.716 58.43 130.016 58.22 130.256 57.92C130.976 57.26 131.396 56.87 131.516 56.75C131.636 56.57 131.996 56.18 132.596 55.58C132.596 55.52 132.716 55.25 132.956 54.77C133.196 54.23 133.316 53.93 133.316 53.87C133.436 53.57 133.556 53.42 133.676 53.42C133.916 53.42 134.096 53.63 134.216 54.05C134.396 54.47 134.396 54.83 134.216 55.13C134.156 55.19 134.006 55.31 133.766 55.49C133.586 55.67 133.436 55.82 133.316 55.94L132.146 57.11L129.716 59.27C129.656 59.33 129.596 59.42 129.536 59.54C129.476 59.66 129.386 59.78 129.266 59.9L128.456 61.16C128.396 61.28 128.276 61.28 128.096 61.16C127.916 60.98 127.676 61.01 127.376 61.25C127.316 61.31 127.256 61.43 127.196 61.61C127.196 61.79 127.166 61.94 127.106 62.06C127.046 62.24 127.046 62.36 127.106 62.42C127.166 62.42 127.196 62.45 127.196 62.51C127.136 62.69 127.016 62.81 126.836 62.87C126.716 62.93 126.596 63.02 126.476 63.14C126.416 63.2 126.416 63.29 126.476 63.41C126.536 63.53 126.506 63.65 126.386 63.77C126.326 63.95 126.266 64.01 126.206 63.95C126.146 63.89 126.056 63.92 125.936 64.04C125.876 64.1 125.786 64.19 125.666 64.31C125.606 64.37 125.516 64.43 125.396 64.49C124.916 64.67 124.646 64.91 124.586 65.21C124.526 65.51 124.316 65.84 123.956 66.2C123.176 66.98 122.636 67.37 122.336 67.37ZM150.536 68.27C150.176 68.27 149.996 68.06 149.996 67.64C149.996 67.34 150.086 66.98 150.266 66.56C150.746 65.54 151.286 64.1 151.886 62.24C152.546 60.38 153.356 58.79 154.316 57.47L158.816 48.2C158.456 48.2 158.096 48.29 157.736 48.47C157.436 48.65 157.286 48.8 157.286 48.92C157.286 49.16 156.956 49.4 156.296 49.64C155.636 49.88 155.276 50.03 155.216 50.09C154.316 50.33 153.476 50.6 152.696 50.9C152.096 51.56 151.496 52.22 150.896 52.88C150.356 53.54 149.846 54.2 149.366 54.86C149.306 54.92 149.246 54.95 149.186 54.95C148.646 55.55 148.196 56 147.836 56.3C147.476 56.6 147.086 56.87 146.666 57.11C146.426 57.29 146.186 57.35 145.946 57.29C145.646 57.17 145.616 57.05 145.856 56.93C146.156 56.81 146.636 56.39 147.296 55.67C147.956 54.95 148.466 54.41 148.826 54.05C149.126 53.87 149.216 53.87 149.096 54.05C149.036 54.23 149.126 54.2 149.366 53.96L151.616 51.08L151.706 50.99C151.406 50.81 151.256 50.33 151.256 49.55C151.256 48.95 151.376 48.47 151.616 48.11C151.616 48.05 151.676 48.02 151.796 48.02L153.686 47.48C153.866 47.48 153.986 47.45 154.046 47.39C154.166 47.27 154.286 47.12 154.406 46.94C154.586 46.7 154.796 46.4 155.036 46.04L156.116 44.6L156.836 43.61C156.836 43.43 156.956 43.22 157.196 42.98C157.496 42.68 157.736 42.47 157.916 42.35C158.156 41.99 158.306 41.72 158.366 41.54C158.486 41.3 158.666 41 158.906 40.64C158.906 40.58 158.996 40.55 159.176 40.55C159.356 40.49 159.446 40.43 159.446 40.37C159.506 39.77 159.596 39.5 159.716 39.56C159.896 39.56 159.986 39.47 159.986 39.29C159.986 39.11 160.106 38.96 160.346 38.84L160.796 38.3C160.796 38.24 160.886 38.12 161.066 37.94V37.85C161.066 37.73 161.066 37.58 161.066 37.4C161.066 37.22 161.126 37.04 161.246 36.86C161.366 36.74 161.456 36.68 161.516 36.68C161.576 36.68 161.606 36.68 161.606 36.68C161.606 36.62 161.576 36.59 161.516 36.59C161.516 36.53 161.516 36.5 161.516 36.5C161.516 36.26 161.636 36.11 161.876 36.05C162.116 35.99 162.236 35.9 162.236 35.78C162.356 34.94 163.076 34.31 164.396 33.89C165.716 33.47 166.886 33.26 167.906 33.26C168.926 33.26 169.436 33.41 169.436 33.71C169.436 33.83 169.256 34.04 168.896 34.34C168.716 34.4 168.416 34.67 167.996 35.15C167.576 35.57 167.186 36.08 166.826 36.68L166.106 37.76C166.046 37.88 165.956 38.03 165.836 38.21C165.776 38.33 165.686 38.45 165.566 38.57C165.146 39.29 164.576 40.31 163.856 41.63C163.196 42.89 162.476 44.3 161.696 45.86L164.036 45.59C164.216 45.59 164.276 45.62 164.216 45.68C164.216 45.74 164.306 45.74 164.486 45.68C164.786 45.68 164.996 45.65 165.116 45.59C165.236 45.47 165.446 45.38 165.746 45.32C166.226 45.26 166.766 45.23 167.366 45.23C168.026 45.17 168.536 45.14 168.896 45.14C169.136 45.14 169.436 45.14 169.796 45.14C170.156 45.14 170.426 45.17 170.606 45.23C170.726 45.23 170.756 45.29 170.696 45.41C170.696 45.47 170.726 45.5 170.786 45.5C170.906 45.5 170.996 45.47 171.056 45.41C171.176 45.35 171.296 45.32 171.416 45.32C171.476 45.26 171.566 45.26 171.686 45.32C171.866 45.32 171.986 45.32 172.046 45.32L172.946 45.59C173.306 45.65 173.486 45.86 173.486 46.22C173.546 46.58 173.396 46.7 173.036 46.58C172.796 46.46 172.586 46.4 172.406 46.4H170.156C169.736 46.4 169.346 46.4 168.986 46.4C168.626 46.4 168.266 46.43 167.906 46.49C167.786 46.55 167.726 46.49 167.726 46.31C167.786 46.13 167.756 46.04 167.636 46.04C167.576 46.04 167.486 46.13 167.366 46.31C167.246 46.43 167.156 46.49 167.096 46.49L166.646 46.76C165.686 47 164.666 47.27 163.586 47.57C162.506 47.81 161.456 48.08 160.436 48.38C159.536 50.24 158.666 52.01 157.826 53.69C157.046 55.31 156.446 56.57 156.026 57.47C155.906 57.83 155.846 58.04 155.846 58.1C155.846 58.58 156.116 58.82 156.656 58.82C157.016 58.82 157.376 58.73 157.736 58.55L158.636 58.19C160.076 56.87 161.576 55.76 163.136 54.86C163.196 54.86 163.226 54.86 163.226 54.86C163.286 54.8 163.346 54.77 163.406 54.77C163.586 54.77 163.706 54.89 163.766 55.13C163.826 55.31 163.766 55.46 163.586 55.58C161.846 56.54 160.226 57.77 158.726 59.27C158.666 59.39 158.606 59.51 158.546 59.63C158.486 59.75 158.396 59.87 158.276 59.99C158.156 60.11 157.976 60.32 157.736 60.62C157.556 60.92 157.466 61.1 157.466 61.16C157.406 61.34 157.316 61.4 157.196 61.34C157.136 61.28 156.956 61.37 156.656 61.61C156.596 61.67 156.536 61.79 156.476 61.97C156.476 62.15 156.446 62.3 156.386 62.42C156.266 62.6 156.146 62.75 156.026 62.87C155.906 62.93 155.846 62.99 155.846 63.05C155.786 63.29 155.666 63.44 155.486 63.5C155.366 63.5 155.246 63.56 155.126 63.68C155.066 63.68 155.036 63.71 155.036 63.77C155.036 64.31 154.976 64.55 154.856 64.49C154.736 64.43 154.646 64.49 154.586 64.67C154.346 64.91 154.166 65.03 154.046 65.03C153.686 65.15 153.536 65.24 153.596 65.3C153.716 65.36 153.806 65.42 153.866 65.48C153.986 65.48 153.896 65.57 153.596 65.75C153.476 65.81 153.356 65.99 153.236 66.29C153.116 66.53 152.996 66.71 152.876 66.83C152.696 66.95 152.516 67.04 152.336 67.1C152.156 67.16 152.006 67.28 151.886 67.46C151.346 68 150.896 68.27 150.536 68.27ZM155.666 47.12C155.906 47.06 156.116 47 156.296 46.94C156.536 46.88 156.776 46.79 157.016 46.67L159.716 46.22C160.436 44.78 161.066 43.49 161.606 42.35C162.146 41.15 162.536 40.28 162.776 39.74C162.776 39.74 162.716 39.71 162.596 39.65C162.536 39.53 162.506 39.41 162.506 39.29C162.386 39.23 162.236 39.14 162.056 39.02C161.936 38.9 161.816 38.81 161.696 38.75L160.886 39.56L159.896 40.91C159.896 40.97 159.806 41.03 159.626 41.09C159.506 41.09 159.446 41.12 159.446 41.18C159.446 41.36 159.356 41.54 159.176 41.72C159.056 41.9 158.936 41.96 158.816 41.9L158.456 42.8C158.456 42.98 158.366 43.13 158.186 43.25L157.556 44.06C157.556 44.12 157.526 44.18 157.466 44.24C157.466 44.24 157.466 44.3 157.466 44.42C157.406 44.54 157.316 44.69 157.196 44.87C157.076 45.05 156.926 45.23 156.746 45.41C156.686 45.41 156.656 45.44 156.656 45.5C156.656 45.5 156.626 45.5 156.566 45.5L156.296 46.04C156.056 46.16 155.906 46.22 155.846 46.22L155.756 46.4C155.756 46.76 155.726 47 155.666 47.12ZM158.506 93.56C157.606 93.56 156.826 93.47 156.166 93.29C155.746 93.17 155.326 93.02 154.906 92.84C154.486 92.66 154.036 92.45 153.556 92.21L153.376 92.12C153.136 92 152.866 91.82 152.566 91.58C152.266 91.4 151.966 91.25 151.666 91.13C151.426 91.07 151.096 90.89 150.676 90.59C150.376 90.35 150.196 90.11 150.136 89.87C150.016 89.63 150.046 89.48 150.226 89.42C150.286 89.42 150.376 89.45 150.496 89.51C150.616 89.63 150.736 89.72 150.856 89.78C150.976 89.84 151.126 89.93 151.306 90.05C151.426 90.17 151.546 90.26 151.666 90.32C151.966 90.44 152.236 90.53 152.476 90.59C152.656 90.71 152.866 90.83 153.106 90.95C153.646 91.19 154.036 91.34 154.276 91.4C154.516 91.46 154.876 91.52 155.356 91.58L156.526 91.67C159.706 91.91 162.376 91.31 164.536 89.87C166.636 88.43 168.406 86.9 169.846 85.28C170.026 84.8 170.206 84.35 170.386 83.93C170.626 83.57 170.866 83.27 171.106 83.03C171.166 82.97 171.226 83 171.286 83.12C171.406 83.3 171.496 83.36 171.556 83.3C171.676 83.12 171.736 82.82 171.736 82.4C171.796 82.04 171.916 81.77 172.096 81.59C172.156 81.53 172.216 81.59 172.276 81.77C172.396 81.95 172.486 82.01 172.546 81.95C172.666 81.83 172.726 81.59 172.726 81.23C172.786 80.87 172.846 80.66 172.906 80.6C173.506 79.76 174.046 78.98 174.526 78.26C175.006 77.54 175.546 76.67 176.146 75.65C176.686 74.81 177.316 73.73 178.036 72.41C178.816 71.15 179.506 69.98 180.106 68.9C180.706 67.94 181.156 66.92 181.456 65.84L181.726 64.85C182.026 63.71 182.626 62.15 183.526 60.17C184.486 58.13 185.596 55.94 186.856 53.6C188.176 51.2 189.496 48.92 190.816 46.76C191.116 46.4 191.356 46.1 191.536 45.86C191.716 45.62 191.986 45.32 192.346 44.96C192.466 44.9 192.706 44.63 193.066 44.15C193.426 43.67 193.786 43.19 194.146 42.71C194.566 42.17 194.806 41.87 194.866 41.81C196.606 40.37 198.526 39.23 200.626 38.39C202.786 37.49 204.466 37.04 205.666 37.04C206.146 37.04 206.476 37.04 206.656 37.04C206.896 36.98 207.196 36.98 207.556 37.04L208.186 37.13C208.426 37.19 208.636 37.28 208.816 37.4C209.056 37.46 209.296 37.52 209.536 37.58C209.656 37.64 209.806 37.73 209.986 37.85C210.166 37.97 210.316 38.06 210.436 38.12C210.676 38.3 210.796 38.51 210.796 38.75C210.796 38.93 210.736 39.05 210.616 39.11C210.556 39.17 210.466 39.17 210.346 39.11C210.286 38.99 210.196 38.93 210.076 38.93C209.956 38.93 209.836 38.9 209.716 38.84C209.596 38.78 209.476 38.72 209.356 38.66C209.116 38.66 208.906 38.63 208.726 38.57C208.546 38.51 208.366 38.45 208.186 38.39C207.946 38.33 207.736 38.3 207.556 38.3C207.376 38.3 207.226 38.3 207.106 38.3C206.866 38.3 206.626 38.33 206.386 38.39C206.326 38.39 206.146 38.42 205.846 38.48C205.606 38.48 205.426 38.51 205.306 38.57C202.546 39.23 200.296 40.49 198.556 42.35C196.816 44.21 195.256 46.1 193.876 48.02C193.636 48.32 193.306 48.71 192.886 49.19C192.526 49.61 192.286 49.88 192.166 50C192.106 50.12 191.836 50.54 191.356 51.26C190.876 51.92 190.396 52.61 189.916 53.33C189.496 53.99 189.256 54.35 189.196 54.41C189.136 54.47 189.016 54.5 188.836 54.5C188.716 54.5 188.626 54.53 188.566 54.59L186.406 58.91L185.506 60.62L184.336 62.96C183.736 64.1 183.196 65.27 182.716 66.47C182.236 67.61 181.846 68.72 181.546 69.8C181.366 70.22 181.276 70.7 181.276 71.24C181.276 71.78 181.126 72.11 180.826 72.23C180.646 72.29 180.496 72.2 180.376 71.96C180.256 71.72 180.196 71.93 180.196 72.59C180.316 72.65 180.316 72.77 180.196 72.95C180.136 73.13 180.106 73.28 180.106 73.4C180.166 73.52 180.196 73.7 180.196 73.94C180.196 74.24 180.076 74.51 179.836 74.75C179.656 74.99 179.506 75.26 179.386 75.56C179.266 75.8 179.116 75.86 178.936 75.74C178.756 75.68 178.606 75.65 178.486 75.65L178.396 75.83C178.396 76.01 178.486 76.43 178.666 77.09C178.666 77.45 178.486 77.63 178.126 77.63H177.856C177.796 78.89 177.556 79.64 177.136 79.88L176.506 80.33L176.326 80.69C175.966 81.41 175.696 81.74 175.516 81.68L175.246 82.4C175.186 82.58 175.036 82.73 174.796 82.85C174.616 82.97 174.466 83.12 174.346 83.3C174.346 83.36 174.316 83.39 174.256 83.39C174.256 83.39 174.256 83.42 174.256 83.48C174.256 84.2 173.926 84.92 173.266 85.64C172.666 86.36 172.036 86.99 171.376 87.53C171.256 87.77 171.106 88.01 170.926 88.25C170.746 88.49 170.536 88.7 170.296 88.88C169.996 89.18 169.636 89.36 169.216 89.42C168.856 89.48 168.496 89.66 168.136 89.96C168.016 90.02 167.956 90.17 167.956 90.41C168.016 90.71 167.986 90.89 167.866 90.95C166.546 91.79 165.016 92.42 163.276 92.84C161.536 93.32 159.946 93.56 158.506 93.56ZM173.536 67.91C172.756 67.91 172.096 67.46 171.556 66.56C171.016 65.6 170.866 64.88 171.106 64.4C171.166 64.28 171.226 64.13 171.286 63.95C171.406 63.71 171.496 63.56 171.556 63.5C171.676 63.38 171.736 63.35 171.736 63.41C171.796 63.41 171.856 63.38 171.916 63.32C171.976 63.2 171.946 63.11 171.826 63.05C171.766 62.93 171.766 62.84 171.826 62.78L172.906 58.73C172.906 58.67 172.936 58.61 172.996 58.55C173.056 58.49 173.086 58.43 173.086 58.37L173.266 56.75C173.266 56.69 173.326 56.69 173.446 56.75C173.566 56.75 173.656 56.72 173.716 56.66C173.836 56.36 173.806 56.21 173.626 56.21C173.446 56.21 173.356 56.18 173.356 56.12C173.416 55.64 173.506 55.31 173.626 55.13C173.746 54.95 173.836 54.65 173.896 54.23L174.166 52.7C174.166 52.76 174.196 53 174.256 53.42C174.316 53.78 174.466 53.96 174.706 53.96C175.006 53.96 175.096 53.9 174.976 53.78C174.856 53.66 174.766 53.51 174.706 53.33C174.646 53.03 174.706 52.79 174.886 52.61C174.946 52.55 175.066 52.67 175.246 52.97C175.426 53.21 175.516 53.33 175.516 53.33C175.576 53.21 175.606 53.06 175.606 52.88C175.606 52.7 175.546 52.58 175.426 52.52C175.186 52.34 174.916 52.22 174.616 52.16C174.376 52.04 174.256 51.92 174.256 51.8C174.256 51.62 174.286 51.44 174.346 51.26C174.346 51.2 174.376 51.14 174.436 51.08C174.496 51.02 174.526 50.96 174.526 50.9C174.526 50.78 174.466 50.72 174.346 50.72C174.286 50.72 174.256 50.69 174.256 50.63V49.73C174.256 49.55 174.256 49.37 174.256 49.19C174.256 48.95 174.196 48.71 174.076 48.47C173.896 48.05 173.626 47.69 173.266 47.39C172.906 47.09 172.456 46.94 171.916 46.94H171.826L171.646 47.12H171.466C171.046 47.42 170.566 47.72 170.026 48.02C169.546 48.26 169.126 48.44 168.766 48.56L168.586 48.65C168.526 48.71 168.436 48.74 168.316 48.74C168.076 48.74 167.896 48.62 167.776 48.38C167.716 48.14 167.806 47.99 168.046 47.93C168.526 47.63 169.036 47.39 169.576 47.21C170.116 47.03 170.596 46.76 171.016 46.4C171.136 46.1 171.436 45.86 171.916 45.68C172.036 45.56 172.126 45.53 172.186 45.59C172.246 45.65 172.306 45.68 172.366 45.68C172.666 45.68 172.846 45.59 172.906 45.41C173.026 45.17 173.116 45.11 173.176 45.23H174.076C175.396 45.23 176.416 45.77 177.136 46.85C177.856 47.87 178.186 49.25 178.126 50.99C178.126 51.05 178.036 51.14 177.856 51.26C177.736 51.32 177.676 51.41 177.676 51.53C177.676 51.59 177.736 51.62 177.856 51.62C178.036 51.56 178.126 51.59 178.126 51.71V52.07C178.126 52.61 178.096 52.91 178.036 52.97C177.916 54.29 177.616 55.67 177.136 57.11C176.716 58.49 176.266 59.84 175.786 61.16C175.606 61.16 175.486 61.25 175.426 61.43C175.366 61.61 175.276 61.7 175.156 61.7C174.976 61.7 174.796 61.64 174.616 61.52C174.496 61.34 174.436 61.34 174.436 61.52C174.436 61.76 174.556 61.94 174.796 62.06C175.036 62.12 175.186 62.18 175.246 62.24C175.306 62.3 175.426 62.33 175.606 62.33C175.786 62.33 175.966 62.27 176.146 62.15C176.326 62.03 176.506 61.91 176.686 61.79C176.986 61.55 177.376 61.22 177.856 60.8C178.396 60.32 178.876 59.9 179.296 59.54C179.716 59.12 179.926 58.91 179.926 58.91C179.806 58.79 179.896 58.67 180.196 58.55L180.646 58.01C180.706 57.71 180.886 57.38 181.186 57.02C181.486 56.66 181.756 56.45 181.996 56.39L182.176 56.03C182.236 56.03 182.296 56.06 182.356 56.12C182.416 56.12 182.476 56.09 182.536 56.03C182.596 56.03 182.596 55.97 182.536 55.85C182.536 55.73 182.566 55.67 182.626 55.67L183.076 55.04C183.196 54.68 183.316 54.47 183.436 54.41C183.376 54.23 183.436 54.11 183.616 54.05C183.736 54.05 183.856 54.08 183.976 54.14C184.156 54.14 184.246 54.02 184.246 53.78C184.246 53.66 184.276 53.51 184.336 53.33C184.396 53.09 184.546 53 184.786 53.06L184.876 52.88C184.876 52.82 184.996 52.73 185.236 52.61C185.476 52.43 185.626 52.31 185.686 52.25L186.136 51.62C186.316 51.32 186.496 51.17 186.676 51.17C186.856 51.11 186.976 51.08 187.036 51.08C187.096 51.08 187.126 51.14 187.126 51.26C187.126 51.68 186.916 52.1 186.496 52.52L185.776 53.33C185.716 53.39 185.656 53.42 185.596 53.42C185.536 53.42 185.476 53.48 185.416 53.6C185.356 53.66 185.296 53.75 185.236 53.87C185.176 53.99 185.116 54.11 185.056 54.23L184.336 55.04L179.476 60.8C178.936 61.4 178.576 61.79 178.396 61.97C178.276 62.15 178.096 62.42 177.856 62.78C177.796 62.84 177.706 62.84 177.586 62.78C177.466 62.72 177.346 62.75 177.226 62.87L177.136 63.41L176.686 63.86C176.626 63.92 176.656 63.95 176.776 63.95C176.956 63.95 177.016 63.98 176.956 64.04L175.696 66.2C175.036 67.34 174.316 67.91 173.536 67.91Z"
      fill="#8C1C13" />
  </g>
  <path
    d="M92.1944 84.7601C92.4713 85.0488 92.4414 85.3546 92.1047 85.6777C91.8641 85.9085 91.5062 86.1133 91.031 86.292C89.844 86.6918 88.2741 87.3665 86.3212 88.3163C84.3222 89.2179 82.4243 89.7915 80.6275 90.0372C79.8676 90.3044 78.872 90.5667 77.6407 90.8241C76.3152 91.0795 74.8685 91.4975 73.3005 92.078L72.9397 92.4241C72.7954 92.5626 72.6751 92.678 72.5789 92.7703C72.3884 92.8607 72.1979 92.951 72.0075 93.0414C71.438 93.2182 71.0119 93.3037 70.7291 93.2978C70.4002 93.2438 69.951 93.3053 69.3815 93.4821C69.2853 93.5744 69.1891 93.6667 69.0929 93.759C68.9505 93.8032 68.8081 93.8474 68.6658 93.8916C68.8543 93.8955 68.8052 93.9888 68.5185 94.1715C68.6108 94.2677 68.278 94.4022 67.52 94.5751C66.9024 94.7981 66.5234 94.8846 66.383 94.8345L66.3138 94.7623C65.8405 94.8468 65.4384 94.9092 65.1075 94.9495C64.7286 95.036 64.5381 95.1263 64.5361 95.2206L64.3918 95.3591C64.0551 95.6822 63.6501 95.8859 63.1768 95.9704C62.6574 96.0068 62.137 96.0904 61.6157 96.221C61.2848 96.2613 61.0732 96.2334 60.9809 96.1371C60.8885 96.0409 60.8664 95.9697 60.9146 95.9236C60.8684 95.8755 60.8222 95.8274 60.7761 95.7793C60.6376 95.635 60.4481 95.6782 60.2076 95.909C60.1114 96.0013 60.0142 96.1407 59.916 96.3273C59.7717 96.4657 59.6264 96.6513 59.4801 96.8841C59.1935 97.0667 58.8164 97.0589 58.349 96.8606L58.0692 96.7134C56.8282 97.4421 55.8777 97.7996 55.2179 97.7859C55.0294 97.782 54.8409 97.7781 54.6524 97.7742C54.4638 97.7703 54.2753 97.7664 54.0868 97.7625C52.9076 97.7853 51.8187 97.9985 50.8202 98.4021C50.5354 98.4905 50.2757 98.5087 50.041 98.4567C49.7121 98.4028 49.3822 98.3959 49.0513 98.4362C48.8147 98.4785 48.6473 98.5929 48.5491 98.7795C48.3567 98.9641 48.1652 99.1016 47.9748 99.1919C47.3591 99.3206 46.9811 99.3599 46.8407 99.3099C46.7003 99.2598 46.5599 99.2098 46.4195 99.1597C46.1848 99.1077 45.7375 99.0749 45.0777 99.0612C44.6987 99.1477 44.3197 99.2341 43.9407 99.3206C43.5156 99.3589 43.0904 99.3973 42.6653 99.4356C42.0516 99.47 41.5111 99.3881 41.0437 99.1898C40.5763 98.9916 40.0367 98.8625 39.425 98.8027C39.2365 98.7988 39.046 98.8891 38.8536 99.0738C38.613 99.3045 38.3985 99.418 38.21 99.4141C35.2476 99.0227 32.3863 98.3033 29.6261 97.256C26.8198 96.1606 24.9089 95.0837 23.8935 94.0253C23.5243 93.6405 23.2022 93.2566 22.9272 92.8737C22.6061 92.4427 22.3321 92.0127 22.1052 91.5836L21.9668 91.4393C21.736 91.1988 21.5533 90.9121 21.4188 90.5792C21.2842 90.2464 21.1727 89.9376 21.0843 89.6529C20.8997 89.4605 20.717 89.1738 20.5363 88.7928C20.4018 88.46 20.4076 88.1772 20.5539 87.9445C20.7002 87.7117 20.8906 87.6214 21.1253 87.6734C21.2196 87.6754 21.2888 87.7475 21.333 87.8899C21.3772 88.0322 21.4455 88.1515 21.5378 88.2478C21.6301 88.344 21.6743 88.4863 21.6704 88.6749C21.6665 88.8634 21.6866 89.0288 21.7308 89.1712C21.9154 89.3636 22.1472 89.557 22.4261 89.7514C22.6588 89.8977 22.8905 90.0911 23.1213 90.3316L23.329 90.5481C23.6521 90.8848 23.8347 91.1715 23.877 91.4081C23.825 91.6428 24.0317 91.9064 24.4972 92.199C24.5433 92.2471 24.7058 92.3683 24.9847 92.5627C25.2636 92.7571 25.4492 92.9024 25.5415 92.9986C27.636 94.315 29.8115 95.138 32.0679 95.4677C34.2761 95.8435 36.4662 95.9595 38.6381 95.8159C40.7639 95.6242 42.8185 95.4546 44.8018 95.307C46.0831 94.9092 47.1961 94.6729 48.1406 94.5982C48.2349 94.6001 48.257 94.6713 48.2069 94.8117C48.1569 94.9521 48.203 95.0002 48.3454 94.956C48.6282 94.9619 48.9841 94.8514 49.4131 94.6245C49.7479 94.3957 50.0808 94.2612 50.4117 94.2209C50.5059 94.2228 50.528 94.294 50.478 94.4344C50.4279 94.5748 50.4971 94.647 50.6857 94.6509C50.7799 94.6528 51.0416 94.5404 51.4706 94.3135C51.8054 94.0847 52.0671 93.9722 52.2556 93.9761C53.5792 93.8149 54.9248 93.7249 56.2926 93.7061C57.6603 93.6873 59.1483 93.5531 60.7566 93.3035C63.171 92.8348 65.5152 92.3411 67.7892 91.8224C70.0631 91.3037 72.5276 90.6946 75.1825 89.9952C76.0828 89.7781 76.8659 89.535 77.5315 89.2658C78.103 88.9948 78.6734 88.7708 79.2429 88.594C79.4795 88.5518 79.7181 88.4153 79.9586 88.1845C80.2954 87.8614 80.2791 87.5075 79.9099 87.1226C79.633 86.834 79.2839 86.6146 78.8626 86.4644L77.8817 86.0197C75.7156 85.8806 73.6718 85.5318 71.7502 84.9733C71.704 84.9252 71.681 84.9011 71.681 84.9011C71.5867 84.8992 71.5165 84.8742 71.4703 84.8261C71.3319 84.6817 71.3358 84.4932 71.4821 84.2605C71.5802 84.0739 71.7466 84.0066 71.9813 84.0587C74.0895 84.7153 76.3218 85.068 78.6784 85.1168C78.8207 85.0726 78.9631 85.0284 79.1055 84.9842C79.2478 84.94 79.4133 84.9198 79.6018 84.9237C79.7903 84.9276 80.0971 84.9104 80.5223 84.8721C80.9013 84.7856 81.1148 84.7193 81.1629 84.6731C81.3534 84.5828 81.4708 84.6088 81.515 84.7512C81.513 84.8454 81.7236 84.9205 82.1468 84.9764C82.2411 84.9784 82.3835 84.9342 82.5739 84.8438C82.7182 84.7054 82.8616 84.614 83.004 84.5698C83.1944 84.4795 83.407 84.4603 83.6417 84.5123C83.7821 84.5624 83.8764 84.5643 83.9245 84.5182C84.163 84.3816 84.3756 84.3625 84.5622 84.4606C84.6545 84.5568 84.7949 84.6069 84.9834 84.6108C85.0777 84.6128 85.1499 84.5435 85.1999 84.4031C85.25 84.2627 85.3693 84.1944 85.5578 84.1983C85.7483 84.108 85.8666 84.0869 85.9127 84.135C85.9108 84.2292 86.0041 84.2783 86.1926 84.2822C86.5696 84.29 86.8043 84.342 86.8966 84.4383C87.2697 84.6346 87.4573 84.6856 87.4592 84.5914C87.415 84.449 87.3939 84.3307 87.3959 84.2364C87.3036 84.1402 87.4449 84.1431 87.82 84.2452C87.9605 84.2953 88.1971 84.253 88.5299 84.1184C88.8147 84.03 89.0513 83.9878 89.2398 83.9917C89.4745 84.0437 89.6851 84.1188 89.8717 84.217C90.0121 84.267 90.2237 84.295 90.5065 84.3008C91.3548 84.3184 91.9175 84.4715 92.1944 84.7601Z"
    fill="black" />
  <g filter="url(#filter1_d_177_1499)">
    <path
      d="M124.643 111.04C124.589 111.041 124.561 110.961 124.559 110.801C124.556 110.588 124.634 110.427 124.792 110.318C125.005 110.262 125.108 110.047 125.103 109.673L125.098 109.353C125.096 109.193 125.067 109.007 125.01 108.795C125.007 108.581 125.004 108.368 125.001 108.155C124.286 106.672 123.367 105.778 122.242 105.474C121.117 105.117 119.862 105.002 118.477 105.129C116.505 105.264 114.533 105.399 112.562 105.534C110.644 105.668 108.671 105.75 106.645 105.779L103.605 105.823C101.792 105.849 99.9792 105.902 98.1668 105.982C96.4078 106.06 94.7566 106.218 93.2131 106.453C92.0422 106.63 90.8447 106.807 89.6204 106.985C88.3954 107.109 87.1697 107.181 85.9431 107.198C85.1571 108.17 84.5005 108.873 83.9734 109.307C83.447 109.795 82.7093 110.419 81.7601 111.179C81.7076 111.233 81.6013 111.261 81.4413 111.264C81.3347 111.265 81.2539 111.213 81.199 111.107C81.0908 111.002 81.0885 110.842 81.1921 110.627C81.6103 110.034 82.1084 109.44 82.6866 108.845C83.3188 108.303 83.9777 107.76 84.6633 107.217C84.1292 107.171 83.6211 107.072 83.1388 106.919C82.7091 106.712 82.5182 106.421 82.5662 106.047C82.6613 105.245 82.9998 104.68 83.5818 104.352C84.2164 103.969 84.9062 103.719 85.6512 103.602C86.3962 103.485 87.0617 103.395 87.6475 103.333C89.2784 101.763 90.9629 100.218 92.7012 98.6998C94.4387 97.1279 96.2036 95.609 97.996 94.1429L102.265 90.561C102.899 90.1784 103.506 89.7163 104.085 89.1745C104.348 88.9574 104.585 88.6873 104.793 88.3642C105.055 87.9871 105.21 87.6915 105.261 87.4774L105.655 87.0717C105.814 87.016 106.079 86.9322 106.451 86.8202C106.822 86.6548 107.087 86.5176 107.245 86.4086C107.399 85.9797 107.607 85.5767 107.868 85.1995C108.182 84.7683 108.579 84.5492 109.059 84.5423C109.219 84.54 109.406 84.5906 109.621 84.6942L109.614 84.2142L109.772 84.0519L110.489 83.8816L110.333 84.1239L111.049 83.8735L111.36 83.2289C111.889 82.9546 112.602 82.4643 113.499 81.7579C114.448 80.9975 115.106 80.4013 115.473 79.9692C116.586 79.4731 117.591 78.8452 118.486 78.0856C119.013 77.5979 119.538 77.0036 120.061 76.3027C120.637 75.6009 121.272 75.1917 121.963 75.0751L124.015 73.1253C123.587 73.0248 123 72.9799 122.253 72.9907C121.506 72.9481 120.732 72.9326 119.932 72.9442L116.733 72.9903C116.413 72.995 116.092 72.9729 115.772 72.9242C115.451 72.8755 115.131 72.8534 114.811 72.8581C113.904 72.8711 112.972 72.9646 112.014 73.1384C111.109 73.2582 110.178 73.3783 109.219 73.4988C108.847 73.5575 108.447 73.59 108.021 73.5961C107.647 73.6015 107.247 73.6073 106.821 73.6134C105.382 73.6876 104.477 73.834 104.107 74.0527C103.736 74.2714 103.5 74.4881 103.396 74.703C103.346 74.9171 103.055 75.1079 102.524 75.2756C101.355 75.5592 100.349 76.1071 99.5076 76.9193C98.6659 77.7316 97.932 78.6222 97.3059 79.5914C96.7324 80.5064 96.2377 81.3403 95.8219 82.0931C95.4586 82.7917 95.1177 83.1967 94.7993 83.3079C94.7467 83.362 94.6938 83.3895 94.6405 83.3902C94.3738 83.3941 94.2382 83.236 94.2336 82.9161C94.2838 82.702 94.3886 82.5671 94.5478 82.5115C94.7603 82.4551 94.9191 82.3728 95.0243 82.2646C95.4904 81.2978 95.8799 80.5721 96.193 80.0875C96.5593 79.6022 97.083 78.9279 97.7639 78.0646L97.8439 78.0635C97.946 77.7419 98.152 77.2323 98.4619 76.5344C98.7711 75.7832 99.0308 75.2994 99.2411 75.083C99.6051 74.4377 99.9448 73.9527 100.26 73.6281C100.628 73.2494 100.94 72.7115 101.197 72.0144C101.301 71.7996 101.377 71.5851 101.428 71.371C101.531 71.1029 101.634 70.8613 101.737 70.6465C101.84 70.3783 101.998 70.2427 102.211 70.2396C102.425 70.2365 102.533 70.3416 102.536 70.555C102.541 70.8749 102.492 71.1957 102.39 71.5172C102.341 71.8379 102.265 72.1324 102.163 72.4005C103.543 71.9539 105.139 71.6375 106.949 71.4514C108.76 71.2119 110.598 71.0787 112.464 71.0517C114.33 70.9715 115.956 70.9213 117.343 70.9013C117.929 70.8929 118.49 70.9114 119.024 70.9571C119.611 71.0019 120.172 71.0738 120.707 71.1728L121.977 70.5144C122.244 70.5105 122.484 70.5337 122.699 70.584C122.966 70.6335 123.233 70.683 123.501 70.7324C123.714 70.7294 124.114 70.7502 124.702 70.7951C125.289 70.84 125.85 70.9119 126.385 71.0108C126.919 71.0565 127.188 71.1859 127.191 71.3993C127.665 70.9657 128.296 70.3965 129.086 69.6917C129.876 68.9336 130.535 68.444 131.065 68.223L132.418 67.7234C132.63 67.6137 132.921 67.4495 133.291 67.2308C133.661 66.9588 133.952 66.8212 134.165 66.8181C134.539 66.8127 134.7 66.9171 134.65 67.1312C134.654 67.3978 134.391 67.6416 133.86 67.8626C133.384 68.0829 133.013 68.2482 132.748 68.3587C132.537 68.5218 132.273 68.7123 131.956 68.9302C131.691 69.0941 131.454 69.2842 131.244 69.5006C131.087 69.7162 130.639 70.096 129.9 70.6401C129.215 71.1834 128.74 71.5902 128.478 71.8607C127.95 72.295 127.608 72.62 127.452 72.8356C127.295 73.0513 127.165 73.2932 127.062 73.5613C127.012 73.7754 126.83 74.1247 126.517 74.6093C126.204 75.0939 125.941 75.3377 125.728 75.3408C125.568 75.3431 125.277 75.5073 124.855 75.8334C124.749 75.8883 124.459 76.1592 123.986 76.646C123.566 77.0788 123.302 77.2693 123.194 77.2175C122.771 77.437 122.35 77.8165 121.931 78.3559C121.564 78.8412 121.223 79.2462 120.908 79.5708C120.593 79.9487 120.251 80.2737 119.882 80.5457C119.565 80.7636 119.222 81.0086 118.853 81.2806C118.642 81.4437 118.326 81.7416 117.905 82.1744C117.538 82.6064 117.249 82.8773 117.037 82.987C116.72 83.2049 116.166 83.613 115.374 84.2111C114.582 84.7559 113.711 85.3552 112.76 86.009C111.863 86.662 111.018 87.2343 110.225 87.7258C109.484 88.1632 108.954 88.3842 108.634 88.3888L106.576 89.9387L105.619 90.1125L105.147 90.6794L105.55 90.9136L105.475 91.2347C105 91.6149 104.339 91.9712 103.49 92.3035C102.694 92.5816 101.953 92.9657 101.266 93.4557C100.633 93.9449 99.7894 94.5971 98.7344 95.4124C97.6794 96.2277 96.5722 97.1238 95.4128 98.1006C94.3068 99.0767 93.307 100.025 92.4135 100.944C91.5201 101.864 90.918 102.646 90.6072 103.291C90.8731 103.233 91.1393 103.203 91.406 103.199C91.7259 103.194 92.0193 103.19 92.2859 103.186C92.9792 103.176 93.6728 103.193 94.3668 103.236C95.1134 103.225 95.86 103.215 96.6066 103.204C98.5264 103.176 100.472 103.095 102.444 102.96C104.414 102.771 106.173 102.666 107.72 102.643C107.933 102.64 108.173 102.61 108.438 102.553C108.704 102.443 108.943 102.386 109.156 102.383C109.583 102.377 110.276 102.393 111.237 102.433C112.25 102.418 112.919 102.542 113.243 102.804C112.978 102.968 112.847 103.13 112.85 103.29C112.852 103.45 112.96 103.581 113.175 103.685C113.389 103.735 113.576 103.759 113.736 103.757C114.003 103.753 114.134 103.618 114.131 103.351C114.127 103.084 114.285 102.949 114.605 102.944C114.765 102.995 114.847 103.101 114.849 103.261C114.851 103.367 114.852 103.421 114.852 103.421L115.732 103.408C115.892 103.406 116.051 103.403 116.211 103.401C116.371 103.345 116.557 103.316 116.77 103.313C116.984 103.31 117.251 103.359 117.572 103.461C117.893 103.51 118.082 103.667 118.139 103.933C118.301 104.038 118.461 104.062 118.62 104.006C118.833 103.95 118.993 103.921 119.099 103.919C119.633 103.912 120.167 103.957 120.701 104.056C121.236 104.155 121.85 104.2 122.544 104.19C122.863 104.185 123.182 104.101 123.5 103.936C124.086 103.874 124.623 104.106 125.11 104.633C125.598 105.159 125.98 105.767 126.257 106.456C126.587 107.145 126.702 107.757 126.603 108.292C126.555 108.666 126.323 109.202 125.906 109.902C125.49 110.655 125.069 111.034 124.643 111.04ZM130.974 107.428C129.8 107.445 128.756 107.14 127.84 106.514C126.977 105.833 126.533 104.666 126.509 103.012C126.501 102.426 126.596 101.598 126.794 100.528C126.992 99.4584 127.322 98.3335 127.785 97.1534C128.042 96.5096 128.327 95.8921 128.638 95.3009C129.003 94.7089 129.342 94.1439 129.654 93.606C129.707 93.5519 129.867 93.6029 130.136 93.7591C130.459 93.9144 130.646 93.9651 130.699 93.911C130.75 93.8036 130.669 93.6981 130.454 93.5945C130.292 93.4368 130.237 93.3309 130.289 93.2768C130.394 93.1686 130.474 93.1141 130.527 93.1134C130.633 93.0585 130.712 92.9774 130.764 92.8699C130.815 92.7625 130.84 92.6555 130.839 92.5488C130.837 92.3888 130.755 92.2567 130.593 92.1523C130.485 92.0472 130.536 91.8864 130.746 91.6701C131.007 91.2929 131.296 90.942 131.611 90.6175C131.979 90.2388 132.294 89.9142 132.557 89.6437C132.662 89.5355 132.793 89.3736 132.95 89.158C133.106 88.889 133.211 88.7275 133.263 88.6734L133.421 88.5111C133.473 88.457 133.526 88.4029 133.579 88.3488C133.578 88.2955 133.577 88.2688 133.577 88.2688C133.631 88.2681 133.657 88.241 133.656 88.1877C133.654 88.0277 133.492 87.87 133.169 87.7147C132.847 87.5593 132.686 87.455 132.685 87.4016C132.684 87.3483 132.657 87.2954 132.603 87.2428C132.548 87.1902 132.494 87.111 132.439 87.0051C132.492 87.0044 132.545 86.9503 132.597 86.8428C132.701 86.6813 132.78 86.6002 132.833 86.5994C132.887 86.5986 132.994 86.6504 133.156 86.7548C133.316 86.8058 133.423 86.8309 133.477 86.8301C133.53 86.8294 133.556 86.8023 133.555 86.749C133.608 86.6949 133.661 86.6675 133.714 86.6667C133.821 86.6652 134.062 86.7417 134.438 86.8963C134.813 86.9976 135.027 87.0478 135.08 87.047C135.133 87.0463 135.291 86.9106 135.554 86.6402C135.817 86.3697 135.975 86.2074 136.027 86.1533C136.132 86.0451 136.211 85.9373 136.262 85.8298C136.314 85.6691 136.444 85.4805 136.654 85.2641L136.734 85.263C136.787 85.2089 136.813 85.1552 136.812 85.1018C136.811 85.0485 136.811 85.0218 136.811 85.0218C136.916 84.9136 136.995 84.8325 137.047 84.7784C137.153 84.6702 137.231 84.5891 137.284 84.535C137.336 84.4809 137.363 84.4538 137.363 84.4538C137.416 84.4531 137.443 84.4527 137.443 84.4527C137.495 84.3452 137.547 84.2645 137.599 84.2104C137.705 84.1555 137.784 84.101 137.837 84.0469L137.992 83.7247C138.097 83.6165 138.467 83.3711 139.102 82.9886C139.736 82.606 140.214 82.4125 140.534 82.4078L140.934 82.4021C140.934 82.4021 140.934 82.4287 140.935 82.4821C140.935 82.4821 140.961 82.4817 141.015 82.4809C141.068 82.4801 141.121 82.4794 141.175 82.4786C141.227 82.4245 141.28 82.3971 141.333 82.3963C141.333 82.3963 141.415 82.4751 141.577 82.6328C141.631 82.6854 141.685 82.7113 141.738 82.7105C141.791 82.6564 141.844 82.629 141.897 82.6282C141.951 82.6808 141.978 82.7337 141.979 82.787C141.98 82.8404 142.007 82.8666 142.06 82.8659C142.167 82.8643 142.194 82.8639 142.14 82.8647C142.14 82.8114 142.166 82.7843 142.219 82.7836C142.272 82.7828 142.3 82.8357 142.301 82.9424C142.303 83.049 142.331 83.1553 142.386 83.2612C142.335 83.422 142.284 83.6094 142.234 83.8235C142.236 83.9834 142.212 84.1171 142.16 84.2246C141.689 84.8714 141.321 85.1968 141.054 85.2006C141.055 85.254 140.976 85.3618 140.819 85.5241C140.659 85.5264 140.473 85.5824 140.261 85.6921C140.049 85.8019 139.837 85.9116 139.626 86.0213L139.629 86.2613C139.632 86.4746 139.554 86.5824 139.394 86.5847C139.286 86.5329 139.181 86.6145 139.077 86.8293L139.078 86.9093C139.187 87.0678 139.375 87.1451 139.642 87.1412L140.203 87.2131C140.31 87.2116 140.362 87.1841 140.362 87.1308C140.414 87.0767 140.467 87.0493 140.521 87.0485C140.574 87.0478 140.601 87.074 140.602 87.1274C140.602 87.1274 140.628 87.127 140.682 87.1262C140.788 87.1247 140.868 87.0968 140.92 87.0427C140.973 86.9887 141.026 86.9612 141.079 86.9604L141.8 87.03C141.637 86.7657 141.553 86.5536 141.551 86.3936C141.547 86.1269 141.785 85.9635 142.264 85.9032C143.011 85.8925 143.655 86.1499 144.196 86.6754C144.301 86.6206 144.435 86.6187 144.595 86.6697C144.756 86.7207 144.916 86.7184 145.075 86.6627L145.472 86.417L145.553 86.4958C145.765 86.3861 145.897 86.3309 145.951 86.3301C146.057 86.3285 146.084 86.3548 146.032 86.4089C146.032 86.4089 146.059 86.4085 146.112 86.4078C146.112 86.4078 146.164 86.3537 146.27 86.2455C146.323 86.2447 146.377 86.2706 146.431 86.3232C146.537 86.3216 146.617 86.2938 146.669 86.2397L146.906 85.9963L147.866 85.9824L147.945 85.9013C148.051 85.8464 148.183 85.7911 148.342 85.7355C148.554 85.6258 148.74 85.5698 148.9 85.5674C148.899 85.5141 148.952 85.4867 149.059 85.4851C149.165 85.4303 149.244 85.4025 149.298 85.4017L149.458 85.3994C149.724 85.3955 149.859 85.4736 149.861 85.6336C149.863 85.7936 149.785 85.928 149.627 86.037C149.574 86.0911 149.495 86.1189 149.388 86.1205C149.281 86.0687 149.174 86.0702 149.068 86.1251C148.858 86.3415 148.699 86.4504 148.593 86.452C148.539 86.4527 148.513 86.4531 148.513 86.4531C148.512 86.3998 148.485 86.3735 148.432 86.3743C148.378 86.3751 148.273 86.4566 148.115 86.6189L147.556 86.707L147.476 86.7081C147.37 86.7096 147.317 86.7637 147.319 86.8704C147.105 86.8735 146.892 86.9032 146.68 86.9596C146.467 86.9627 146.254 86.9924 146.041 87.0489L145.962 87.13C145.909 87.1308 145.856 87.1582 145.803 87.2123C145.75 87.2131 145.67 87.2142 145.563 87.2158C145.458 87.2706 145.165 87.3015 144.685 87.3085C145.011 87.7305 145.23 88.1273 145.342 88.4991C145.452 88.7642 145.539 89.1897 145.6 89.7755C145.715 90.3072 145.747 90.7068 145.698 90.9742C145.7 91.1342 145.647 91.1883 145.54 91.1365C145.432 91.0314 145.379 91.0322 145.38 91.1388C145.382 91.2988 145.437 91.4047 145.545 91.4565C145.705 91.4542 145.787 91.5863 145.79 91.853C145.793 92.013 145.769 92.2267 145.72 92.4941C145.669 92.7081 145.62 92.9489 145.57 93.2163C145.521 93.537 145.446 93.8848 145.345 94.2596C145.296 94.5804 145.168 94.9023 144.959 95.2253L144.725 95.6287L144.732 96.1087C144.738 96.5353 144.609 96.8305 144.344 96.9944C144.133 97.1574 143.976 97.3464 143.873 97.5612C143.771 97.8827 143.694 98.0972 143.642 98.2046C143.643 98.3113 143.54 98.5261 143.331 98.8492C142.653 99.9258 141.841 100.951 140.895 101.925C139.949 102.898 139.029 103.792 138.134 104.605C137.344 105.31 136.26 105.965 134.882 106.572C133.556 107.124 132.254 107.41 130.974 107.428ZM131.753 105.977C131.913 105.975 132.232 105.943 132.712 105.883C133.19 105.77 133.693 105.522 134.221 105.141C134.327 105.086 134.434 105.112 134.542 105.217C134.65 105.322 134.757 105.347 134.863 105.292C135.128 105.182 135.234 105.1 135.18 105.047C135.126 104.995 135.205 104.94 135.417 104.884L135.497 104.883C135.817 104.878 135.95 104.85 135.896 104.797C135.895 104.69 135.919 104.557 135.97 104.396C135.968 104.236 136.046 104.102 136.205 103.993C136.363 103.884 136.495 103.802 136.601 103.747C137.181 103.258 137.889 102.448 138.726 101.316C139.563 100.13 140.399 98.9448 141.235 97.7593C141.287 97.6519 141.367 97.6241 141.474 97.6759C141.581 97.7277 141.661 97.7265 141.714 97.6724C141.767 97.6183 141.791 97.4579 141.787 97.1913C141.785 97.0313 141.861 96.7902 142.017 96.4679C142.171 96.0923 142.327 95.7967 142.484 95.5811C142.535 95.4203 142.637 95.1255 142.791 94.6966C142.944 94.2143 143.071 93.7857 143.173 93.4109C143.326 92.982 143.35 92.7683 143.243 92.7698C143.136 92.718 143.082 92.6655 143.081 92.6121C143.08 92.5055 143.238 92.3965 143.556 92.2853C143.875 92.174 143.847 92.0944 143.473 92.0464C143.366 91.9946 143.391 91.8876 143.548 91.7253C143.706 91.563 143.624 91.4575 143.304 91.4088C143.036 91.3593 142.929 91.2809 142.98 91.1735C143.085 91.0653 143.164 90.9841 143.217 90.93C143.374 90.7677 143.452 90.6066 143.45 90.4466C143.443 89.9667 143.303 89.4886 143.029 89.0125C142.809 88.5357 142.563 88.1125 142.291 87.743C141.974 87.961 141.815 88.0699 141.815 88.0699C141.762 88.0707 141.735 88.0711 141.735 88.0711C141.735 88.0178 141.681 87.9919 141.574 87.9934C141.521 87.9942 141.494 87.9946 141.494 87.9946C141.494 87.9412 141.466 87.915 141.413 87.9157C141.36 87.9165 141.307 87.9439 141.254 87.998C141.202 88.0521 141.175 88.0792 141.175 88.0792C141.123 88.1333 141.017 88.1615 140.857 88.1638C140.75 88.1653 140.67 88.1665 140.617 88.1673C140.563 88.168 140.51 88.1421 140.456 88.0896C140.455 88.0362 140.428 88.01 140.374 88.0107C140.321 88.0115 140.242 88.066 140.137 88.1742C140.085 88.2816 140.006 88.3361 139.899 88.3376C139.846 88.3384 139.819 88.3121 139.818 88.2588C139.817 88.2055 139.763 88.1796 139.657 88.1811C139.603 88.1819 139.551 88.2093 139.498 88.2634C139.499 88.3167 139.472 88.3438 139.419 88.3446C139.366 88.3453 139.258 88.2669 139.096 88.1092L139.016 88.1103C139.02 88.4303 138.943 88.5915 138.783 88.5938C138.729 88.5945 138.649 88.5424 138.54 88.4372C137.959 88.819 136.985 89.7131 135.619 91.1197C134.251 92.4729 133.047 94.0371 132.006 95.8123C131.799 96.242 131.54 96.7525 131.228 97.3437C130.97 97.9341 130.74 98.6042 130.537 99.3539C130.488 99.6746 130.332 99.9169 130.068 100.081C129.857 100.244 129.699 100.433 129.596 100.648C129.545 100.862 129.574 100.995 129.681 101.046C129.789 101.098 129.87 101.177 129.925 101.283C129.928 101.496 129.879 101.79 129.778 102.165C129.73 102.539 129.708 102.886 129.713 103.206C129.727 104.219 129.924 104.937 130.304 105.358C130.736 105.778 131.219 105.985 131.753 105.977ZM148.592 106.694C148.272 106.699 148.11 106.514 148.104 106.141C148.1 105.874 148.176 105.553 148.33 105.178C148.744 104.265 149.232 102.978 149.795 101.316C150.358 99.6545 151.057 98.231 151.893 97.0454L154.913 90.0411C154.913 90.0411 154.859 90.0152 154.752 89.9635C154.643 89.8583 154.589 89.7525 154.587 89.6458C154.264 89.4371 153.913 89.1488 153.534 88.7809C153.208 88.3589 153.175 87.9327 153.436 87.5022C153.541 87.394 153.62 87.3395 153.674 87.3387C153.727 87.338 153.754 87.3376 153.754 87.3376L153.751 87.1776C153.748 86.9643 153.826 86.8298 153.985 86.7742C154.198 86.7178 154.33 86.6359 154.382 86.5284C154.478 85.7803 155.083 85.2115 156.198 84.8221C157.365 84.4318 158.403 84.2302 159.309 84.2171C160.216 84.204 160.671 84.3308 160.675 84.5974C160.677 84.7574 160.52 84.9464 160.203 85.1643C160.098 85.2725 159.835 85.5163 159.413 85.8958C159.045 86.2744 158.705 86.7327 158.393 87.2706L157.847 88.2386L157.297 88.9666C156.467 90.5254 155.792 91.842 155.274 92.9162C154.756 93.9905 154.136 95.3596 153.413 97.0235C153.258 97.3458 153.182 97.6136 153.185 97.8269C153.189 98.0935 153.297 98.2253 153.511 98.2222C153.617 98.2207 153.724 98.1925 153.829 98.1376C153.988 98.0287 154.147 97.9463 154.306 97.8907C154.729 97.6179 155.072 97.3729 155.335 97.1558C155.652 96.8845 155.994 96.6129 156.364 96.3409C156.521 96.1786 156.655 96.1766 156.764 96.3351C156.872 96.4402 156.874 96.6002 156.771 96.815C156.564 97.2447 156.407 97.5137 156.302 97.6219C156.25 97.676 156.17 97.7305 156.065 97.7853C155.959 97.8402 155.722 98.0836 155.355 98.5156L155.044 99.1602C154.939 99.2684 154.809 99.4836 154.654 99.8059C154.551 100.074 154.5 100.235 154.501 100.288C154.502 100.395 154.45 100.449 154.343 100.45C154.235 100.399 154.077 100.481 153.866 100.697C153.814 100.751 153.789 100.858 153.791 101.018C153.847 101.178 153.822 101.311 153.717 101.42C153.666 101.58 153.588 101.715 153.483 101.823C153.377 101.878 153.324 101.932 153.325 101.985C153.275 102.199 153.17 102.334 153.011 102.39C152.904 102.391 152.798 102.446 152.693 102.554C152.64 102.555 152.614 102.609 152.615 102.716C152.622 103.142 152.571 103.33 152.463 103.278C152.356 103.226 152.25 103.281 152.146 103.442C152.042 103.657 151.91 103.766 151.75 103.768C151.432 103.879 151.3 103.961 151.354 104.014C151.408 104.067 151.489 104.119 151.596 104.17C151.703 104.169 151.624 104.25 151.36 104.414C151.201 104.47 151.07 104.631 150.967 104.9C150.863 105.114 150.759 105.276 150.654 105.384C150.549 105.492 150.416 105.574 150.257 105.63C150.098 105.686 149.966 105.794 149.862 105.956C149.389 106.443 148.966 106.689 148.592 106.694ZM172.421 105.71C172.207 105.713 172.021 105.716 171.861 105.718C171.7 105.667 171.539 105.616 171.378 105.565C170.844 105.466 170.361 105.313 169.932 105.106C169.555 104.898 169.23 104.503 168.954 103.92C168.897 103.654 168.759 103.309 168.539 102.886C168.373 102.462 168.261 102.063 168.202 101.691C168.145 101.425 168.114 101.105 168.108 100.732C168.051 100.466 168.02 100.12 168.013 99.6931C167.899 99.1613 167.839 98.6822 167.833 98.2555C167.88 97.8282 167.899 97.3212 167.891 96.7346C167.882 96.1479 167.903 95.7209 167.952 95.4535C168.052 94.972 168.102 94.7313 168.102 94.7313C168.101 94.678 168.097 94.4113 168.09 93.9314C168.134 93.2907 168.151 92.6237 168.141 91.9304C168.131 91.2372 168.15 90.6768 168.197 90.2495C168.334 88.6473 168.002 87.852 167.203 87.8636C166.883 87.8682 166.458 88.0077 165.928 88.282C165.877 88.4427 165.772 88.5509 165.613 88.6066C165.506 88.6081 165.347 88.6637 165.135 88.7735L164.739 89.0192C164.74 89.0726 164.687 89.1 164.58 89.1015C164.473 89.0497 164.42 89.0772 164.421 89.1838C164.478 89.3964 164.453 89.5301 164.347 89.5849C164.295 89.639 164.214 89.6135 164.106 89.5084L163.235 90.161C163.236 90.2144 163.158 90.3222 163 90.4845L162.921 90.5656C162.711 90.782 162.526 90.8914 162.366 90.8937L162.129 91.1371C162.13 91.1904 162.078 91.2979 161.974 91.4594C161.922 91.5668 161.789 91.5954 161.575 91.5451L161.181 91.9509C160.972 92.2739 160.788 92.4633 160.629 92.5189C160.523 92.5738 160.391 92.629 160.231 92.6847L159.603 93.4938L159.284 93.5784C159.287 93.7917 159.052 94.1152 158.578 94.5487C158.158 94.9815 157.869 95.279 157.711 95.4413C157.553 95.6036 157.394 95.6859 157.234 95.6882C157.128 95.6898 157.074 95.6372 157.072 95.5305C157.071 95.4772 157.202 95.262 157.463 94.8848C157.673 94.6685 157.987 94.2639 158.405 93.6711C158.877 93.0776 159.14 92.8071 159.194 92.8597C159.457 92.5892 159.639 92.3198 159.742 92.0517C159.844 91.7301 160.027 91.4608 160.291 91.2437C160.291 91.297 160.292 91.3503 160.293 91.4036C160.346 91.4029 160.373 91.4025 160.373 91.4025C160.48 91.4009 160.611 91.2657 160.767 90.9968C160.922 90.6745 161.027 90.5396 161.081 90.5922L162.424 89.3727C162.423 89.3193 162.555 89.2108 162.819 89.0469C163.031 88.9372 163.164 88.882 163.217 88.8812C163.27 88.8804 163.401 88.7185 163.61 88.3955L164.164 87.9874C164.216 87.88 164.27 87.9059 164.325 88.0651C164.433 88.1702 164.514 88.1957 164.566 88.1416L164.798 87.5782C164.903 87.4167 165.061 87.2811 165.272 87.1713C165.537 87.0075 165.801 86.8437 166.065 86.6798C166.696 86.0307 167.171 85.7038 167.491 85.6992L167.811 85.6945C168.501 85.4179 169.139 85.2753 169.725 85.2669C170.579 85.2546 171.25 85.5649 171.739 86.1979C171.848 86.3564 171.959 86.6481 172.072 87.0732C172.179 87.125 172.207 87.2046 172.155 87.312C172.156 87.3654 172.184 87.445 172.239 87.5509C172.293 87.6567 172.402 87.7885 172.564 87.9462C172.726 88.0505 172.808 88.1827 172.81 88.3427L172.812 88.5027C172.815 88.716 172.685 88.9046 172.42 89.0684C172.69 89.2778 172.799 89.4096 172.746 89.4637C172.746 89.4637 172.721 89.5441 172.67 89.7049L172.526 90.827C172.478 91.2011 172.402 91.4956 172.299 91.7104C172.194 91.8719 172.092 92.1668 171.991 92.5949C172.209 92.9118 172.212 93.1251 172.001 93.2349L171.841 93.2372L171.765 93.5583C171.767 93.665 171.822 93.7708 171.93 93.876L171.697 94.3594C171.749 94.3053 171.776 94.3049 171.777 94.3582C171.83 94.3575 171.857 94.3571 171.857 94.3571C171.805 94.4645 171.728 94.679 171.626 95.0005C171.523 95.2686 171.446 95.4831 171.395 95.6439C171.346 95.9113 171.241 96.0461 171.081 96.0484C170.921 96.0507 170.87 96.1848 170.927 96.4507C170.981 96.5033 171.01 96.6895 171.015 97.0095C171.072 97.2754 171.047 97.4091 170.941 97.4106L170.795 98.3728L170.798 98.6128C170.802 98.8794 170.752 99.1468 170.65 99.415C170.6 99.6824 170.551 99.9498 170.501 100.217C170.452 100.485 170.403 100.779 170.354 101.099C170.358 101.366 170.362 101.633 170.365 101.899C170.369 102.113 170.372 102.353 170.376 102.619C170.432 102.832 170.489 103.044 170.545 103.257C170.546 103.31 170.628 103.469 170.792 103.733C170.956 103.998 171.038 104.157 171.039 104.21L171.282 104.446C171.39 104.498 171.55 104.496 171.762 104.439C172.028 104.382 172.215 104.406 172.323 104.511C172.804 104.558 173.414 104.309 174.153 103.765C174.944 103.167 175.655 102.516 176.285 101.814C176.443 101.652 176.601 101.569 176.761 101.567C176.868 101.566 176.949 101.644 177.005 101.804C177.06 101.963 177.01 102.177 176.854 102.446C176.018 103.685 175.231 104.549 174.491 105.04C173.751 105.478 173.061 105.701 172.421 105.71ZM182.911 106.119C181.578 106.138 180.4 105.782 179.376 105.05C178.352 104.318 177.827 103.045 177.8 101.232C177.79 100.539 177.86 99.8443 178.01 99.1488C178.16 98.3999 178.336 97.6772 178.539 96.9809C178.636 96.2861 178.787 95.6705 178.992 95.1342C179.043 94.9201 179.068 94.8131 179.068 94.8131C179.12 94.759 179.253 94.677 179.464 94.5673L180.09 93.5982L180.086 93.2782C180.032 93.279 180.006 93.2794 180.006 93.2794C180.005 93.226 180.005 93.1994 180.005 93.1994C180.002 93.0394 180.133 92.8508 180.397 92.6337C180.66 92.4165 180.792 92.3079 180.792 92.3079C180.841 92.0405 180.919 91.906 181.026 91.9045C181.133 91.903 181.265 91.821 181.423 91.6587L182.302 91.646L182.3 91.4861C182.296 91.2194 182.161 91.1147 181.896 91.1719C181.682 91.1749 181.575 91.1498 181.574 91.0965C181.574 91.0432 181.652 90.9354 181.81 90.7731C182.02 90.5567 182.151 90.4214 182.204 90.3673C182.361 90.1517 182.492 89.9631 182.596 89.8016C182.699 89.5868 182.857 89.4245 183.069 89.3147C184.012 88.1277 184.588 87.3726 184.796 87.0496C185.058 86.7258 185.322 86.4819 185.586 86.3181C185.693 86.3166 185.773 86.3687 185.828 86.4746C185.936 86.5264 185.937 86.6064 185.832 86.7146C185.941 86.873 186.021 86.8986 186.073 86.7911C186.178 86.6829 186.23 86.6288 186.23 86.6288L186.548 86.4642C186.44 86.3591 186.385 86.2266 186.382 86.0666C186.379 85.7999 186.429 85.5859 186.533 85.4243C186.637 85.2095 186.82 84.9935 187.084 84.7763C187.401 84.5584 187.559 84.4228 187.558 84.3694C187.876 84.2582 188.115 84.1481 188.273 84.0391C188.485 83.9294 188.698 83.8729 188.911 83.8699C189.284 83.8645 189.659 83.9924 190.037 84.2537C191.058 84.7723 191.918 85.2933 192.619 85.8166C193.32 86.3398 193.678 87.0814 193.692 88.0413C193.706 89.0545 193.292 89.9406 192.45 90.6995C191.66 91.4043 190.682 92.0052 189.516 92.502C188.349 92.9989 187.182 93.4158 186.013 93.7527C184.897 94.0355 184.02 94.2615 183.383 94.4307C183.01 94.4895 182.826 94.6521 182.83 94.9188C182.886 95.1313 182.863 95.3717 182.76 95.6399L182.213 96.5278L181.749 97.6547L181.36 98.3804C180.991 98.7057 180.861 98.9476 180.97 99.1061C181.079 99.2645 181.265 99.2351 181.529 99.018C181.583 99.0705 181.611 99.1501 181.612 99.2568C181.615 99.4701 181.566 99.7375 181.464 100.059C181.361 100.327 181.284 100.542 181.233 100.702C181.183 100.917 181.184 101.023 181.238 101.022C181.344 100.968 181.398 101.073 181.402 101.34L181.498 102.459C181.833 103.467 182.561 104.044 183.684 104.187C183.79 104.186 183.897 104.211 184.005 104.263C184.165 104.26 184.298 104.259 184.405 104.257C185.365 104.243 185.87 104.156 185.921 103.995C186.025 103.834 186.157 103.725 186.316 103.669C186.795 103.556 187.193 103.443 187.512 103.332C187.883 103.22 188.254 103.055 188.625 102.836C189.261 102.56 189.869 102.205 190.449 101.77C191.03 101.334 191.637 100.899 192.271 100.463L193.063 99.8916C193.114 99.7842 193.113 99.7042 193.059 99.6516C193.005 99.5991 193.004 99.5458 193.057 99.4917C193.163 99.4368 193.243 99.4356 193.297 99.4882C193.403 99.4867 193.483 99.4588 193.536 99.4047C193.641 99.3499 193.747 99.2683 193.852 99.1602C193.956 98.9986 194.061 98.8638 194.166 98.7556C194.271 98.6474 194.323 98.54 194.322 98.4333C194.373 98.3259 194.452 98.2181 194.557 98.1099C194.977 97.6771 195.398 97.2176 195.817 96.7315C196.29 96.2447 196.684 95.8123 196.999 95.4344C197.364 94.8957 197.654 94.6248 197.867 94.6217C197.974 94.6202 198.028 94.6728 198.029 94.7794C198.033 95.0461 197.852 95.4487 197.487 95.9874C196.599 97.3337 195.578 98.6552 194.424 99.952C193.268 101.195 192.004 102.334 190.632 103.367C189.629 104.075 188.438 104.706 187.059 105.259C185.681 105.812 184.298 106.099 182.911 106.119ZM183.925 93.2228C184.725 93.1579 185.761 92.9296 187.036 92.5378C188.31 92.0927 189.368 91.5174 190.211 90.8118C191.107 90.0522 191.548 89.219 191.535 88.3125C191.523 87.4592 191.058 86.6392 190.14 85.8523C189.401 86.3964 188.585 87.1816 187.693 88.2079C186.854 89.1801 186.095 90.1512 185.415 91.1211C184.735 92.0376 184.238 92.7382 183.925 93.2228Z"
      fill="black" />
  </g>
  <path
    d="M53.4126 120.089C54.2645 120.103 54.9577 120.282 55.4921 120.627C56.0388 120.959 56.4091 121.439 56.603 122.067C56.8088 122.694 56.8148 123.438 56.6208 124.299L55.4537 129.663L54.1759 129.642L55.3432 124.261C55.5504 123.328 55.4603 122.594 55.0729 122.06C54.6975 121.526 54.0178 121.251 53.034 121.235C52.0261 121.218 51.1817 121.481 50.5009 122.022C49.832 122.563 49.3747 123.384 49.1288 124.484L48.0387 129.543L46.7609 129.522L49.6409 116.211L50.9188 116.232L49.4796 122.833L49.1632 122.36C49.6324 121.552 50.2299 120.967 50.9559 120.607C51.6938 120.247 52.5127 120.074 53.4126 120.089ZM63.2413 129.879C62.3414 129.865 61.5581 129.69 60.8915 129.355C60.237 129.009 59.7347 128.532 59.3844 127.927C59.0462 127.321 58.8838 126.604 58.8972 125.776C58.9147 124.697 59.1582 123.74 59.6278 122.908C60.0973 122.075 60.732 121.426 61.5316 120.958C62.3315 120.479 63.2294 120.248 64.2252 120.264C65.0651 120.278 65.7884 120.451 66.3951 120.785C67.0019 121.107 67.4685 121.571 67.7947 122.176C68.133 122.782 68.2953 123.504 68.2817 124.344C68.2785 124.536 68.2633 124.734 68.236 124.938C68.2089 125.129 68.1759 125.315 68.137 125.494L59.8401 125.36L60.0175 124.408L67.5585 124.531L67.0308 124.882C67.163 124.128 67.1193 123.491 66.8997 122.972C66.6801 122.452 66.3325 122.056 65.8568 121.785C65.3933 121.501 64.8316 121.354 64.1717 121.343C63.4038 121.331 62.7168 121.512 62.1107 121.886C61.5047 122.248 61.0283 122.763 60.6815 123.429C60.3348 124.083 60.1543 124.855 60.1399 125.743C60.1246 126.69 60.3827 127.427 60.9142 127.951C61.458 128.464 62.2758 128.73 63.3677 128.747C64.0036 128.758 64.5932 128.665 65.1364 128.47C65.6798 128.263 66.1285 127.976 66.4825 127.61L67.0436 128.537C66.5924 128.973 66.0289 129.312 65.3529 129.553C64.6891 129.783 63.9852 129.891 63.2413 129.879ZM69.7852 129.895L71.8101 120.477L73.0339 120.497L72.4488 123.278L72.3127 122.789C72.746 121.968 73.3078 121.371 73.9979 120.998C74.7 120.626 75.567 120.448 76.5989 120.465L76.3448 121.703C76.2848 121.702 76.2248 121.701 76.1648 121.7C76.117 121.687 76.0571 121.68 75.9851 121.679C74.9773 121.662 74.1386 121.943 73.4692 122.52C72.8119 123.085 72.3538 123.954 72.0948 125.126L71.063 129.916L69.7852 129.895ZM81.0983 130.169C80.1984 130.154 79.4152 129.979 78.7485 129.645C78.094 129.298 77.5917 128.822 77.2415 128.216C76.9032 127.61 76.7408 126.894 76.7542 126.066C76.7717 124.986 77.0153 124.03 77.4848 123.197C77.9544 122.365 78.589 121.715 79.3887 121.248C80.1885 120.769 81.0864 120.537 82.0823 120.553C82.9222 120.567 83.6454 120.741 84.2521 121.075C84.859 121.396 85.3255 121.86 85.6517 122.465C85.99 123.071 86.1523 123.794 86.1387 124.634C86.1356 124.826 86.1204 125.023 86.0931 125.227C86.066 125.419 86.0329 125.604 85.994 125.783L77.6971 125.649L77.8746 124.698L85.4156 124.82L84.8878 125.171C85.02 124.417 84.9763 123.781 84.7567 123.261C84.5371 122.741 84.1895 122.346 83.7138 122.074C83.2504 121.79 82.6887 121.643 82.0288 121.633C81.2609 121.62 80.5738 121.801 79.9677 122.175C79.3618 122.538 78.8854 123.052 78.5385 123.718C78.1919 124.373 78.0113 125.144 77.997 126.032C77.9816 126.98 78.2397 127.716 78.7713 128.241C79.315 128.754 80.1328 129.019 81.2247 129.037C81.8606 129.047 82.4502 128.954 82.9934 128.759C83.5368 128.552 83.9856 128.265 84.3395 127.899L84.9006 128.826C84.4494 129.263 83.8859 129.602 83.2099 129.843C82.5461 130.072 81.8422 130.181 81.0983 130.169ZM92.5685 130.265L94.8649 119.644C95.0593 118.759 95.4303 118.081 95.978 117.61C96.5379 117.127 97.2618 116.893 98.1497 116.907C98.5336 116.913 98.8927 116.973 99.2269 117.087C99.5611 117.2 99.8346 117.355 100.048 117.55L99.4564 118.477C99.1255 118.159 98.6841 117.996 98.1322 117.987C97.5802 117.978 97.1339 118.121 96.7931 118.415C96.4644 118.698 96.2289 119.162 96.0864 119.808L95.776 121.189L95.6949 121.746L93.8463 130.285L92.5685 130.265ZM92.6864 121.877L92.9016 120.819L98.7508 120.913L98.5177 121.972L92.6864 121.877ZM102.503 130.516C101.627 130.501 100.868 130.327 100.225 129.993C99.5948 129.646 99.1045 129.17 98.7543 128.565C98.416 127.959 98.2535 127.248 98.2668 126.432C98.2843 125.353 98.5338 124.396 99.0153 123.564C99.4971 122.72 100.156 122.064 100.991 121.598C101.827 121.119 102.773 120.889 103.829 120.906C104.705 120.92 105.458 121.094 106.089 121.428C106.732 121.763 107.222 122.233 107.56 122.838C107.91 123.444 108.079 124.155 108.066 124.971C108.048 126.051 107.799 127.013 107.317 127.857C106.835 128.69 106.177 129.345 105.341 129.823C104.517 130.302 103.571 130.533 102.503 130.516ZM102.612 129.383C103.403 129.396 104.108 129.221 104.726 128.859C105.356 128.486 105.851 127.965 106.21 127.299C106.581 126.633 106.773 125.874 106.787 125.022C106.802 124.086 106.538 123.356 105.994 122.831C105.463 122.306 104.705 122.036 103.721 122.02C102.941 122.008 102.236 122.188 101.606 122.562C100.976 122.936 100.475 123.456 100.104 124.122C99.7458 124.776 99.5595 125.535 99.5455 126.399C99.5305 127.323 99.7888 128.047 100.32 128.572C100.864 129.097 101.628 129.367 102.612 129.383ZM109.577 130.54L111.602 121.122L112.826 121.142L112.24 123.922L112.104 123.434C112.538 122.613 113.099 122.016 113.79 121.643C114.492 121.271 115.359 121.093 116.391 121.109L116.136 122.347C116.076 122.346 116.016 122.345 115.956 122.344C115.909 122.332 115.849 122.325 115.777 122.324C114.769 122.307 113.93 122.588 113.261 123.165C112.604 123.73 112.145 124.599 111.886 125.771L110.855 130.561L109.577 130.54ZM120.967 134.307C120.523 134.3 120.098 134.215 119.693 134.053C119.287 133.902 118.967 133.693 118.731 133.425L119.43 132.5C119.63 132.719 119.868 132.891 120.142 133.016C120.416 133.14 120.727 133.205 121.075 133.211C121.483 133.217 121.856 133.109 122.196 132.887C122.547 132.677 122.914 132.287 123.295 131.717L124.273 130.274L124.438 130.097L130.195 121.423L131.509 121.444L124.425 132.005C124.019 132.598 123.639 133.06 123.286 133.391C122.932 133.733 122.568 133.973 122.194 134.111C121.832 134.249 121.423 134.315 120.967 134.307ZM124.044 131.045L121.772 121.287L123.068 121.308L125.051 130.017L124.044 131.045ZM135.212 131.046C134.336 131.031 133.577 130.857 132.934 130.523C132.303 130.176 131.813 129.7 131.463 129.095C131.125 128.489 130.962 127.778 130.975 126.962C130.993 125.883 131.242 124.926 131.724 124.094C132.206 123.25 132.864 122.594 133.7 122.128C134.536 121.649 135.482 121.419 136.538 121.436C137.414 121.45 138.167 121.624 138.797 121.959C139.44 122.293 139.931 122.763 140.269 123.369C140.619 123.974 140.788 124.685 140.774 125.501C140.757 126.581 140.507 127.543 140.025 128.387C139.544 129.22 138.885 129.875 138.049 130.354C137.225 130.832 136.28 131.063 135.212 131.046ZM135.32 129.913C136.112 129.926 136.817 129.751 137.435 129.389C138.065 129.016 138.56 128.496 138.918 127.829C139.289 127.163 139.482 126.404 139.495 125.552C139.51 124.616 139.246 123.886 138.703 123.361C138.171 122.836 137.413 122.566 136.43 122.55C135.65 122.538 134.945 122.718 134.314 123.092C133.684 123.466 133.184 123.986 132.813 124.652C132.454 125.306 132.268 126.065 132.254 126.929C132.239 127.853 132.497 128.577 133.029 129.102C133.573 129.627 134.336 129.897 135.32 129.913ZM146.243 131.224C145.416 131.211 144.728 131.032 144.182 130.687C143.647 130.342 143.283 129.856 143.089 129.229C142.896 128.602 142.883 127.864 143.053 127.014L144.22 121.65L145.498 121.671L144.331 127.035C144.136 127.968 144.226 128.707 144.601 129.254C144.977 129.788 145.644 130.063 146.604 130.078C147.6 130.094 148.432 129.832 149.101 129.29C149.782 128.749 150.245 127.929 150.491 126.829L151.581 121.77L152.859 121.79L150.816 131.208L149.592 131.189L150.176 128.48L150.439 128.934C149.982 129.743 149.384 130.333 148.646 130.705C147.92 131.066 147.119 131.239 146.243 131.224ZM154.378 131.266L156.402 121.848L157.626 121.868L157.041 124.648L156.905 124.16C157.338 123.339 157.9 122.742 158.59 122.369C159.292 121.997 160.159 121.819 161.191 121.835L160.937 123.073C160.877 123.072 160.817 123.071 160.757 123.07C160.709 123.058 160.65 123.051 160.578 123.05C159.57 123.033 158.731 123.314 158.062 123.891C157.404 124.456 156.946 125.325 156.687 126.497L155.655 131.287L154.378 131.266ZM166.312 131.46L169.192 118.149L170.469 118.169L169.03 124.789L168.424 126.651L168.178 128.483L167.535 131.479L166.312 131.46ZM171.565 131.635C170.75 131.622 170.05 131.466 169.467 131.169C168.896 130.859 168.459 130.426 168.156 129.869C167.865 129.3 167.72 128.62 167.721 127.828C167.735 126.964 167.867 126.174 168.119 125.458C168.371 124.742 168.723 124.13 169.175 123.621C169.639 123.1 170.186 122.701 170.815 122.423C171.455 122.146 172.165 122.013 172.945 122.026C173.761 122.039 174.472 122.213 175.079 122.546C175.698 122.869 176.177 123.332 176.515 123.938C176.865 124.544 177.033 125.261 177.02 126.088C177.007 126.904 176.863 127.652 176.588 128.332C176.313 129.011 175.925 129.599 175.425 130.095C174.937 130.591 174.366 130.978 173.714 131.256C173.061 131.521 172.345 131.647 171.565 131.635ZM171.566 130.501C172.358 130.513 173.063 130.339 173.681 129.977C174.299 129.603 174.787 129.083 175.146 128.416C175.517 127.75 175.709 126.991 175.723 126.139C175.738 125.204 175.48 124.473 174.948 123.949C174.417 123.424 173.653 123.153 172.657 123.137C171.877 123.125 171.172 123.305 170.542 123.679C169.924 124.053 169.43 124.573 169.059 125.239C168.7 125.894 168.514 126.653 168.5 127.517C168.485 128.44 168.743 129.165 169.275 129.689C169.806 130.214 170.57 130.484 171.566 130.501ZM182.827 131.817C181.927 131.803 181.144 131.628 180.477 131.293C179.823 130.946 179.321 130.47 178.97 129.864C178.632 129.259 178.47 128.542 178.483 127.714C178.501 126.634 178.744 125.678 179.214 124.846C179.683 124.013 180.318 123.363 181.117 122.896C181.917 122.417 182.815 122.186 183.811 122.202C184.651 122.216 185.374 122.389 185.981 122.723C186.588 123.045 187.054 123.509 187.381 124.114C187.719 124.72 187.881 125.442 187.868 126.282C187.864 126.474 187.849 126.672 187.822 126.876C187.795 127.067 187.762 127.253 187.723 127.432L179.426 127.298L179.603 126.346L187.144 126.469L186.617 126.82C186.749 126.066 186.705 125.429 186.486 124.91C186.266 124.39 185.918 123.994 185.443 123.723C184.979 123.439 184.418 123.292 183.758 123.281C182.99 123.269 182.303 123.45 181.697 123.824C181.091 124.186 180.614 124.7 180.267 125.367C179.921 126.021 179.74 126.793 179.726 127.68C179.71 128.628 179.969 129.365 180.5 129.889C181.044 130.402 181.862 130.667 182.954 130.685C183.589 130.695 184.179 130.603 184.722 130.408C185.266 130.201 185.714 129.914 186.068 129.547L186.629 130.475C186.178 130.911 185.615 131.25 184.939 131.491C184.275 131.721 183.571 131.829 182.827 131.817ZM193.401 131.989C192.597 131.976 191.886 131.802 191.267 131.468C190.649 131.134 190.17 130.664 189.832 130.059C189.494 129.453 189.331 128.736 189.345 127.908C189.358 127.104 189.502 126.363 189.777 125.683C190.052 125.003 190.433 124.416 190.921 123.919C191.41 123.411 191.98 123.024 192.633 122.759C193.297 122.494 194.013 122.367 194.781 122.38C195.609 122.393 196.308 122.554 196.879 122.864C197.451 123.161 197.888 123.594 198.19 124.163C198.493 124.72 198.639 125.395 198.626 126.186C198.607 127.326 198.381 128.337 197.947 129.218C197.512 130.099 196.907 130.785 196.131 131.277C195.355 131.768 194.445 132.006 193.401 131.989ZM193.689 130.859C194.481 130.872 195.186 130.697 195.804 130.335C196.434 129.961 196.929 129.441 197.288 128.775C197.658 128.109 197.851 127.35 197.865 126.498C197.88 125.562 197.616 124.832 197.072 124.307C196.54 123.782 195.783 123.512 194.799 123.496C194.019 123.483 193.314 123.664 192.684 124.038C192.054 124.412 191.553 124.932 191.182 125.598C190.824 126.252 190.637 127.011 190.623 127.875C190.608 128.799 190.867 129.523 191.398 130.048C191.942 130.573 192.706 130.843 193.689 130.859ZM196.786 131.953L197.37 129.245L197.941 127.346L198.153 125.369L198.775 122.534L200.053 122.555L198.01 131.973L196.786 131.953ZM205.527 132.185C204.699 132.172 204.012 131.993 203.465 131.648C202.931 131.303 202.566 130.817 202.373 130.19C202.179 129.563 202.167 128.824 202.336 127.975L203.504 122.611L204.781 122.632L203.614 127.996C203.419 128.929 203.509 129.668 203.884 130.214C204.26 130.748 204.927 131.023 205.887 131.039C206.883 131.055 207.716 130.792 208.384 130.251C209.065 129.71 209.529 128.89 209.774 127.789L210.865 122.73L212.142 122.751L210.1 132.169L208.876 132.149L209.46 129.44L209.722 129.895C209.265 130.703 208.668 131.294 207.929 131.666C207.203 132.026 206.403 132.199 205.527 132.185ZM216.665 132.366C216.125 132.357 215.665 132.235 215.285 132.001C214.905 131.755 214.64 131.415 214.491 130.98C214.354 130.546 214.351 130.03 214.48 129.432L216.349 120.731L217.627 120.752L215.759 129.399C215.629 129.985 215.664 130.441 215.863 130.768C216.073 131.096 216.461 131.264 217.025 131.273C217.289 131.278 217.547 131.246 217.8 131.178C218.054 131.098 218.284 130.976 218.49 130.811L218.781 131.788C218.477 132.011 218.138 132.167 217.765 132.257C217.392 132.335 217.025 132.371 216.665 132.366ZM213.995 123.843L214.21 122.785L220.059 122.879L219.826 123.938L213.995 123.843ZM220.253 135.916C219.809 135.909 219.384 135.824 218.979 135.662C218.573 135.511 218.252 135.302 218.017 135.034L218.716 134.109C218.916 134.328 219.153 134.5 219.427 134.625C219.701 134.749 220.012 134.814 220.36 134.82C220.768 134.826 221.142 134.718 221.482 134.496C221.833 134.286 222.2 133.895 222.581 133.326L223.558 131.883L223.723 131.706L229.481 123.032L230.794 123.053L223.71 133.614C223.305 134.207 222.925 134.669 222.572 135C222.218 135.342 221.854 135.582 221.48 135.72C221.118 135.858 220.709 135.924 220.253 135.916ZM223.33 132.654L221.058 122.896L222.354 122.917L224.337 131.626L223.33 132.654Z"
    fill="black" />
  <line x1="33" y1="107" x2="33" y2="136.017" stroke="#735751" stroke-width="2" />
  <defs>
    <filter id="filter0_bd_177_1499" x="0.700195" y="21.16" width="214.096" height="80.4"
      filterUnits="userSpaceOnUse" color-interpolation-filters="sRGB">
      <feFlood flood-opacity="0" result="BackgroundImageFix" />
      <feGaussianBlur in="BackgroundImageFix" stdDeviation="2" />
      <feComposite in2="SourceAlpha" operator="in" result="effect1_backgroundBlur_177_1499" />
      <feColorMatrix in="SourceAlpha" type="matrix"
        values="0 0 0 0 0 0 0 0 0 0 0 0 0 0 0 0 0 0 127 0" result="hardAlpha" />
      <feOffset dy="4" />
      <feGaussianBlur stdDeviation="2" />
      <feComposite in2="hardAlpha" operator="out" />
      <feColorMatrix type="matrix" values="0 0 0 0 0 0 0 0 0 0 0 0 0 0 0 0 0 0 0.25 0" />
      <feBlend mode="normal" in2="effect1_backgroundBlur_177_1499"
        result="effect2_dropShadow_177_1499" />
      <feBlend mode="normal" in="SourceGraphic" in2="effect2_dropShadow_177_1499" result="shape" />
    </filter>
    <filter id="filter1_d_177_1499" x="76.4111" y="65.9025" width="125.837" height="53.7668"
      filterUnits="userSpaceOnUse" color-interpolation-filters="sRGB">
      <feFlood flood-opacity="0" result="BackgroundImageFix" />
      <feColorMatrix in="SourceAlpha" type="matrix"
        values="0 0 0 0 0 0 0 0 0 0 0 0 0 0 0 0 0 0 127 0" result="hardAlpha" />
      <feOffset dy="4" />
      <feGaussianBlur stdDeviation="2" />
      <feComposite in2="hardAlpha" operator="out" />
      <feColorMatrix type="matrix" values="0 0 0 0 0 0 0 0 0 0 0 0 0 0 0 0 0 0 0.25 0" />
      <feBlend mode="normal" in2="BackgroundImageFix" result="effect1_dropShadow_177_1499" />
      <feBlend mode="normal" in="SourceGraphic" in2="effect1_dropShadow_177_1499" result="shape" />
    </filter>
  </defs>
</svg>