<svg xmlns="http://www.w3.org/2000/svg" width="24" height="18" fill="none" viewBox="0 0 24 18"><path fill="#000" fill-opacity=".5" d="M24 2.45697V16.366C24 17.27 23.268 18.002 22.364 18.002H18.545V8.72997L12 13.64L5.455 8.72997V18.003H1.636C1.42107 18.003 1.20825 17.9606 1.0097 17.8783C0.811145 17.7961 0.63075 17.6755 0.47882 17.5234C0.32689 17.3714 0.206404 17.1909 0.124246 16.9923C0.0420884 16.7937 -0.000131068 16.5809 3.05652e-07 16.366V2.45697C3.05652e-07 0.433967 2.309 -0.721033 3.927 0.492967L5.455 1.63997L12 6.54797L18.545 1.63797L20.073 0.492967C21.69 -0.720033 24 0.433967 24 2.45697Z"/></svg>