<svg width="192" height="113" viewBox="0 0 192 113" fill="none" xmlns="http://www.w3.org/2000/svg">
<g filter="url(#filter0_bd_120_484)">
<path d="M38.4 56.88C38.08 56.88 37.76 56.8533 37.44 56.8C37.12 56.8 36.7733 56.7733 36.4 56.72C36.3467 56.72 36.2133 56.64 36 56.48C35.7867 56.3733 35.6267 56.32 35.52 56.32C35.2 56.32 34.8533 56.2933 34.48 56.24C34.16 56.24 33.8133 56.2133 33.44 56.16C33.3867 56.1067 33.3333 56.0267 33.28 55.92C33.28 55.8667 33.2267 55.84 33.12 55.84C33.0667 55.84 33.04 55.84 33.04 55.84C33.0933 55.8933 33.0933 55.92 33.04 55.92C32.9867 55.92 32.8533 55.8667 32.64 55.76C32.48 55.6533 32.3467 55.5733 32.24 55.52V55.36C32.0267 55.3067 31.8933 55.2267 31.84 55.12C31.7867 55.0667 31.7333 55.04 31.68 55.04H31.52C31.4133 55.04 31.36 55.0133 31.36 54.96C31.1467 54.8533 30.88 54.6933 30.56 54.48C30.24 54.32 30.0267 54.16 29.92 54C29.7067 53.9467 29.5733 53.8667 29.52 53.76C29.4667 53.7067 29.3867 53.6267 29.28 53.52C29.2267 53.4133 29.1733 53.36 29.12 53.36C29.12 53.4133 29.0933 53.4133 29.04 53.36C28.8267 53.04 28.56 52.7733 28.24 52.56C28.24 52.5067 28.2133 52.4533 28.16 52.4C28.16 52.4 28.16 52.3733 28.16 52.32C28.0533 52.32 27.9733 52.2933 27.92 52.24C27.8667 52.1333 27.84 52.0533 27.84 52C27.84 51.8933 27.7867 51.84 27.68 51.84C27.6267 51.5733 27.5467 51.3867 27.44 51.28C27.3333 51.1733 27.2267 51.0133 27.12 50.8C27.0667 50.6933 27.04 50.5867 27.04 50.48C27.04 50.32 26.9867 50.24 26.88 50.24V50.16C26.9333 50.0533 26.8533 49.76 26.64 49.28C26.48 48.7467 26.4 48.2933 26.4 47.92L26.24 47.84C26.08 47.5733 25.9733 47.2533 25.92 46.88C25.92 46.5067 25.9467 46.1333 26 45.76C26.1067 45.3333 26.1067 45.1467 26 45.2C25.8933 45.2533 25.8933 44.9867 26 44.4L26.56 43.28C26.56 43.1733 26.5333 43.0667 26.48 42.96C26.4267 42.8533 26.4 42.7733 26.4 42.72C26.4 42.6667 26.4267 42.6133 26.48 42.56C26.5333 42.5067 26.56 42.4533 26.56 42.4C26.6133 42.2933 26.64 42.1333 26.64 41.92C26.64 41.7067 26.6667 41.5733 26.72 41.52C26.7733 41.4133 26.8533 41.3333 26.96 41.28C27.0667 41.1733 27.1467 41.0933 27.2 41.04L27.6 40.08C27.7067 39.9733 27.7867 39.8933 27.84 39.84C27.9467 39.7333 28.0267 39.6267 28.08 39.52C28.1867 39.36 28.2667 39.2267 28.32 39.12C28.3733 38.96 28.4533 38.8 28.56 38.64C28.6133 38.5333 28.6933 38.4267 28.8 38.32C28.96 38.2133 29.0667 38.1333 29.12 38.08C29.3867 37.92 29.6 37.84 29.76 37.84C29.9733 37.84 30.1067 38.0533 30.16 38.48L30.08 38.88C29.8667 39.1467 29.6533 39.3867 29.44 39.6C29.2267 39.76 28.9867 39.9467 28.72 40.16C28.72 40.2133 28.6933 40.2933 28.64 40.4C28.64 40.4533 28.64 40.5333 28.64 40.64C28.5333 40.64 28.48 40.6933 28.48 40.8C28.48 40.8533 28.4533 40.9333 28.4 41.04C28.4 41.0933 28.32 41.2 28.16 41.36C28.1067 41.4667 28.0533 41.6 28 41.76C28 41.8667 27.9733 41.9733 27.92 42.08L27.68 42.24L27.6 44.16C27.6533 44.2133 27.7067 44.2133 27.76 44.16C27.8133 44.2667 27.84 44.4267 27.84 44.64V44.72L27.76 44.8V45.44C27.7067 45.4933 27.68 45.5467 27.68 45.6C27.68 45.6533 27.7067 45.7333 27.76 45.84C27.8133 45.8933 27.84 45.9733 27.84 46.08C27.7867 46.1333 27.76 46.2133 27.76 46.32C27.76 46.4267 27.8133 46.5333 27.92 46.64V46.88C28.0267 47.04 28.16 47.2 28.32 47.36C28.48 47.4667 28.6133 47.5733 28.72 47.68L29.36 47.92C30.32 48.6133 31.04 49.0933 31.52 49.36C32 49.6267 32.8 49.92 33.92 50.24C34.3467 50.3467 34.7733 50.48 35.2 50.64C35.6267 50.7467 36.0533 50.8 36.48 50.8C36.5333 50.8 36.56 50.8267 36.56 50.88C36.56 50.88 36.5867 50.88 36.64 50.88C36.8533 50.88 37.04 50.9067 37.2 50.96C37.4133 51.0133 37.6267 51.04 37.84 51.04C37.8933 51.04 37.9467 51.04 38 51.04C38.0533 50.9867 38.1067 50.96 38.16 50.96C38.2667 50.96 38.3467 50.9867 38.4 51.04C38.4533 51.04 38.5067 51.04 38.56 51.04C38.9867 51.04 39.4133 51.04 39.84 51.04C40.2667 51.04 40.6667 51.0133 41.04 50.96C41.4667 50.96 41.8933 50.9067 42.32 50.8C42.7467 50.6933 43.1467 50.64 43.52 50.64C44.2667 50.5867 44.9867 50.4533 45.68 50.24C46.4267 49.9733 47.1467 49.7333 47.84 49.52C47.8933 49.4667 48.3467 49.28 49.2 48.96C50.1067 48.5867 51.04 48.1867 52 47.76C52.2133 47.12 52.32 46.3467 52.32 45.44C52.32 43.9467 52 42.6133 51.36 41.44C51.36 41.44 51.2267 41.36 50.96 41.2C50.6933 40.9867 50.5333 40.88 50.48 40.88V40.72C50.48 40.4533 50.3467 40.32 50.08 40.32C49.8133 40.2667 49.5733 40.1067 49.36 39.84C49.2533 39.68 49.12 39.5467 48.96 39.44V39.36C48.8 39.2533 48.7733 39.1733 48.88 39.12C49.04 39.0133 49.1467 38.9333 49.2 38.88L49.04 38.72H48.96C48.8533 38.6133 48.72 38.5333 48.56 38.48C48.4 38.4267 48.2667 38.32 48.16 38.16L47.76 37.84C47.7067 37.7333 47.6 37.68 47.44 37.68C47.28 37.68 47.1467 37.6533 47.04 37.6C46.8267 37.44 46.5867 37.2533 46.32 37.04C46.0533 36.8267 45.7867 36.6667 45.52 36.56H45.44C45.2267 36.4533 45.0133 36.32 44.8 36.16C44.64 36 44.4267 35.8667 44.16 35.76C44.1067 35.6533 44.0267 35.6533 43.92 35.76C43.8667 35.8133 43.8133 35.8133 43.76 35.76C43.5467 35.6533 43.36 35.4933 43.2 35.28C43.04 35.0133 42.8267 34.88 42.56 34.88H42.48C42.32 34.7733 42.1867 34.6133 42.08 34.4C42.0267 34.1333 41.9467 33.9467 41.84 33.84C41.36 33.5733 40.88 33.3867 40.4 33.28C39.92 33.1733 39.44 33.04 38.96 32.88C38.64 32.72 38.24 32.64 37.76 32.64C37.3333 32.5867 36.9867 32.5333 36.72 32.48C36.4 32.3733 36.24 32.2133 36.24 32C36.24 31.7333 36.5067 31.4667 37.04 31.2C37.2533 31.0933 37.4933 31.04 37.76 31.04C38.0267 30.9867 38.2667 30.96 38.48 30.96C39.0667 30.96 39.9733 30.8 41.2 30.48C42.48 30.16 43.92 29.7333 45.52 29.2C47.12 28.6133 48.6667 28 50.16 27.36C50.48 27.2533 50.72 27.1467 50.88 27.04C51.0933 26.9333 51.2533 26.96 51.36 27.12C51.2533 27.12 51.2 27.2 51.2 27.36C51.4667 27.36 51.6267 27.28 51.68 27.12C51.7867 26.9067 51.8933 26.6933 52 26.48H52.08L53.6 25.68C53.8133 25.6267 54 25.6533 54.16 25.76C54.3733 25.8133 54.56 25.7867 54.72 25.68C54.6667 25.5733 54.5867 25.4933 54.48 25.44C54.4267 25.3333 54.48 25.2267 54.64 25.12C54.7467 25.0133 54.8267 24.96 54.88 24.96C55.2 24.7467 55.4933 24.6133 55.76 24.56C56.08 24.4533 56.32 24.24 56.48 23.92C57.3333 23.3333 58.0533 22.72 58.64 22.08C59.2267 21.3867 59.52 20.7467 59.52 20.16C59.52 19.4133 58.9867 18.7733 57.92 18.24C56.9067 17.6533 55.0667 17.1733 52.4 16.8C52.2933 16.8 52.1867 16.8 52.08 16.8C51.9733 16.7467 51.8667 16.72 51.76 16.72C51.0667 16.72 50.4 16.56 49.76 16.24C49.8133 16.4533 49.7067 16.56 49.44 16.56C48.6933 16.5067 47.9467 16.48 47.2 16.48C46.4533 16.4267 45.7333 16.4 45.04 16.4C43.8667 16.4 42.7733 16.4267 41.76 16.48C40.8 16.5333 40.1067 16.5867 39.68 16.64C39.2533 16.6933 38.8 16.7467 38.32 16.8C37.8933 16.8 37.4667 16.8533 37.04 16.96C36.72 16.8533 36.4 16.9067 36.08 17.12H36C35.6267 17.1733 35.2533 17.2267 34.88 17.28C34.5067 17.3333 34.1067 17.4133 33.68 17.52C33.4667 17.5733 33.2267 17.6267 32.96 17.68C32.6933 17.68 32.4267 17.7333 32.16 17.84L30.56 18.16C30.3467 18.32 30.1067 18.4533 29.84 18.56C29.6267 18.6133 29.3867 18.6133 29.12 18.56H29.04L27.52 18.96H27.44C27.28 18.96 27.0933 18.8533 26.88 18.64C26.72 18.3733 26.6133 18.1333 26.56 17.92C26.5067 18.24 26.4267 18.5867 26.32 18.96C26.2133 19.3333 26.0267 19.52 25.76 19.52L23.52 20.24C23.3067 20.2933 23.0667 20.32 22.8 20.32C22.5333 20.32 22.2667 20.32 22 20.32C21.7333 20.32 21.52 20.3467 21.36 20.4C21.2 20.4533 21.0933 20.5867 21.04 20.8C21.04 20.96 20.96 21.0933 20.8 21.2C20.5867 21.4133 20.32 21.5733 20 21.68C19.68 21.7333 19.3867 21.8133 19.12 21.92H19.04C18.9333 21.92 18.7733 21.8667 18.56 21.76C18.4 21.6533 18.2667 21.6267 18.16 21.68C18.1067 21.7333 18.0533 21.8667 18 22.08C17.9467 22.2933 17.8667 22.4267 17.76 22.48V22.56C17.44 22.6667 17.0933 22.8 16.72 22.96C16.3467 23.12 16 23.28 15.68 23.44C15.36 23.6 14.9867 23.7867 14.56 24C14.1867 24.16 13.8667 24.2667 13.6 24.32C13.4933 24.32 13.44 24.2133 13.44 24C13.4933 23.7867 13.4667 23.7333 13.36 23.84C13.04 24 12.72 24.2933 12.4 24.72C12.08 25.1467 11.7867 25.44 11.52 25.6C11.2533 25.8133 10.96 25.92 10.64 25.92C10.3733 25.92 10.1067 26.0267 9.84 26.24C9.68 26.4 9.52 26.6667 9.36 27.04C9.25333 27.36 9.12 27.6 8.96 27.76C8.53333 28.1867 8.10667 28.6933 7.68 29.28C7.62667 29.3867 7.54667 29.4933 7.44 29.6C7.33333 29.7067 7.28 29.84 7.28 30H7.2C6.88 30.64 6.72 31.2533 6.72 31.84C6.72 33.0133 7.14667 33.8667 8 34.4C8.90667 34.9333 9.92 35.3333 11.04 35.6C11.2533 35.6533 11.44 35.7333 11.6 35.84C11.8133 35.9467 12.0267 35.9733 12.24 35.92C12.4533 35.8133 12.64 35.76 12.8 35.76C13.0667 35.76 13.28 35.8667 13.44 36.08L14.64 36.32C15.28 36.48 15.6 36.64 15.6 36.8C15.6 36.9067 15.44 37.0133 15.12 37.12C14.8533 37.1733 14.5867 37.2 14.32 37.2C13.36 37.2 12.1867 37.0133 10.8 36.64C9.41333 36.2133 8.16 35.6 7.04 34.8C5.92 33.9467 5.28 32.9067 5.12 31.68C5.12 31.6267 5.04 31.4933 4.88 31.28C4.77333 31.0667 4.69333 30.88 4.64 30.72C4.48 30.24 4.4 29.76 4.4 29.28C4.4 28.3733 4.58667 27.52 4.96 26.72C5.38667 25.92 5.94667 25.1733 6.64 24.48C6.90667 24.2133 7.14667 24.0267 7.36 23.92C7.62667 23.8133 7.92 23.6533 8.24 23.44C8.56 23.2267 8.72 23.04 8.72 22.88C8.72 22.72 8.88 22.5333 9.2 22.32C9.62667 22.0533 10.2133 21.7333 10.96 21.36C11.76 20.9867 12.3733 20.6933 12.8 20.48C13.12 20.48 13.4133 20.3467 13.68 20.08C14.7467 19.6 15.8667 19.1733 17.04 18.8C18.2133 18.3733 19.3867 17.9733 20.56 17.6C20.88 17.44 21.2 17.36 21.52 17.36C21.84 17.36 22.08 17.44 22.24 17.6C22.24 17.4933 22.2133 17.4133 22.16 17.36C22.16 17.2533 22.2133 17.1733 22.32 17.12C23.6533 16.6933 24.9867 16.3467 26.32 16.08C27.6533 15.76 28.9333 15.4933 30.16 15.28H30.24C30.4 15.28 30.64 15.2267 30.96 15.12H31.04C31.1467 15.12 31.2267 15.12 31.28 15.12C31.3867 15.0667 31.4933 15.04 31.6 15.04C31.92 15.2 32.24 15.1467 32.56 14.88C34 14.6133 35.3333 14.4267 36.56 14.32C37.7867 14.16 38.8267 14.08 39.68 14.08H39.92C40.0267 14.08 40.1333 14.08 40.24 14.08C40.4 14.0267 40.5333 14 40.64 14H41.44C41.6 13.9467 41.76 13.9467 41.92 14C42.1333 14 42.2933 14 42.4 14H42.48C43.12 14 43.7867 14.0267 44.48 14.08C45.2267 14.08 45.9733 14.08 46.72 14.08H46.8C47.0133 14.1333 47.1733 14.2133 47.28 14.32C47.44 14.4267 47.6267 14.3733 47.84 14.16C49.28 14.2133 50.72 14.3733 52.16 14.64C52.96 14.7467 53.92 14.96 55.04 15.28C56.2133 15.5467 57.3333 15.9467 58.4 16.48C59.4667 16.96 60.3467 17.5733 61.04 18.32C61.7867 19.0667 62.16 19.9733 62.16 21.04C62.16 21.4667 62.08 21.92 61.92 22.4C61.76 22.88 61.4667 23.3333 61.04 23.76C60.6133 24.1333 60.1867 24.5333 59.76 24.96L58.8 25.84L58.24 26L57.6 26.32C56.4267 26.8533 55.1467 27.4667 53.76 28.16C52.3733 28.8 50.9067 29.3067 49.36 29.68L48.64 29.84H48.56V29.92H48.48C48.3733 29.9733 48.24 30 48.08 30C47.92 29.9467 47.76 29.9733 47.6 30.08C44.9867 30.7733 42.5067 31.2533 40.16 31.52C39.6267 31.5733 39.36 31.68 39.36 31.84C39.36 31.9467 39.5467 32.08 39.92 32.24C40.3467 32.3467 40.6667 32.4533 40.88 32.56C41.8933 32.88 42.96 33.2267 44.08 33.6C45.2 33.92 46.3467 34.32 47.52 34.8C47.84 34.8533 48.16 34.96 48.48 35.12C48.8533 35.28 49.12 35.52 49.28 35.84C49.3333 35.7333 49.4133 35.7067 49.52 35.76C49.6267 35.8133 49.7067 35.84 49.76 35.84C50.4533 36.16 51.12 36.5067 51.76 36.88C52.4 37.2533 52.9867 37.6533 53.52 38.08C53.6267 38.3467 53.68 38.48 53.68 38.48C54.0533 38.48 54.32 38.5867 54.48 38.8C54.64 39.0133 54.8267 39.2533 55.04 39.52C55.6267 40.16 56.08 40.8533 56.4 41.6C56.72 42.2933 56.88 43.04 56.88 43.84C56.88 44.0533 56.8533 44.2667 56.8 44.48C56.8 44.6933 56.7733 44.9333 56.72 45.2C57.9467 44.5067 58.8533 43.6 59.44 42.48C59.5467 42.32 59.68 42.24 59.84 42.24C60.16 42.24 60.2667 42.4267 60.16 42.8C59.8933 43.4933 59.3867 44.2667 58.64 45.12C57.9467 45.92 57.1467 46.5333 56.24 46.96C56.24 47.0133 56.2133 47.0667 56.16 47.12C55.8933 47.76 55.6267 48.24 55.36 48.56C55.3067 48.7733 55.2 48.9333 55.04 49.04C54.9333 49.1467 54.8533 49.28 54.8 49.44L54.72 49.52L54.4 49.68C54.3467 49.7333 54.2933 49.8133 54.24 49.92C54.24 50.0267 54.1867 50.1333 54.08 50.24C54.1867 50.3467 54.16 50.4 54 50.4C52.6667 52 50.96 53.3333 48.88 54.4H48.8C48.4267 54.6133 48.2933 54.6667 48.4 54.56C48.5067 54.5067 48.5067 54.4267 48.4 54.32H48.32C47.8933 54.5333 47.6267 54.6933 47.52 54.8C47.36 54.8 47.1733 54.8533 46.96 54.96C46.8 55.0667 46.72 55.12 46.72 55.12H46.32C46.2667 55.12 46.1333 55.1733 45.92 55.28C45.76 55.44 45.6267 55.5467 45.52 55.6C45.2533 55.6 45.0667 55.68 44.96 55.84C44.8533 55.84 44.72 55.84 44.56 55.84C44.4 55.84 44.24 55.8667 44.08 55.92C44.0267 55.9733 43.76 56 43.28 56C42.8533 56.0533 42.5867 56.1067 42.48 56.16C42.4267 56.2133 42.24 56.2933 41.92 56.4C41.6 56.5067 41.3867 56.56 41.28 56.56C41.2267 56.56 41.1733 56.5333 41.12 56.48C41.12 56.48 41.0933 56.48 41.04 56.48C40.9867 56.48 40.9333 56.5067 40.88 56.56C40.8267 56.6667 40.7467 56.72 40.64 56.72C40.5333 56.72 40.4267 56.6933 40.32 56.64C40.2133 56.5867 40.1067 56.56 40 56.56C39.9467 56.56 39.84 56.5867 39.68 56.64C39.5733 56.7467 39.4667 56.8 39.36 56.8C39.2533 56.8 39.1467 56.7733 39.04 56.72C38.9867 56.72 38.88 56.7467 38.72 56.8C38.6133 56.8533 38.5067 56.88 38.4 56.88ZM18.48 57.76C18.1067 57.76 17.92 57.36 17.92 56.56C17.92 56.0267 18.0267 55.36 18.24 54.56C18.5067 53.8133 18.8267 52.9333 19.2 51.92C19.6267 51.5467 19.84 51.0667 19.84 50.48C19.9467 50.5333 20 50.5333 20 50.48C20.0533 50.3733 20.08 50.32 20.08 50.32C20.1867 50.16 20.24 50 20.24 49.84C20.24 49.6267 20.2667 49.44 20.32 49.28C21.28 46.88 22.5067 44.2667 24 41.44C24.1067 41.2267 24.2133 41.1733 24.32 41.28C24.48 41.3333 24.5867 41.3067 24.64 41.2C24.6933 41.1467 24.72 41.0133 24.72 40.8C24.72 40.64 24.6933 40.48 24.64 40.32C24.64 40.16 24.72 39.9733 24.88 39.76L26 37.76C27.5467 34.9867 29.0933 32.32 30.64 29.76C32.24 27.2 33.7333 25.2267 35.12 23.84L35.36 23.68L35.6 23.28C35.6 23.28 35.6533 23.2533 35.76 23.2C35.8667 23.1467 35.9467 23.1733 36 23.28C36 23.3333 35.9467 23.44 35.84 23.6C35.7867 23.76 35.76 23.8667 35.76 23.92C35.92 24.1867 36.1067 24.2133 36.32 24C36.3733 23.8933 36.3733 23.6533 36.32 23.28C36.2667 22.9067 36.2667 22.72 36.32 22.72C36.4267 22.6667 36.48 22.6667 36.48 22.72C36.5333 22.7733 36.5867 22.8 36.64 22.8C36.7467 22.8 36.8 22.72 36.8 22.56C36.8 22.4 36.8267 22.2933 36.88 22.24C37.4667 22.0267 38 21.92 38.48 21.92C38.7467 21.92 39.12 22.0533 39.6 22.32C40.1333 22.5867 40.4 22.96 40.4 23.44C40.4 23.7067 40.2667 24.0267 40 24.4C39.9467 24.4533 39.8933 24.56 39.84 24.72C39.7867 24.8267 39.7067 24.9333 39.6 25.04C39.5467 25.0933 39.4933 25.12 39.44 25.12C39.44 25.0667 39.3867 25.0667 39.28 25.12C39.2267 25.1733 39.1467 25.2 39.04 25.2C38.9867 25.1467 38.9067 25.12 38.8 25.12C38.6933 25.12 38.6667 25.2 38.72 25.36C38.8267 25.52 38.8533 25.6267 38.8 25.68C38.7467 25.7333 38.6933 25.7333 38.64 25.68C38.5867 25.6267 38.5067 25.6533 38.4 25.76C38.3467 25.8133 38.3733 25.8667 38.48 25.92C38.64 25.92 38.6667 25.9733 38.56 26.08C38.24 26.4 37.84 26.7467 37.36 27.12C36.9333 27.44 36.5067 27.76 36.08 28.08C36.0267 28.1333 35.9733 28.1333 35.92 28.08C35.8667 27.9733 35.8133 27.9467 35.76 28L35.2 28.8C34.6667 29.3333 34.1333 29.8933 33.6 30.48C33.0667 31.0667 32.5067 31.7333 31.92 32.48C31.76 32.8 31.5733 33.0933 31.36 33.36C31.1467 33.6267 30.8533 33.7333 30.48 33.68C30.48 33.7333 30.5333 33.8133 30.64 33.92C30.7467 33.9733 30.7467 34.08 30.64 34.24C29.7333 35.52 28.8267 36.8533 27.92 38.24C27.0133 39.6267 26.16 41.0667 25.36 42.56C24.9867 43.2 24.5333 44.0267 24 45.04L23.28 46.48C23.2267 46.64 23.1467 46.72 23.04 46.72C22.9867 46.6667 22.9067 46.64 22.8 46.64C22.9067 46.8533 22.96 47.04 22.96 47.2C22.96 47.6267 22.72 48.08 22.24 48.56C21.5467 50.16 20.9067 51.68 20.32 53.12C19.7333 54.56 19.28 55.8933 18.96 57.12C18.8533 57.5467 18.6933 57.76 18.48 57.76ZM38.72 55.52H38.88C38.9867 55.5733 39.12 55.52 39.28 55.36H39.6C39.8133 55.2533 39.9467 55.2 40 55.2C40.1067 55.2 40.1867 55.2533 40.24 55.36C40.2933 55.52 40.4267 55.52 40.64 55.36L40.96 55.28C41.0667 55.1733 41.1733 55.12 41.28 55.12C41.3867 55.12 41.4933 55.0933 41.6 55.04C41.7067 54.9867 41.76 54.9067 41.76 54.8C41.8133 54.7467 41.8933 54.7467 42 54.8C42.1067 54.8 42.16 54.8 42.16 54.8C42.2133 54.8533 42.2667 54.88 42.32 54.88H42.4C42.56 54.88 42.7733 54.8 43.04 54.64C43.3067 54.48 43.44 54.4 43.44 54.4C43.5467 54.4 43.6533 54.32 43.76 54.16C43.8667 54.0533 43.9467 54 44 54L44.64 53.84C44.96 53.68 45.2 53.6 45.36 53.6C45.4133 53.4933 45.5733 53.3867 45.84 53.28C46.1067 53.1733 46.24 53.0933 46.24 53.04C46.3467 52.9333 46.5067 52.8533 46.72 52.8C46.9333 52.7467 47.0667 52.6933 47.12 52.64C47.3333 52.64 47.84 52.32 48.64 51.68C49.4933 51.04 50.2133 50.2133 50.8 49.2C50.8533 49.0933 50.6933 49.12 50.32 49.28C49.9467 49.44 49.5467 49.6267 49.12 49.84C48.7467 50 48.5333 50.08 48.48 50.08C48.4267 50.08 48.2933 50.1867 48.08 50.4C47.8667 50.56 47.7333 50.64 47.68 50.64C47.5733 50.7467 47.4667 50.8 47.36 50.8C47.36 50.8 47.2533 50.7467 47.04 50.64V50.8C46.9333 50.8 46.8533 50.8267 46.8 50.88C46.7467 50.88 46.6667 50.88 46.56 50.88C46.4533 50.88 46.2933 50.9333 46.08 51.04C45.8667 51.1467 45.7333 51.2 45.68 51.2C45.6267 51.2 45.5467 51.2267 45.44 51.28C45.3867 51.28 45.3067 51.2533 45.2 51.2C44.9867 51.4133 44.5867 51.5733 44 51.68C43.4133 51.7867 42.9867 51.84 42.72 51.84C42.6667 51.84 42.64 51.84 42.64 51.84C42.6933 51.7867 42.6933 51.76 42.64 51.76C42.5867 51.76 42.5333 51.7867 42.48 51.84C42.4267 51.84 42.3467 51.84 42.24 51.84L42.08 52H41.44C41.28 52 41.0933 52.0267 40.88 52.08C40.72 52.1333 40.5867 52.1333 40.48 52.08H40.32C40.2667 52.08 40.1867 52.08 40.08 52.08C40.0267 52.1333 39.9467 52.16 39.84 52.16C39.7867 52.16 39.7333 52.1333 39.68 52.08C39.68 52.0267 39.6267 51.9733 39.52 51.92C39.4667 51.92 39.4133 51.9467 39.36 52C39.3067 52.1067 39.2267 52.16 39.12 52.16C39.0667 52.16 39.0133 52.1333 38.96 52.08C38.96 52.08 38.9333 52.08 38.88 52.08H38.56C38.56 52.1333 38.5067 52.16 38.4 52.16C38.3467 52.16 38.32 52.1333 38.32 52.08C38.32 52.08 38.2933 52.08 38.24 52.08C38.1333 52.08 38 52.1067 37.84 52.16C37.7333 52.2133 37.6267 52.24 37.52 52.24H37.36C37.36 52.1333 37.3067 52.0533 37.2 52V52.08H36.48C36.16 52.0267 35.84 51.92 35.52 51.76C35.2 51.6 34.9067 51.4933 34.64 51.44C34.5867 51.44 34.5333 51.4667 34.48 51.52C34.48 51.5733 34.4533 51.6 34.4 51.6C34.3467 51.6 34.2933 51.5733 34.24 51.52C34.24 51.4667 34.2133 51.44 34.16 51.44C34.1067 51.44 34.0533 51.4667 34 51.52C34 51.52 33.9467 51.4667 33.84 51.36C33.7333 51.36 33.52 51.3067 33.2 51.2C33.2 51.04 33.12 50.96 32.96 50.96C32.96 50.8533 32.64 50.72 32 50.56C31.36 50.4 30.9867 50.2933 30.88 50.24C30.8267 50.1867 30.72 50.1067 30.56 50C30.4533 49.8933 30.3733 49.8933 30.32 50C30.16 49.9467 29.9467 49.8133 29.68 49.6C29.4133 49.3333 29.2 49.2 29.04 49.2L28.72 48.72H28.64L28.4 49.12C28.4 49.1733 28.4267 49.3067 28.48 49.52C28.5867 49.7333 28.6133 49.8933 28.56 50C28.6667 50.0533 28.72 50.16 28.72 50.32C28.72 50.48 28.7733 50.56 28.88 50.56C28.88 50.88 28.9867 51.2 29.2 51.52C29.2 51.5733 29.3333 51.68 29.6 51.84C29.92 52 30.0533 52.1067 30 52.16C30.2133 52.3733 30.32 52.5333 30.32 52.64C30.5333 52.8533 30.64 53.0133 30.64 53.12C30.6933 53.1733 30.72 53.2 30.72 53.2C30.7733 53.2 30.8 53.2 30.8 53.2C30.8533 53.3067 30.9867 53.4933 31.2 53.76C31.4667 54.0267 31.6533 54.16 31.76 54.16H31.92C31.9733 54.2133 32.08 54.32 32.24 54.48C32.4533 54.64 32.5867 54.72 32.64 54.72H32.72C33.1467 54.72 33.5733 54.7733 34 54.88C34.48 55.04 34.9333 55.1467 35.36 55.2C35.36 55.2 35.4133 55.2267 35.52 55.28C35.68 55.3333 35.84 55.3867 36 55.44C36.4267 55.4933 36.9333 55.4933 37.52 55.44C38.1067 55.44 38.5067 55.4667 38.72 55.52ZM67.1944 52.16C65.861 52.16 64.6877 51.7867 63.6744 51.04C62.661 50.2933 62.1544 49.0133 62.1544 47.2C62.1544 46.5067 62.2344 45.8133 62.3944 45.12C62.5544 44.3733 62.741 43.6533 62.9544 42.96C63.061 42.2667 63.221 41.6533 63.4344 41.12C63.4877 40.9067 63.5144 40.8 63.5144 40.8C63.5677 40.7467 63.701 40.6667 63.9144 40.56L64.5544 39.6V39.28C64.501 39.28 64.4744 39.28 64.4744 39.28C64.4744 39.2267 64.4744 39.2 64.4744 39.2C64.4744 39.04 64.6077 38.8533 64.8744 38.64C65.141 38.4267 65.2744 38.32 65.2744 38.32C65.3277 38.0533 65.4077 37.92 65.5144 37.92C65.621 37.92 65.7544 37.84 65.9144 37.68H66.7944V37.52C66.7944 37.2533 66.661 37.1467 66.3944 37.2C66.181 37.2 66.0744 37.1733 66.0744 37.12C66.0744 37.0667 66.1544 36.96 66.3144 36.8C66.5277 36.5867 66.661 36.4533 66.7144 36.4C66.8744 36.1867 67.0077 36 67.1144 35.84C67.221 35.6267 67.381 35.4667 67.5944 35.36C68.5544 34.1867 69.141 33.44 69.3544 33.12C69.621 32.8 69.8877 32.56 70.1544 32.4C70.261 32.4 70.341 32.4533 70.3944 32.56C70.501 32.6133 70.501 32.6933 70.3944 32.8C70.501 32.96 70.581 32.9867 70.6344 32.88C70.741 32.7733 70.7944 32.72 70.7944 32.72L71.1144 32.56C71.0077 32.4533 70.9544 32.32 70.9544 32.16C70.9544 31.8933 71.0077 31.68 71.1144 31.52C71.221 31.3067 71.4077 31.0933 71.6744 30.88C71.9944 30.6667 72.1544 30.5333 72.1544 30.48C72.4744 30.3733 72.7144 30.2667 72.8744 30.16C73.0877 30.0533 73.301 30 73.5144 30C73.8877 30 74.261 30.1333 74.6344 30.4C75.6477 30.9333 76.501 31.4667 77.1944 32C77.8877 32.5333 78.2344 33.28 78.2344 34.24C78.2344 35.2533 77.8077 36.1333 76.9544 36.88C76.1544 37.5733 75.1677 38.16 73.9944 38.64C72.821 39.12 71.6477 39.52 70.4744 39.84C69.3544 40.1067 68.4744 40.32 67.8344 40.48C67.461 40.5333 67.2744 40.6933 67.2744 40.96C67.3277 41.1733 67.301 41.4133 67.1944 41.68L66.6344 42.56L66.1544 43.68L65.7544 44.4C65.381 44.72 65.2477 44.96 65.3544 45.12C65.461 45.28 65.6477 45.2533 65.9144 45.04C65.9677 45.0933 65.9944 45.1733 65.9944 45.28C65.9944 45.4933 65.941 45.76 65.8344 46.08C65.7277 46.3467 65.6477 46.56 65.5944 46.72C65.541 46.9333 65.541 47.04 65.5944 47.04C65.701 46.9867 65.7544 47.0933 65.7544 47.36L65.8344 48.48C66.1544 49.4933 66.8744 50.08 67.9944 50.24C68.101 50.24 68.2077 50.2667 68.3144 50.32C68.4744 50.32 68.6077 50.32 68.7144 50.32C69.6744 50.32 70.181 50.24 70.2344 50.08C70.341 49.92 70.4744 49.8133 70.6344 49.76C71.1144 49.6533 71.5144 49.5467 71.8344 49.44C72.2077 49.3333 72.581 49.1733 72.9544 48.96C73.5944 48.6933 74.2077 48.3467 74.7944 47.92C75.381 47.4933 75.9944 47.0667 76.6344 46.64L77.4344 46.08C77.4877 45.9733 77.4877 45.8933 77.4344 45.84C77.381 45.7867 77.381 45.7333 77.4344 45.68C77.541 45.6267 77.621 45.6267 77.6744 45.68C77.781 45.68 77.861 45.6533 77.9144 45.6C78.021 45.5467 78.1277 45.4667 78.2344 45.36C78.341 45.2 78.4477 45.0667 78.5544 44.96C78.661 44.8533 78.7144 44.7467 78.7144 44.64C78.7677 44.5333 78.8477 44.4267 78.9544 44.32C79.381 43.8933 79.8077 43.44 80.2344 42.96C80.7144 42.48 81.1144 42.0533 81.4344 41.68C81.8077 41.1467 82.101 40.88 82.3144 40.88C82.421 40.88 82.4744 40.9333 82.4744 41.04C82.4744 41.3067 82.2877 41.7067 81.9144 42.24C81.0077 43.5733 79.9677 44.88 78.7944 46.16C77.621 47.3867 76.341 48.5067 74.9544 49.52C73.941 50.2133 72.741 50.8267 71.3544 51.36C69.9677 51.8933 68.581 52.16 67.1944 52.16ZM68.3944 39.28C69.1944 39.2267 70.2344 39.0133 71.5144 38.64C72.7944 38.2133 73.861 37.6533 74.7144 36.96C75.621 36.2133 76.0744 35.3867 76.0744 34.48C76.0744 33.6267 75.621 32.8 74.7144 32C73.9677 32.5333 73.141 33.3067 72.2344 34.32C71.381 35.28 70.6077 36.24 69.9144 37.2C69.221 38.1067 68.7144 38.8 68.3944 39.28ZM94.7688 52.24C94.4488 52.24 94.2888 52.0533 94.2888 51.68C94.2888 51.4133 94.3688 51.0933 94.5288 50.72C94.9554 49.8133 95.4354 48.5333 95.9688 46.88C96.5554 45.2267 97.2754 43.8133 98.1288 42.64C98.7154 41.4667 99.2488 40.32 99.7288 39.2C100.262 38.0267 100.769 36.8533 101.249 35.68C101.249 35.68 101.195 35.6533 101.089 35.6C100.982 35.4933 100.929 35.3867 100.929 35.28C100.662 35.0667 100.342 34.7733 99.9688 34.4C99.5954 33.9733 99.5688 33.5467 99.8888 33.12C99.9954 33.0133 100.049 32.96 100.049 32.96C100.102 32.96 100.129 32.96 100.129 32.96C100.129 32.9067 100.102 32.88 100.049 32.88C100.049 32.88 100.049 32.8533 100.049 32.8L99.9688 32.72C99.9154 32.72 99.8621 32.72 99.8088 32.72C99.8088 32.6667 99.7821 32.64 99.7288 32.64C99.5154 32.64 99.2754 32.6933 99.0088 32.8C98.7421 32.8533 98.4754 32.88 98.2088 32.88C97.8888 32.88 97.4621 33.0133 96.9288 33.28C96.3954 33.4933 95.9154 33.68 95.4888 33.84C95.2754 33.8933 95.1421 33.92 95.0888 33.92C95.0888 33.8667 94.9821 33.8933 94.7688 34C94.7154 34.0533 94.7154 33.9733 94.7688 33.76C94.8754 33.4933 94.9288 33.3067 94.9288 33.2C94.9288 33.1467 94.9021 33.12 94.8488 33.12C94.7421 33.12 94.5288 33.28 94.2088 33.6C93.8888 33.8667 93.6754 34.0267 93.5688 34.08C93.5154 34.1333 93.4888 34.2133 93.4888 34.32C93.5421 34.4267 93.5688 34.5333 93.5688 34.64C93.5688 34.8 93.4354 34.9867 93.1688 35.2C92.9021 35.36 92.7154 35.4933 92.6088 35.6C92.3954 35.76 92.1288 35.8667 91.8088 35.92C91.5421 35.92 91.2754 36.0267 91.0088 36.24C90.6888 36.4533 90.5287 36.6133 90.5287 36.72C90.5821 36.8267 90.4221 37.0133 90.0488 37.28C89.5688 37.6533 88.9021 38.2133 88.0488 38.96C87.2488 39.7067 86.6354 40.3733 86.2088 40.96C85.1954 42.1867 84.2621 43.6 83.4088 45.2C82.6088 46.8 82.2088 48.0533 82.2088 48.96C82.2088 49.6533 82.5021 50 83.0888 50C83.1954 50 83.3021 50 83.4088 50C83.5154 49.9467 83.6488 49.8933 83.8088 49.84L85.8888 48.64L86.3688 48.56V48.48L86.6888 48.72C86.7421 48.6667 86.7154 48.5867 86.6088 48.48C86.5554 48.32 86.5554 48.24 86.6088 48.24C86.6621 48.24 86.6888 48.2667 86.6888 48.32C86.7421 48.32 86.7954 48.32 86.8488 48.32L87.0088 48.08C87.0088 48.08 87.0888 48.1067 87.2488 48.16C87.4621 48.16 87.6221 48.1067 87.7288 48C87.8888 47.9467 87.9154 47.8667 87.8088 47.76C87.7554 47.6533 87.6754 47.5733 87.5688 47.52L88.1288 47.04C88.1821 46.9333 88.3954 46.8267 88.7688 46.72C89.6754 46.1333 90.4221 45.44 91.0088 44.64C91.6488 43.7867 92.3688 43.0133 93.1688 42.32H93.2488L94.2088 41.36L94.1288 41.12L95.1688 39.92H95.3288C95.3821 39.8133 95.4888 39.68 95.6488 39.52C95.8621 39.36 95.9954 39.2267 96.0488 39.12C96.1554 39.0667 96.3954 38.8 96.7688 38.32C97.1954 37.7867 97.5954 37.36 97.9688 37.04C98.3954 36.72 98.6354 36.56 98.6888 36.56C98.7421 36.56 98.7688 36.5867 98.7688 36.64C98.7688 36.8 98.6888 37.04 98.5288 37.36C98.4221 37.68 98.3154 37.8933 98.2088 38C97.8354 38.5867 97.3554 39.2533 96.7688 40C96.1821 40.6933 95.8354 41.12 95.7288 41.28C95.0888 41.9733 94.3154 42.9067 93.4088 44.08C92.5021 45.2 91.5154 46.32 90.4488 47.44C89.3821 48.56 88.3154 49.52 87.2488 50.32C86.2354 51.0667 85.2754 51.44 84.3688 51.44C83.5154 51.44 82.6088 51.1733 81.6488 50.64C80.6888 50.1067 80.2088 49.0933 80.2088 47.6C80.2088 47.12 80.2621 46.5867 80.3688 46C80.5288 45.36 80.7688 44.6933 81.0888 44C81.0888 44 81.1421 43.9467 81.2488 43.84C81.3554 43.68 81.4354 43.6267 81.4888 43.68C81.5954 43.52 81.6221 43.36 81.5688 43.2C81.5688 42.9867 81.5688 42.8533 81.5688 42.8L81.7288 42.64C81.8354 42.0533 82.2354 41.52 82.9288 41.04C83.6221 40.56 83.9954 40.1867 84.0488 39.92C84.1021 39.8667 84.1288 39.7867 84.1288 39.68L84.4488 38.64V38.32H84.7688L85.0088 38L85.0888 37.84C84.9821 37.7867 85.0088 37.7067 85.1688 37.6C85.3821 37.44 85.4888 37.36 85.4888 37.36C85.5421 37.2533 85.5954 37.1733 85.6488 37.12C85.7554 37.0667 85.8354 37.0133 85.8888 36.96H86.4488C86.5554 36.8 86.5021 36.72 86.2888 36.72C86.0754 36.72 85.9688 36.72 85.9688 36.72C85.9688 36.6667 85.9688 36.64 85.9688 36.64C86.0221 36.5867 86.0488 36.5333 86.0488 36.48L86.9288 35.76C87.1954 35.5467 87.4621 35.36 87.7288 35.2C87.9954 35.04 88.2354 34.8533 88.4488 34.64C88.6088 34.64 88.6354 34.72 88.5288 34.88C88.5821 34.9867 88.6354 34.9867 88.6888 34.88C88.7954 34.7733 88.8488 34.72 88.8488 34.72L89.2488 34.64V34.56C89.2488 34.4533 89.2754 34.2933 89.3288 34.08C89.3821 33.8667 89.4088 33.7333 89.4088 33.68C90.5288 32.8267 91.7021 32.08 92.9288 31.44C94.1554 30.7467 95.3554 30.4 96.5288 30.4C97.9154 30.4 99.1688 30.9333 100.289 32L100.689 32.24C100.742 32.24 100.769 32.2133 100.769 32.16C100.875 31.4133 101.489 30.8533 102.609 30.48C103.782 30.1067 104.822 29.92 105.729 29.92C106.689 29.92 107.169 30.0533 107.169 30.32C107.169 30.4267 107.009 30.6133 106.689 30.88C106.529 30.9867 106.262 31.2267 105.889 31.6C105.515 31.9733 105.142 32.4267 104.769 32.96C104.715 33.12 104.635 33.28 104.529 33.44C104.422 33.6 104.315 33.76 104.209 33.92C104.155 34.0267 104.075 34.16 103.969 34.32C103.915 34.4267 103.835 34.5333 103.729 34.64C102.822 36.1867 102.102 37.4933 101.569 38.56C101.035 39.6267 100.395 40.9867 99.6488 42.64C99.5421 42.96 99.4888 43.1467 99.4888 43.2C99.4888 43.6267 99.7288 43.84 100.209 43.84C100.529 43.84 100.849 43.76 101.169 43.6L101.969 43.28C103.249 42.1067 104.582 41.12 105.969 40.32C106.022 40.32 106.049 40.32 106.049 40.32C106.102 40.2667 106.155 40.24 106.209 40.24C106.369 40.24 106.475 40.3467 106.529 40.56C106.582 40.72 106.529 40.8533 106.369 40.96C104.822 41.8133 103.382 42.9067 102.049 44.24C101.995 44.3467 101.942 44.4533 101.889 44.56C101.835 44.6667 101.755 44.7733 101.649 44.88C101.489 44.9867 101.329 45.1733 101.169 45.44C101.009 45.7067 100.929 45.8667 100.929 45.92C100.875 46.08 100.795 46.1333 100.689 46.08C100.635 46.0267 100.475 46.1067 100.209 46.32C100.155 46.3733 100.102 46.48 100.049 46.64C100.049 46.8 100.022 46.9333 99.9688 47.04C99.8621 47.2 99.7554 47.3333 99.6488 47.44C99.5421 47.4933 99.4888 47.5467 99.4888 47.6C99.4354 47.8133 99.3288 47.9467 99.1688 48C99.0621 48 98.9554 48.0533 98.8488 48.16C98.7954 48.16 98.7688 48.1867 98.7688 48.24C98.7688 48.72 98.7154 48.9333 98.6088 48.88C98.5021 48.8267 98.3954 48.88 98.2888 49.04C98.1821 49.2533 98.0488 49.36 97.8888 49.36C97.5688 49.4667 97.4354 49.5467 97.4888 49.6C97.5954 49.6533 97.6754 49.7067 97.7288 49.76C97.8354 49.76 97.7554 49.84 97.4888 50C97.3821 50.0533 97.2754 50.2133 97.1688 50.48C97.0621 50.6933 96.9554 50.8533 96.8488 50.96C96.6888 51.0667 96.5288 51.1467 96.3688 51.2C96.2088 51.2533 96.0754 51.36 95.9688 51.52C95.4888 52 95.0888 52.24 94.7688 52.24ZM121.925 51.92C121.125 51.92 120.538 51.5733 120.165 50.88C120.112 50.72 119.978 50.48 119.765 50.16C119.605 49.84 119.472 49.5733 119.365 49.36V49.28C119.365 49.1733 119.392 49.0667 119.445 48.96C119.498 48.8533 119.525 48.7467 119.525 48.64C119.525 48.4267 119.472 48.24 119.365 48.08C119.258 47.8667 119.205 47.6533 119.205 47.44C119.205 46.6933 119.418 45.8133 119.845 44.8C120.325 43.7867 120.698 42.9067 120.965 42.16C121.072 41.7333 121.338 41.2267 121.765 40.64C121.818 40.5867 121.872 40.56 121.925 40.56C122.032 40.56 122.112 40.5333 122.165 40.48C122.272 40.32 122.325 40.16 122.325 40C122.378 39.7867 122.432 39.6 122.485 39.44C122.538 39.3333 122.645 39.28 122.805 39.28C122.965 39.28 123.072 39.2267 123.125 39.12C123.178 39.0133 123.098 38.96 122.885 38.96C122.672 38.96 122.592 38.9067 122.645 38.8C123.018 38.1067 123.418 37.3867 123.845 36.64C124.325 35.8933 124.645 35.4133 124.805 35.2C124.752 35.2533 124.725 35.2 124.725 35.04C124.725 34.8267 124.672 34.7467 124.565 34.8C124.512 34.8533 124.378 34.9867 124.165 35.2C123.952 35.4133 123.792 35.5733 123.685 35.68C123.418 35.8933 123.098 36.1867 122.725 36.56C122.352 36.9333 122.112 37.1733 122.005 37.28C121.845 37.3333 121.632 37.5733 121.365 38C121.098 38.3733 120.912 38.6133 120.805 38.72C120.592 38.9333 120.378 39.04 120.165 39.04C120.058 39.04 119.978 38.9867 119.925 38.88C119.925 38.72 119.978 38.56 120.085 38.4C120.192 38.2933 120.298 38.16 120.405 38C120.512 37.7867 120.592 37.6267 120.645 37.52C120.698 37.4667 120.778 37.3867 120.885 37.28C120.992 37.12 121.045 37.0133 121.045 36.96L121.685 36.24C121.738 36.1867 121.845 36.1867 122.005 36.24C122.165 36.24 122.272 36.2133 122.325 36.16C122.378 36.0533 122.298 36 122.085 36C121.925 35.9467 121.872 35.8933 121.925 35.84C122.405 34.9867 123.018 34.16 123.765 33.36C124.512 32.56 125.018 32 125.285 31.68C125.552 31.36 125.898 31.12 126.325 30.96C126.805 30.7467 127.258 30.64 127.685 30.64C128.058 30.64 128.325 30.6667 128.485 30.72C128.805 30.8267 129.178 30.9867 129.605 31.2C130.085 31.36 130.378 31.6 130.485 31.92C130.645 32.24 130.538 32.7467 130.165 33.44C129.792 34.1333 129.338 34.8267 128.805 35.52C128.325 36.16 127.925 36.5867 127.605 36.8C127.552 36.8533 127.418 36.88 127.205 36.88C126.992 36.88 126.725 36.88 126.405 36.88C126.085 36.8267 125.898 36.8533 125.845 36.96C125.685 37.1733 125.498 37.3867 125.285 37.6C125.072 37.76 124.912 37.9733 124.805 38.24C124.752 38.56 124.672 38.8267 124.565 39.04C124.512 39.2533 124.352 39.5733 124.085 40C124.032 40.1067 123.925 40.2933 123.765 40.56C123.605 40.7733 123.498 40.9333 123.445 41.04C123.072 42.2133 122.725 43.3333 122.405 44.4C122.138 45.4133 122.005 46.2667 122.005 46.96C122.005 47.6533 122.218 48.2667 122.645 48.8C123.072 49.28 123.632 49.52 124.325 49.52C125.125 49.52 125.978 49.2533 126.885 48.72C127.418 48.5067 128.005 48.1067 128.645 47.52C128.752 47.4133 128.832 47.3333 128.885 47.28C128.992 47.1733 129.098 47.0933 129.205 47.04H129.445C129.712 47.04 129.845 47.1467 129.845 47.36C129.845 47.5733 129.658 47.84 129.285 48.16C129.072 48.32 128.858 48.4533 128.645 48.56C128.485 48.6667 128.298 48.8 128.085 48.96C127.818 49.12 127.525 49.3867 127.205 49.76C126.885 50.08 126.512 50.24 126.085 50.24H126.005C125.845 50.24 125.712 50.2133 125.605 50.16C125.498 50.0533 125.392 50.0267 125.285 50.08C125.125 50.1333 125.125 50.24 125.285 50.4C125.498 50.5067 125.525 50.6133 125.365 50.72L124.725 51.04C123.552 51.6267 122.618 51.92 121.925 51.92ZM108.965 51.44C108.645 51.44 108.245 51.0933 107.765 50.4C107.445 49.9733 107.285 49.3067 107.285 48.4C107.285 47.4933 107.445 46.5067 107.765 45.44C108.138 44.3733 108.592 43.44 109.125 42.64C109.712 41.4667 110.112 40.5867 110.325 40C110.538 39.4133 110.752 38.9333 110.965 38.56C110.965 38.5067 110.912 38.4533 110.805 38.4C110.698 38.3467 110.645 38.24 110.645 38.08C110.325 37.8667 109.978 37.5733 109.605 37.2C109.285 36.7733 109.258 36.3733 109.525 36C109.632 35.8933 109.712 35.84 109.765 35.84C109.818 35.7867 109.845 35.76 109.845 35.76V35.6C109.845 35.3867 109.925 35.2533 110.085 35.2C110.298 35.1467 110.405 35.0667 110.405 34.96C110.512 34.2133 111.125 33.6533 112.245 33.28C113.418 32.9067 114.458 32.72 115.365 32.72C116.378 32.72 116.885 32.88 116.885 33.2C116.885 33.36 116.698 33.5467 116.325 33.76C116.165 33.8133 115.898 34.0267 115.525 34.4C115.152 34.7733 114.805 35.2267 114.485 35.76L113.925 36.72L113.365 37.44C113.045 38.0267 112.698 38.64 112.325 39.28C112.005 39.8667 111.472 40.9867 110.725 42.64C110.512 43.1733 110.325 43.68 110.165 44.16C110.058 44.64 110.058 45.0133 110.165 45.28C110.218 45.3333 110.032 45.52 109.605 45.84C109.232 46.16 109.072 46.3467 109.125 46.4C109.178 46.4 109.258 46.4267 109.365 46.48C109.472 46.48 109.605 46.48 109.765 46.48C110.085 46.48 110.405 46.4267 110.725 46.32C110.885 46.2667 111.018 46.16 111.125 46C111.232 45.7867 111.312 45.68 111.365 45.68C111.685 45.68 112.032 45.6 112.405 45.44C112.992 45.1733 113.712 44.64 114.565 43.84C114.672 43.7333 114.885 43.6533 115.205 43.6C115.525 43.4933 115.792 43.3067 116.005 43.04C116.645 42.4533 117.018 42.1067 117.125 42C117.232 41.84 117.552 41.4933 118.085 40.96C118.085 40.9067 118.192 40.6667 118.405 40.24C118.618 39.76 118.725 39.4933 118.725 39.44C118.832 39.1733 118.938 39.04 119.045 39.04C119.258 39.04 119.418 39.2267 119.525 39.6C119.685 39.9733 119.685 40.2933 119.525 40.56C119.472 40.6133 119.338 40.72 119.125 40.88C118.965 41.04 118.832 41.1733 118.725 41.28L117.685 42.32L115.525 44.24C115.472 44.2933 115.418 44.3733 115.365 44.48C115.312 44.5867 115.232 44.6933 115.125 44.8L114.405 45.92C114.352 46.0267 114.245 46.0267 114.085 45.92C113.925 45.76 113.712 45.7867 113.445 46C113.392 46.0533 113.338 46.16 113.285 46.32C113.285 46.48 113.258 46.6133 113.205 46.72C113.152 46.88 113.152 46.9867 113.205 47.04C113.258 47.04 113.285 47.0667 113.285 47.12C113.232 47.28 113.125 47.3867 112.965 47.44C112.858 47.4933 112.752 47.5733 112.645 47.68C112.592 47.7333 112.592 47.8133 112.645 47.92C112.698 48.0267 112.672 48.1333 112.565 48.24C112.512 48.4 112.458 48.4533 112.405 48.4C112.352 48.3467 112.272 48.3733 112.165 48.48C112.112 48.5333 112.032 48.6133 111.925 48.72C111.872 48.7733 111.792 48.8267 111.685 48.88C111.258 49.04 111.018 49.2533 110.965 49.52C110.912 49.7867 110.725 50.08 110.405 50.4C109.712 51.0933 109.232 51.44 108.965 51.44ZM134.032 52.24C133.712 52.24 133.552 52.0533 133.552 51.68C133.552 51.4133 133.632 51.0933 133.792 50.72C134.219 49.8133 134.699 48.5333 135.232 46.88C135.819 45.2267 136.539 43.8133 137.392 42.64L141.392 34.4C141.072 34.4 140.752 34.48 140.432 34.64C140.165 34.8 140.032 34.9333 140.032 35.04C140.032 35.2533 139.739 35.4667 139.152 35.68C138.565 35.8933 138.245 36.0267 138.192 36.08C137.392 36.2933 136.645 36.5333 135.952 36.8C135.419 37.3867 134.885 37.9733 134.352 38.56C133.872 39.1467 133.419 39.7333 132.992 40.32C132.939 40.3733 132.885 40.4 132.832 40.4C132.352 40.9333 131.952 41.3333 131.632 41.6C131.312 41.8667 130.965 42.1067 130.592 42.32C130.379 42.48 130.165 42.5333 129.952 42.48C129.685 42.3733 129.659 42.2667 129.872 42.16C130.139 42.0533 130.565 41.68 131.152 41.04C131.739 40.4 132.192 39.92 132.512 39.6C132.779 39.44 132.859 39.44 132.752 39.6C132.699 39.76 132.779 39.7333 132.992 39.52L134.992 36.96L135.072 36.88C134.805 36.72 134.672 36.2933 134.672 35.6C134.672 35.0667 134.779 34.64 134.992 34.32C134.992 34.2667 135.045 34.24 135.152 34.24L136.832 33.76C136.992 33.76 137.099 33.7333 137.152 33.68C137.259 33.5733 137.365 33.44 137.472 33.28C137.632 33.0667 137.819 32.8 138.032 32.48L138.992 31.2L139.632 30.32C139.632 30.16 139.739 29.9733 139.952 29.76C140.219 29.4933 140.432 29.3067 140.592 29.2C140.805 28.88 140.939 28.64 140.992 28.48C141.099 28.2667 141.259 28 141.472 27.68C141.472 27.6267 141.552 27.6 141.712 27.6C141.872 27.5467 141.952 27.4933 141.952 27.44C142.005 26.9067 142.085 26.6667 142.192 26.72C142.352 26.72 142.432 26.64 142.432 26.48C142.432 26.32 142.539 26.1867 142.752 26.08L143.152 25.6C143.152 25.5467 143.232 25.44 143.392 25.28V25.2C143.392 25.0933 143.392 24.96 143.392 24.8C143.392 24.64 143.445 24.48 143.552 24.32C143.659 24.2133 143.739 24.16 143.792 24.16C143.845 24.16 143.872 24.16 143.872 24.16C143.872 24.1067 143.845 24.08 143.792 24.08C143.792 24.0267 143.792 24 143.792 24C143.792 23.7867 143.899 23.6533 144.112 23.6C144.325 23.5467 144.432 23.4667 144.432 23.36C144.539 22.6133 145.179 22.0533 146.352 21.68C147.525 21.3067 148.565 21.12 149.472 21.12C150.379 21.12 150.832 21.2533 150.832 21.52C150.832 21.6267 150.672 21.8133 150.352 22.08C150.192 22.1333 149.925 22.3733 149.552 22.8C149.179 23.1733 148.832 23.6267 148.512 24.16L147.872 25.12C147.819 25.2267 147.739 25.36 147.632 25.52C147.579 25.6267 147.499 25.7333 147.392 25.84C147.019 26.48 146.512 27.3867 145.872 28.56C145.285 29.68 144.645 30.9333 143.952 32.32L146.032 32.08C146.192 32.08 146.245 32.1067 146.192 32.16C146.192 32.2133 146.272 32.2133 146.432 32.16C146.699 32.16 146.885 32.1333 146.992 32.08C147.099 31.9733 147.285 31.8933 147.552 31.84C147.979 31.7867 148.459 31.76 148.992 31.76C149.579 31.7067 150.032 31.68 150.352 31.68C150.565 31.68 150.832 31.68 151.152 31.68C151.472 31.68 151.712 31.7067 151.872 31.76C151.979 31.76 152.005 31.8133 151.952 31.92C151.952 31.9733 151.979 32 152.032 32C152.139 32 152.219 31.9733 152.272 31.92C152.379 31.8667 152.485 31.84 152.592 31.84C152.645 31.7867 152.725 31.7867 152.832 31.84C152.992 31.84 153.099 31.84 153.152 31.84L153.952 32.08C154.272 32.1333 154.432 32.32 154.432 32.64C154.485 32.96 154.352 33.0667 154.032 32.96C153.819 32.8533 153.632 32.8 153.472 32.8H151.472C151.099 32.8 150.752 32.8 150.432 32.8C150.112 32.8 149.792 32.8267 149.472 32.88C149.365 32.9333 149.312 32.88 149.312 32.72C149.365 32.56 149.339 32.48 149.232 32.48C149.179 32.48 149.099 32.56 148.992 32.72C148.885 32.8267 148.805 32.88 148.752 32.88L148.352 33.12C147.499 33.3333 146.592 33.5733 145.632 33.84C144.672 34.0533 143.739 34.2933 142.832 34.56C142.032 36.2133 141.259 37.7867 140.512 39.28C139.819 40.72 139.285 41.84 138.912 42.64C138.805 42.96 138.752 43.1467 138.752 43.2C138.752 43.6267 138.992 43.84 139.472 43.84C139.792 43.84 140.112 43.76 140.432 43.6L141.232 43.28C142.512 42.1067 143.845 41.12 145.232 40.32C145.285 40.32 145.312 40.32 145.312 40.32C145.365 40.2667 145.419 40.24 145.472 40.24C145.632 40.24 145.739 40.3467 145.792 40.56C145.845 40.72 145.792 40.8533 145.632 40.96C144.085 41.8133 142.645 42.9067 141.312 44.24C141.259 44.3467 141.205 44.4533 141.152 44.56C141.099 44.6667 141.019 44.7733 140.912 44.88C140.805 44.9867 140.645 45.1733 140.432 45.44C140.272 45.7067 140.192 45.8667 140.192 45.92C140.139 46.08 140.059 46.1333 139.952 46.08C139.899 46.0267 139.739 46.1067 139.472 46.32C139.419 46.3733 139.365 46.48 139.312 46.64C139.312 46.8 139.285 46.9333 139.232 47.04C139.125 47.2 139.019 47.3333 138.912 47.44C138.805 47.4933 138.752 47.5467 138.752 47.6C138.699 47.8133 138.592 47.9467 138.432 48C138.325 48 138.219 48.0533 138.112 48.16C138.059 48.16 138.032 48.1867 138.032 48.24C138.032 48.72 137.979 48.9333 137.872 48.88C137.765 48.8267 137.685 48.88 137.632 49.04C137.419 49.2533 137.259 49.36 137.152 49.36C136.832 49.4667 136.699 49.5467 136.752 49.6C136.859 49.6533 136.939 49.7067 136.992 49.76C137.099 49.76 137.019 49.84 136.752 50C136.645 50.0533 136.539 50.2133 136.432 50.48C136.325 50.6933 136.219 50.8533 136.112 50.96C135.952 51.0667 135.792 51.1467 135.632 51.2C135.472 51.2533 135.339 51.36 135.232 51.52C134.752 52 134.352 52.24 134.032 52.24ZM138.592 33.44C138.805 33.3867 138.992 33.3333 139.152 33.28C139.365 33.2267 139.579 33.1467 139.792 33.04L142.192 32.64C142.832 31.36 143.392 30.2133 143.872 29.2C144.352 28.1333 144.699 27.36 144.912 26.88C144.912 26.88 144.859 26.8533 144.752 26.8C144.699 26.6933 144.672 26.5867 144.672 26.48C144.565 26.4267 144.432 26.3467 144.272 26.24C144.165 26.1333 144.059 26.0533 143.952 26L143.232 26.72L142.352 27.92C142.352 27.9733 142.272 28.0267 142.112 28.08C142.005 28.08 141.952 28.1067 141.952 28.16C141.952 28.32 141.872 28.48 141.712 28.64C141.605 28.8 141.499 28.8533 141.392 28.8L141.072 29.6C141.072 29.76 140.992 29.8933 140.832 30L140.272 30.72C140.272 30.7733 140.245 30.8267 140.192 30.88C140.192 30.88 140.192 30.9333 140.192 31.04C140.139 31.1467 140.059 31.28 139.952 31.44C139.845 31.6 139.712 31.76 139.552 31.92C139.499 31.92 139.472 31.9467 139.472 32C139.472 32 139.445 32 139.392 32L139.152 32.48C138.939 32.5867 138.805 32.64 138.752 32.64L138.672 32.8C138.672 33.12 138.645 33.3333 138.592 33.44ZM141.117 74.72C140.317 74.72 139.624 74.64 139.037 74.48C138.664 74.3733 138.29 74.24 137.917 74.08C137.544 73.92 137.144 73.7333 136.717 73.52L136.557 73.44C136.344 73.3333 136.104 73.1733 135.837 72.96C135.57 72.8 135.304 72.6667 135.037 72.56C134.824 72.5067 134.53 72.3467 134.157 72.08C133.89 71.8667 133.73 71.6533 133.677 71.44C133.57 71.2267 133.597 71.0933 133.757 71.04C133.81 71.04 133.89 71.0667 133.997 71.12C134.104 71.2267 134.21 71.3067 134.317 71.36C134.424 71.4133 134.557 71.4933 134.717 71.6C134.824 71.7067 134.93 71.7867 135.037 71.84C135.304 71.9467 135.544 72.0267 135.757 72.08C135.917 72.1867 136.104 72.2933 136.317 72.4C136.797 72.6133 137.144 72.7467 137.357 72.8C137.57 72.8533 137.89 72.9067 138.317 72.96L139.357 73.04C142.184 73.2533 144.557 72.72 146.477 71.44C148.344 70.16 149.917 68.8 151.197 67.36C151.357 66.9333 151.517 66.5333 151.677 66.16C151.89 65.84 152.104 65.5733 152.317 65.36C152.37 65.3067 152.424 65.3333 152.477 65.44C152.584 65.6 152.664 65.6533 152.717 65.6C152.824 65.44 152.877 65.1733 152.877 64.8C152.93 64.48 153.037 64.24 153.197 64.08C153.25 64.0267 153.304 64.08 153.357 64.24C153.464 64.4 153.544 64.4533 153.597 64.4C153.704 64.2933 153.757 64.08 153.757 63.76C153.81 63.44 153.864 63.2533 153.917 63.2C154.45 62.4533 154.93 61.76 155.357 61.12C155.784 60.48 156.264 59.7067 156.797 58.8C157.277 58.0533 157.837 57.0933 158.477 55.92C159.17 54.8 159.784 53.76 160.317 52.8C160.85 51.9467 161.25 51.04 161.517 50.08L161.757 49.2C162.024 48.1867 162.557 46.8 163.357 45.04C164.21 43.2267 165.197 41.28 166.317 39.2C167.49 37.0667 168.664 35.04 169.837 33.12C170.104 32.8 170.317 32.5333 170.477 32.32C170.637 32.1067 170.877 31.84 171.197 31.52C171.304 31.4667 171.517 31.2267 171.837 30.8C172.157 30.3733 172.477 29.9467 172.797 29.52C173.17 29.04 173.384 28.7733 173.437 28.72C174.984 27.44 176.69 26.4267 178.557 25.68C180.477 24.88 181.97 24.48 183.037 24.48C183.464 24.48 183.757 24.48 183.917 24.48C184.13 24.4267 184.397 24.4267 184.717 24.48L185.277 24.56C185.49 24.6133 185.677 24.6933 185.837 24.8C186.05 24.8533 186.264 24.9067 186.477 24.96C186.584 25.0133 186.717 25.0933 186.877 25.2C187.037 25.3067 187.17 25.3867 187.277 25.44C187.49 25.6 187.597 25.7867 187.597 26C187.597 26.16 187.544 26.2667 187.437 26.32C187.384 26.3733 187.304 26.3733 187.197 26.32C187.144 26.2133 187.064 26.16 186.957 26.16C186.85 26.16 186.744 26.1333 186.637 26.08C186.53 26.0267 186.424 25.9733 186.317 25.92C186.104 25.92 185.917 25.8933 185.757 25.84C185.597 25.7867 185.437 25.7333 185.277 25.68C185.064 25.6267 184.877 25.6 184.717 25.6C184.557 25.6 184.424 25.6 184.317 25.6C184.104 25.6 183.89 25.6267 183.677 25.68C183.624 25.68 183.464 25.7067 183.197 25.76C182.984 25.76 182.824 25.7867 182.717 25.84C180.264 26.4267 178.264 27.5467 176.717 29.2C175.17 30.8533 173.784 32.5333 172.557 34.24C172.344 34.5067 172.05 34.8533 171.677 35.28C171.357 35.6533 171.144 35.8933 171.037 36C170.984 36.1067 170.744 36.48 170.317 37.12C169.89 37.7067 169.464 38.32 169.037 38.96C168.664 39.5467 168.45 39.8667 168.397 39.92C168.344 39.9733 168.237 40 168.077 40C167.97 40 167.89 40.0267 167.837 40.08L165.917 43.92L165.117 45.44L164.077 47.52C163.544 48.5333 163.064 49.5733 162.637 50.64C162.21 51.6533 161.864 52.64 161.597 53.6C161.437 53.9733 161.357 54.4 161.357 54.88C161.357 55.36 161.224 55.6533 160.957 55.76C160.797 55.8133 160.664 55.7333 160.557 55.52C160.45 55.3067 160.397 55.4933 160.397 56.08C160.504 56.1333 160.504 56.24 160.397 56.4C160.344 56.56 160.317 56.6933 160.317 56.8C160.37 56.9067 160.397 57.0667 160.397 57.28C160.397 57.5467 160.29 57.7867 160.077 58C159.917 58.2133 159.784 58.4533 159.677 58.72C159.57 58.9333 159.437 58.9867 159.277 58.88C159.117 58.8267 158.984 58.8 158.877 58.8L158.797 58.96C158.797 59.12 158.877 59.4933 159.037 60.08C159.037 60.4 158.877 60.56 158.557 60.56H158.317C158.264 61.68 158.05 62.3467 157.677 62.56L157.117 62.96L156.957 63.28C156.637 63.92 156.397 64.2133 156.237 64.16L155.997 64.8C155.944 64.96 155.81 65.0933 155.597 65.2C155.437 65.3067 155.304 65.44 155.197 65.6C155.197 65.6533 155.17 65.68 155.117 65.68C155.117 65.68 155.117 65.7067 155.117 65.76C155.117 66.4 154.824 67.04 154.237 67.68C153.704 68.32 153.144 68.88 152.557 69.36C152.45 69.5733 152.317 69.7867 152.157 70C151.997 70.2133 151.81 70.4 151.597 70.56C151.33 70.8267 151.01 70.9867 150.637 71.04C150.317 71.0933 149.997 71.2533 149.677 71.52C149.57 71.5733 149.517 71.7067 149.517 71.92C149.57 72.1867 149.544 72.3467 149.437 72.4C148.264 73.1467 146.904 73.7067 145.357 74.08C143.81 74.5067 142.397 74.72 141.117 74.72ZM154.477 51.92C153.784 51.92 153.197 51.52 152.717 50.72C152.237 49.8667 152.104 49.2267 152.317 48.8C152.37 48.6933 152.424 48.56 152.477 48.4C152.584 48.1867 152.664 48.0533 152.717 48C152.824 47.8933 152.877 47.8667 152.877 47.92C152.93 47.92 152.984 47.8933 153.037 47.84C153.09 47.7333 153.064 47.6533 152.957 47.6C152.904 47.4933 152.904 47.4133 152.957 47.36L153.917 43.76C153.917 43.7067 153.944 43.6533 153.997 43.6C154.05 43.5467 154.077 43.4933 154.077 43.44L154.237 42C154.237 41.9467 154.29 41.9467 154.397 42C154.504 42 154.584 41.9733 154.637 41.92C154.744 41.6533 154.717 41.52 154.557 41.52C154.397 41.52 154.317 41.4933 154.317 41.44C154.37 41.0133 154.45 40.72 154.557 40.56C154.664 40.4 154.744 40.1333 154.797 39.76L155.037 38.4C155.037 38.4533 155.064 38.6667 155.117 39.04C155.17 39.36 155.304 39.52 155.517 39.52C155.784 39.52 155.864 39.4667 155.757 39.36C155.65 39.2533 155.57 39.12 155.517 38.96C155.464 38.6933 155.517 38.48 155.677 38.32C155.73 38.2667 155.837 38.3733 155.997 38.64C156.157 38.8533 156.237 38.96 156.237 38.96C156.29 38.8533 156.317 38.72 156.317 38.56C156.317 38.4 156.264 38.2933 156.157 38.24C155.944 38.08 155.704 37.9733 155.437 37.92C155.224 37.8133 155.117 37.7067 155.117 37.6C155.117 37.44 155.144 37.28 155.197 37.12C155.197 37.0667 155.224 37.0133 155.277 36.96C155.33 36.9067 155.357 36.8533 155.357 36.8C155.357 36.6933 155.304 36.64 155.197 36.64C155.144 36.64 155.117 36.6133 155.117 36.56V35.76C155.117 35.6 155.117 35.44 155.117 35.28C155.117 35.0667 155.064 34.8533 154.957 34.64C154.797 34.2667 154.557 33.9467 154.237 33.68C153.917 33.4133 153.517 33.28 153.037 33.28H152.957L152.797 33.44H152.637C152.264 33.7067 151.837 33.9733 151.357 34.24C150.93 34.4533 150.557 34.6133 150.237 34.72L150.077 34.8C150.024 34.8533 149.944 34.88 149.837 34.88C149.624 34.88 149.464 34.7733 149.357 34.56C149.304 34.3467 149.384 34.2133 149.597 34.16C150.024 33.8933 150.477 33.68 150.957 33.52C151.437 33.36 151.864 33.12 152.237 32.8C152.344 32.5333 152.61 32.32 153.037 32.16C153.144 32.0533 153.224 32.0267 153.277 32.08C153.33 32.1333 153.384 32.16 153.437 32.16C153.704 32.16 153.864 32.08 153.917 31.92C154.024 31.7067 154.104 31.6533 154.157 31.76H154.957C156.13 31.76 157.037 32.24 157.677 33.2C158.317 34.1067 158.61 35.3333 158.557 36.88C158.557 36.9333 158.477 37.0133 158.317 37.12C158.21 37.1733 158.157 37.2533 158.157 37.36C158.157 37.4133 158.21 37.44 158.317 37.44C158.477 37.3867 158.557 37.4133 158.557 37.52V37.84C158.557 38.32 158.53 38.5867 158.477 38.64C158.37 39.8133 158.104 41.04 157.677 42.32C157.304 43.5467 156.904 44.7467 156.477 45.92C156.317 45.92 156.21 46 156.157 46.16C156.104 46.32 156.024 46.4 155.917 46.4C155.757 46.4 155.597 46.3467 155.437 46.24C155.33 46.08 155.277 46.08 155.277 46.24C155.277 46.4533 155.384 46.6133 155.597 46.72C155.81 46.7733 155.944 46.8267 155.997 46.88C156.05 46.9333 156.157 46.96 156.317 46.96C156.477 46.96 156.637 46.9067 156.797 46.8C156.957 46.6933 157.117 46.5867 157.277 46.48C157.544 46.2667 157.89 45.9733 158.317 45.6C158.797 45.1733 159.224 44.8 159.597 44.48C159.97 44.1067 160.157 43.92 160.157 43.92C160.05 43.8133 160.13 43.7067 160.397 43.6L160.797 43.12C160.85 42.8533 161.01 42.56 161.277 42.24C161.544 41.92 161.784 41.7333 161.997 41.68L162.157 41.36C162.21 41.36 162.264 41.3867 162.317 41.44C162.37 41.44 162.424 41.4133 162.477 41.36C162.53 41.36 162.53 41.3067 162.477 41.2C162.477 41.0933 162.504 41.04 162.557 41.04L162.957 40.48C163.064 40.16 163.17 39.9733 163.277 39.92C163.224 39.76 163.277 39.6533 163.437 39.6C163.544 39.6 163.65 39.6267 163.757 39.68C163.917 39.68 163.997 39.5733 163.997 39.36C163.997 39.2533 164.024 39.12 164.077 38.96C164.13 38.7467 164.264 38.6667 164.477 38.72L164.557 38.56C164.557 38.5067 164.664 38.4267 164.877 38.32C165.09 38.16 165.224 38.0533 165.277 38L165.677 37.44C165.837 37.1733 165.997 37.04 166.157 37.04C166.317 36.9867 166.424 36.96 166.477 36.96C166.53 36.96 166.557 37.0133 166.557 37.12C166.557 37.4933 166.37 37.8667 165.997 38.24L165.357 38.96C165.304 39.0133 165.25 39.04 165.197 39.04C165.144 39.04 165.09 39.0933 165.037 39.2C164.984 39.2533 164.93 39.3333 164.877 39.44C164.824 39.5467 164.77 39.6533 164.717 39.76L164.077 40.48L159.757 45.6C159.277 46.1333 158.957 46.48 158.797 46.64C158.69 46.8 158.53 47.04 158.317 47.36C158.264 47.4133 158.184 47.4133 158.077 47.36C157.97 47.3067 157.864 47.3333 157.757 47.44L157.677 47.92L157.277 48.32C157.224 48.3733 157.25 48.4 157.357 48.4C157.517 48.4 157.57 48.4267 157.517 48.48L156.397 50.4C155.81 51.4133 155.17 51.92 154.477 51.92Z" fill="#8C1C13"/>
</g>
<path d="M77.8874 63.9103C78.1297 64.1766 78.1032 64.4591 77.808 64.7578C77.5971 64.9712 77.2835 65.1606 76.8671 65.3262C75.8271 65.6966 74.4515 66.3214 72.7403 67.2005C70.9887 68.0352 69.3259 68.567 67.752 68.7957C67.0862 69.0432 66.214 69.2865 65.1354 69.5254C63.9743 69.7627 62.7068 70.1502 61.333 70.6879L61.0167 71.008C60.8902 71.136 60.7847 71.2427 60.7004 71.328C60.5335 71.4117 60.3666 71.4953 60.1997 71.579C59.7007 71.7428 59.3275 71.8222 59.0798 71.8171C58.7918 71.7676 58.3983 71.8248 57.8994 71.9886C57.815 72.074 57.7307 72.1593 57.6463 72.2447C57.5216 72.2857 57.3969 72.3266 57.2721 72.3676C57.4372 72.371 57.3942 72.4572 57.1429 72.6262C57.2237 72.715 56.932 72.8396 56.268 73C55.7269 73.2066 55.3949 73.2868 55.272 73.2407L55.2114 73.1742C54.7969 73.2527 54.4447 73.3107 54.1548 73.3483C53.8228 73.4285 53.6559 73.5121 53.6541 73.5992L53.5276 73.7272C53.2324 74.0259 52.8775 74.2146 52.4629 74.2931C52.008 74.3272 51.5521 74.4049 51.0954 74.5261C50.8055 74.5637 50.6203 74.538 50.5395 74.4493C50.4588 74.3605 50.4395 74.2948 50.4816 74.2521C50.4413 74.2077 50.4009 74.1634 50.3605 74.119C50.2394 73.9858 50.0734 74.0259 49.8625 74.2393C49.7781 74.3247 49.6929 74.4535 49.6067 74.626C49.4802 74.754 49.3528 74.9255 49.2245 75.1406C48.9732 75.3096 48.643 75.3028 48.2338 75.1201L47.9889 74.9844C46.9013 75.6587 46.0686 75.9898 45.4907 75.9779C45.3256 75.9745 45.1605 75.9711 44.9954 75.9677C44.8303 75.9642 44.6652 75.9608 44.5001 75.9574C43.4673 75.9796 42.5134 76.1776 41.6385 76.5514C41.3891 76.6334 41.1616 76.6505 40.9561 76.6027C40.6681 76.5532 40.3792 76.5472 40.0893 76.5847C39.882 76.624 39.7353 76.7298 39.6492 76.9022C39.4805 77.0729 39.3127 77.2001 39.1458 77.2837C38.6065 77.4032 38.2754 77.4399 38.1524 77.3938C38.0295 77.3478 37.9066 77.3017 37.7836 77.2556C37.5782 77.2078 37.1865 77.1779 36.6086 77.166C36.2766 77.2462 35.9446 77.3264 35.6126 77.4066C35.2402 77.4425 34.8678 77.4783 34.4954 77.5142C33.958 77.5466 33.4846 77.4715 33.0755 77.2889C32.6663 77.1062 32.1939 76.9876 31.6582 76.9329C31.4931 76.9295 31.3262 77.0132 31.1575 77.1839C30.9466 77.3973 30.7586 77.5022 30.5935 77.4988C27.9994 77.1403 25.4942 76.4789 23.0778 75.5144C20.621 74.5056 18.9485 73.5129 18.0602 72.5365C17.7372 72.1815 17.4555 71.8273 17.215 71.4739C16.9342 71.0762 16.6946 70.6793 16.4964 70.2833L16.3752 70.1501C16.1734 69.9282 16.0137 69.6636 15.8961 69.3564C15.7786 69.0491 15.6813 68.764 15.6041 68.5012C15.4426 68.3236 15.2829 68.0591 15.125 67.7074C15.0075 67.4001 15.0129 67.139 15.1412 66.9239C15.2695 66.7088 15.4364 66.6252 15.6419 66.673C15.7245 66.6747 15.785 66.7412 15.8236 66.8727C15.8622 67.0041 15.9218 67.1142 16.0026 67.203C16.0833 67.2918 16.1219 67.4232 16.1183 67.5973C16.1147 67.7714 16.1322 67.9242 16.1708 68.0556C16.3323 68.2332 16.5351 68.4116 16.7791 68.5908C16.9828 68.7256 17.1856 68.904 17.3875 69.1259L17.5692 69.3257C17.8518 69.6363 18.0115 69.9009 18.0483 70.1194C18.0025 70.3362 18.1833 70.5795 18.5906 70.8492C18.631 70.8935 18.7732 71.0053 19.0173 71.1846C19.2613 71.3638 19.4238 71.4978 19.5045 71.5866C21.3376 72.8003 23.2421 73.5582 25.218 73.8603C27.1516 74.2051 29.0696 74.3101 30.9719 74.1753C32.8339 73.996 34.6334 73.8373 36.3706 73.699C37.4932 73.3303 38.4681 73.111 39.2954 73.041C39.378 73.0427 39.3973 73.1084 39.3533 73.2381C39.3093 73.3679 39.3497 73.4123 39.4744 73.3713C39.7221 73.3764 40.0339 73.274 40.4099 73.064C40.7033 72.8524 40.995 72.7278 41.2848 72.6902C41.3673 72.6919 41.3866 72.7576 41.3427 72.8874C41.2987 73.0171 41.3592 73.0837 41.5243 73.0871C41.6069 73.0888 41.8362 72.9847 42.2121 72.7747C42.5056 72.563 42.7349 72.4589 42.9 72.4623C44.0593 72.3121 45.2379 72.2276 46.4358 72.2088C47.6337 72.1901 48.9371 72.0646 50.3459 71.8324C52.4608 71.3972 54.5144 70.9388 56.5064 70.4575C58.4985 69.9761 60.6574 69.4111 62.9833 68.7624C63.772 68.561 64.458 68.3357 65.0413 68.0864C65.542 67.8355 66.0418 67.6281 66.5408 67.4642C66.748 67.425 66.9571 67.2987 67.168 67.0853C67.4632 66.7866 67.4493 66.4597 67.1263 66.1046C66.8841 65.8383 66.5786 65.636 66.2098 65.4978L65.3511 65.0881C63.4542 64.9618 61.6645 64.6417 59.9821 64.1279C59.9417 64.0835 59.9215 64.0613 59.9215 64.0613C59.839 64.0596 59.7775 64.0366 59.7371 63.9922C59.616 63.859 59.6196 63.6849 59.7479 63.4698C59.8341 63.2974 59.9799 63.2351 60.1854 63.2829C62.0311 63.8872 63.9859 64.2107 66.0497 64.2534C66.1744 64.2124 66.2991 64.1714 66.4239 64.1304C66.5486 64.0895 66.6935 64.0707 66.8586 64.0741C67.0237 64.0775 67.2925 64.0613 67.6649 64.0255C67.9969 63.9452 68.184 63.8838 68.2261 63.8411C68.393 63.7575 68.4958 63.7814 68.5344 63.9128C68.5326 63.9999 68.7169 64.069 69.0875 64.1202C69.1701 64.1219 69.2948 64.0809 69.4617 63.9973C69.5882 63.8693 69.7139 63.7848 69.8386 63.7438C70.0055 63.6602 70.1917 63.6423 70.3972 63.69C70.5201 63.7361 70.6027 63.7378 70.6448 63.6952C70.8539 63.5689 71.0401 63.5509 71.2034 63.6414C71.2842 63.7302 71.4071 63.7763 71.5722 63.7797C71.6548 63.7814 71.718 63.7174 71.762 63.5876C71.806 63.4579 71.9105 63.3947 72.0756 63.3982C72.2425 63.3145 72.3462 63.2949 72.3865 63.3393C72.3847 63.4263 72.4664 63.4716 72.6315 63.475C72.9617 63.4818 73.1672 63.5296 73.2479 63.6184C73.5745 63.7993 73.7387 63.8462 73.7405 63.7592C73.702 63.6277 73.6836 63.5185 73.6854 63.4314C73.6046 63.3427 73.7285 63.3452 74.0569 63.4391C74.1798 63.4852 74.3871 63.446 74.6787 63.3213C74.9282 63.2394 75.1354 63.2001 75.3005 63.2036C75.506 63.2514 75.6904 63.3205 75.8537 63.411C75.9767 63.457 76.1619 63.4827 76.4096 63.4878C77.1526 63.5031 77.6452 63.644 77.8874 63.9103Z" fill="black"/>
<g filter="url(#filter1_d_120_484)">
<path d="M108.081 90.9011C108.034 90.9018 108.01 90.8321 108.008 90.6921C108.005 90.5055 108.073 90.3644 108.212 90.269C108.398 90.2195 108.489 90.0314 108.484 89.7048L108.48 89.4248C108.479 89.2848 108.453 89.1219 108.404 88.9359C108.401 88.7493 108.399 88.5626 108.396 88.376C107.772 87.0787 106.968 86.2975 105.984 86.0324C104.999 85.7207 103.901 85.6207 102.689 85.7325C100.964 85.8521 99.239 85.9717 97.5138 86.0913C95.8353 86.2102 94.1095 86.2832 92.3364 86.3101L89.6767 86.3506C88.0902 86.3748 86.504 86.4223 84.9182 86.4931C83.379 86.5632 81.9341 86.7018 80.5835 86.9091C79.5588 87.0647 78.5109 87.2207 77.4396 87.377C76.3676 87.4866 75.2951 87.5496 74.2219 87.566C73.5334 88.4165 72.9585 89.032 72.497 89.4124C72.0361 89.8395 71.3902 90.3861 70.5592 91.0521C70.5132 91.0995 70.4202 91.1242 70.2802 91.1264C70.1869 91.1278 70.1163 91.0822 70.0683 90.9896C69.9737 90.8977 69.9718 90.7577 70.0626 90.5696C70.4288 90.0507 70.8651 89.5306 71.3714 89.0095C71.9249 88.5344 72.5018 88.0589 73.102 87.583C72.6347 87.5435 72.1902 87.4569 71.7683 87.3233C71.3925 87.1423 71.2256 86.8882 71.2678 86.5608C71.3516 85.8595 71.6482 85.3649 72.1576 85.0771C72.7131 84.7419 73.3168 84.5227 73.9688 84.4195C74.6208 84.3162 75.2031 84.2373 75.7157 84.1829C77.1437 82.8076 78.6187 81.455 80.1406 80.125C81.6619 78.7484 83.2072 77.4181 84.7764 76.134L88.5138 72.9968C89.0693 72.6616 89.6005 72.2568 90.1074 71.7824C90.3381 71.5922 90.5449 71.3557 90.7277 71.0729C90.9565 70.7427 91.093 70.4839 91.1371 70.2966L91.4823 69.9413C91.6216 69.8925 91.854 69.8189 92.1793 69.7206C92.504 69.5757 92.7358 69.4555 92.8745 69.36C93.0093 68.9846 93.1912 68.6318 93.42 68.3016C93.6949 67.924 94.0423 67.7321 94.4622 67.7257C94.6022 67.7235 94.7662 67.7677 94.9541 67.8582L94.9484 67.4382L95.0864 67.2961L95.7144 67.1465L95.5773 67.3586L96.2044 67.1391L96.4767 66.5749C96.9401 66.3345 97.5643 65.9049 98.3492 65.2862C99.1802 64.6202 99.7564 64.098 100.078 63.7197C101.052 63.2849 101.931 62.7347 102.716 62.0694C103.176 61.6423 103.636 61.122 104.094 60.5082C104.599 59.8938 105.154 59.5353 105.76 59.4328L107.557 57.7252C107.182 57.6376 106.668 57.5987 106.015 57.6087C105.361 57.572 104.684 57.5589 103.984 57.5696L101.184 57.6122C100.905 57.6165 100.624 57.5974 100.344 57.555C100.063 57.5126 99.7827 57.4935 99.5028 57.4978C98.7095 57.5098 97.8939 57.5923 97.0559 57.745C96.2639 57.8504 95.4487 57.9562 94.61 58.0623C94.284 58.1139 93.9344 58.1426 93.5611 58.1483C93.2345 58.1532 92.8845 58.1586 92.5112 58.1643C91.252 58.2301 90.4604 58.3588 90.1363 58.5504C89.8122 58.7421 89.6048 58.9319 89.514 59.12C89.4699 59.3073 89.2155 59.4746 88.7508 59.6217C87.7275 59.8706 86.8473 60.3507 86.1103 61.062C85.3733 61.7733 84.7306 62.5532 84.1821 63.4016C83.6797 64.2027 83.2463 64.9327 82.882 65.5917C82.5636 66.2032 82.2651 66.5578 81.9864 66.6554C81.9404 66.7028 81.8941 66.7268 81.8474 66.7275C81.6141 66.7311 81.4955 66.5929 81.4917 66.3129C81.5358 66.1255 81.6275 66.0075 81.7669 65.9587C81.9529 65.9092 82.0919 65.837 82.184 65.7423C82.5924 64.896 82.9338 64.2607 83.208 63.8365C83.5289 63.4116 83.9875 62.8212 84.5839 62.0654L84.6539 62.0643C84.7434 61.7829 84.9239 61.3368 85.1956 60.7259C85.4666 60.0684 85.6942 59.6448 85.8783 59.4554C86.1972 58.8904 86.4948 58.4659 86.7709 58.1816C87.0931 57.85 87.3667 57.3791 87.5917 56.769C87.6824 56.5809 87.7499 56.3932 87.794 56.2058C87.8841 55.9711 87.9746 55.7597 88.0653 55.5716C88.1555 55.3369 88.2939 55.2181 88.4805 55.2153C88.6671 55.2124 88.7617 55.3043 88.7643 55.491C88.7681 55.7709 88.7253 56.0516 88.6358 56.333C88.593 56.6137 88.5265 56.8714 88.4364 57.1062C89.6445 56.7144 91.0408 56.4364 92.6254 56.2723C94.2093 56.0615 95.8178 55.9437 97.451 55.9188C99.0835 55.8473 100.506 55.8023 101.72 55.7838C102.233 55.776 102.723 55.7919 103.19 55.8315C103.704 55.8703 104.195 55.9328 104.663 56.0191L105.775 55.4421C106.009 55.4385 106.219 55.4587 106.406 55.5025C106.64 55.5456 106.874 55.5887 107.108 55.6318C107.295 55.629 107.645 55.647 108.159 55.6858C108.673 55.7247 109.164 55.7872 109.631 55.8734C110.099 55.913 110.334 56.0261 110.336 56.2128C110.751 55.8331 111.304 55.3346 111.996 54.7173C112.687 54.0534 113.264 53.6246 113.728 53.4308L114.913 52.9927C115.098 52.8966 115.353 52.7527 115.677 52.5611C116 52.3228 116.255 52.2022 116.442 52.1994C116.768 52.1944 116.91 52.2856 116.866 52.473C116.869 52.7063 116.638 52.9198 116.174 53.1135C115.757 53.3066 115.432 53.4515 115.2 53.5484C115.015 53.6913 114.784 53.8581 114.507 54.049C114.276 54.1926 114.068 54.3591 113.884 54.5486C113.746 54.7374 113.354 55.07 112.707 55.5466C112.107 56.0224 111.692 56.3788 111.462 56.6157C111 56.9961 110.701 57.2807 110.563 57.4694C110.426 57.6582 110.312 57.87 110.222 58.1047C110.178 58.2921 110.019 58.5979 109.745 59.0221C109.47 59.4463 109.24 59.6598 109.053 59.6627C108.913 59.6648 108.659 59.8087 108.289 60.0944C108.196 60.1424 107.943 60.3797 107.529 60.806C107.161 61.185 106.93 61.3519 106.836 61.3066C106.465 61.4989 106.096 61.8313 105.729 62.3036C105.408 62.7285 105.11 63.0831 104.834 63.3673C104.558 63.6982 104.259 63.9828 103.935 64.2211C103.658 64.412 103.357 64.6266 103.034 64.8649C102.849 65.0077 102.573 65.2686 102.205 65.6476C101.883 66.0259 101.63 66.2631 101.444 66.3592C101.167 66.5502 100.682 66.9076 99.9887 67.4315C99.2952 67.9088 98.5323 68.4338 97.7001 69.0065C96.9145 69.5786 96.1746 70.0799 95.4804 70.5105C94.8323 70.8937 94.3682 71.0875 94.0883 71.0917L92.2867 72.4493L91.4487 72.6021L91.0354 73.0984L91.3883 73.3031L91.3221 73.5841C90.9066 73.9171 90.3275 74.2293 89.5848 74.5207C88.888 74.7646 88.2393 75.1012 87.6384 75.5304C87.0842 75.9589 86.3453 76.5302 85.4217 77.2443C84.498 77.9585 83.5287 78.7433 82.5136 79.5989C81.5452 80.4537 80.6698 81.2838 79.8874 82.0891C79.1051 82.8945 78.5777 83.5792 78.3054 84.1434C78.5381 84.0932 78.7711 84.0663 79.0044 84.0628C79.2843 84.0585 79.541 84.0546 79.7743 84.0511C80.3809 84.0418 80.9878 84.0559 81.595 84.0934C82.2483 84.0834 82.9015 84.0735 83.5548 84.0635C85.2346 84.038 86.9371 83.9654 88.6623 83.8458C90.3868 83.6795 91.9257 83.5861 93.2789 83.5655C93.4655 83.5626 93.6752 83.5361 93.9079 83.4859C94.1399 83.389 94.3492 83.3392 94.5359 83.3363C94.9092 83.3306 95.5161 83.3447 96.3566 83.3786C97.2432 83.3651 97.828 83.4729 98.1112 83.702C97.8798 83.8455 97.7651 83.9873 97.767 84.1272C97.7689 84.2672 97.8638 84.3825 98.0517 84.473C98.239 84.5168 98.4027 84.5376 98.5426 84.5355C98.776 84.5319 98.891 84.4135 98.8878 84.1802C98.8846 83.9469 99.023 83.8281 99.303 83.8238C99.4436 83.8684 99.5149 83.9606 99.5168 84.1006C99.5181 84.1939 99.5187 84.2406 99.5187 84.2406L100.289 84.2289C100.429 84.2267 100.569 84.2246 100.709 84.2225C100.848 84.1737 101.011 84.1479 101.198 84.145C101.384 84.1422 101.618 84.1853 101.899 84.2744C102.18 84.3168 102.345 84.4543 102.395 84.6869C102.536 84.7781 102.677 84.7993 102.816 84.7505C103.002 84.701 103.142 84.6755 103.235 84.6741C103.702 84.667 104.169 84.7065 104.637 84.7928C105.105 84.879 105.642 84.9175 106.248 84.9083C106.528 84.904 106.807 84.8297 107.085 84.6855C107.598 84.631 108.068 84.8339 108.494 85.2941C108.92 85.7544 109.254 86.286 109.496 86.8891C109.784 87.4914 109.885 88.0266 109.798 88.4946C109.756 88.822 109.552 89.2918 109.187 89.9041C108.823 90.5631 108.454 90.8954 108.081 90.9011ZM113.623 87.7364C112.596 87.752 111.682 87.4859 110.881 86.938C110.126 86.3427 109.739 85.3218 109.719 83.8753C109.712 83.362 109.796 82.6373 109.97 81.7013C110.143 80.7652 110.433 79.7806 110.839 78.7477C111.065 78.1842 111.314 77.6437 111.587 77.1261C111.907 76.6079 112.203 76.1133 112.477 75.6424C112.523 75.595 112.664 75.6396 112.899 75.776C113.181 75.9117 113.345 75.9559 113.391 75.9085C113.436 75.8145 113.365 75.7222 113.177 75.6317C113.035 75.4939 112.987 75.4013 113.033 75.3539C113.125 75.2592 113.194 75.2114 113.241 75.2107C113.334 75.1626 113.403 75.0916 113.448 74.9975C113.494 74.9035 113.516 74.8098 113.514 74.7165C113.512 74.5765 113.441 74.4609 113.3 74.3697C113.205 74.2778 113.25 74.1371 113.434 73.9476C113.663 73.6175 113.915 73.3102 114.191 73.026C114.513 72.6944 114.79 72.4102 115.02 72.1733C115.112 72.0786 115.226 71.9368 115.364 71.748C115.501 71.5126 115.592 71.3712 115.638 71.3238L115.776 71.1817C115.822 71.1343 115.868 71.0869 115.914 71.0396C115.914 70.9929 115.913 70.9696 115.913 70.9696C115.96 70.9689 115.983 70.9452 115.982 70.8985C115.98 70.7585 115.839 70.6207 115.557 70.4849C115.275 70.3492 115.133 70.258 115.133 70.2114C115.132 70.1647 115.108 70.1184 115.061 70.0724C115.014 70.0265 114.966 69.9572 114.918 69.8646C114.965 69.8639 115.011 69.8165 115.056 69.7225C115.148 69.5811 115.217 69.51 115.263 69.5093C115.31 69.5086 115.404 69.5538 115.545 69.645C115.686 69.6895 115.779 69.7115 115.826 69.7107C115.873 69.71 115.896 69.6864 115.895 69.6397C115.941 69.5923 115.987 69.5683 116.034 69.5676C116.127 69.5661 116.338 69.6329 116.667 69.768C116.995 69.8563 117.182 69.9001 117.229 69.8994C117.275 69.8987 117.414 69.7799 117.644 69.5431C117.874 69.3062 118.012 69.1641 118.058 69.1167C118.15 69.022 118.219 68.9276 118.264 68.8335C118.309 68.6928 118.423 68.5278 118.608 68.3383L118.678 68.3372C118.724 68.2898 118.746 68.2428 118.746 68.1961C118.745 68.1495 118.745 68.1261 118.745 68.1261C118.837 68.0314 118.906 67.9603 118.952 67.913C119.044 67.8182 119.113 67.7472 119.159 67.6998C119.205 67.6524 119.228 67.6287 119.228 67.6287C119.275 67.628 119.298 67.6277 119.298 67.6277C119.343 67.5336 119.389 67.4629 119.435 67.4156C119.528 67.3675 119.597 67.3198 119.643 67.2724L119.779 66.9903C119.871 66.8955 120.195 66.6806 120.75 66.3454C121.306 66.0103 121.724 65.8405 122.004 65.8363L122.354 65.831C122.354 65.831 122.354 65.8543 122.355 65.901C122.355 65.901 122.378 65.9006 122.425 65.8999C122.471 65.8992 122.518 65.8985 122.565 65.8978C122.611 65.8504 122.657 65.8263 122.704 65.8256C122.704 65.8256 122.774 65.8946 122.916 66.0324C122.964 66.0784 123.011 66.101 123.057 66.1003C123.103 66.0529 123.15 66.0289 123.196 66.0282C123.244 66.0741 123.268 66.1204 123.268 66.1671C123.269 66.2137 123.293 66.2367 123.339 66.236C123.433 66.2346 123.456 66.2342 123.409 66.2349C123.409 66.1883 123.432 66.1646 123.478 66.1639C123.525 66.1632 123.549 66.2095 123.55 66.3028C123.551 66.3961 123.576 66.4891 123.624 66.5817C123.579 66.7224 123.535 66.8864 123.491 67.0738C123.493 67.2138 123.471 67.3308 123.425 67.4248C123.013 67.9912 122.69 68.2761 122.457 68.2797C122.458 68.3263 122.389 68.4207 122.251 68.5628C122.111 68.565 121.948 68.6141 121.763 68.7103C121.578 68.8064 121.392 68.9026 121.207 68.9988L121.21 69.2088C121.212 69.3954 121.144 69.4898 121.004 69.4919C120.91 69.4467 120.817 69.5181 120.726 69.7062L120.727 69.7762C120.823 69.9147 120.987 69.9822 121.22 69.9787L121.711 70.0412C121.804 70.0398 121.851 70.0158 121.85 69.9691C121.896 69.9217 121.943 69.8977 121.989 69.897C122.036 69.8963 122.059 69.9192 122.06 69.9659C122.06 69.9659 122.083 69.9655 122.13 69.9648C122.223 69.9634 122.293 69.939 122.339 69.8916C122.385 69.8443 122.432 69.8202 122.478 69.8195L123.109 69.8799C122.966 69.6487 122.893 69.4632 122.891 69.3232C122.888 69.0899 123.096 68.9467 123.516 68.8936C124.169 68.8837 124.732 69.1085 125.205 69.568C125.298 69.5199 125.414 69.5181 125.555 69.5627C125.696 69.6072 125.836 69.6051 125.975 69.5563L126.322 69.341L126.393 69.4099C126.578 69.3137 126.694 69.2653 126.741 69.2646C126.834 69.2632 126.858 69.2861 126.812 69.3335C126.812 69.3335 126.835 69.3332 126.882 69.3324C126.882 69.3324 126.928 69.2851 127.02 69.1903C127.067 69.1896 127.114 69.2122 127.161 69.2582C127.254 69.2568 127.324 69.2324 127.37 69.185L127.577 68.9718L128.417 68.959L128.486 68.888C128.579 68.8399 128.695 68.7915 128.834 68.7427C129.019 68.6465 129.182 68.5974 129.322 68.5952C129.321 68.5486 129.368 68.5245 129.461 68.5231C129.554 68.475 129.623 68.4506 129.67 68.4499L129.81 68.4478C130.043 68.4442 130.161 68.5124 130.163 68.6524C130.165 68.7924 130.096 68.9101 129.958 69.0056C129.912 69.053 129.842 69.0774 129.749 69.0788C129.655 69.0335 129.561 69.035 129.469 69.083C129.285 69.2725 129.146 69.368 129.053 69.3694C129.006 69.3701 128.983 69.3705 128.983 69.3705C128.982 69.3238 128.958 69.3008 128.912 69.3016C128.865 69.3023 128.773 69.3737 128.635 69.5158L128.146 69.5932L128.076 69.5943C127.982 69.5957 127.936 69.6431 127.938 69.7364C127.751 69.7393 127.565 69.7654 127.379 69.8149C127.192 69.8178 127.006 69.844 126.82 69.8935L126.751 69.9645C126.704 69.9652 126.658 69.9893 126.612 70.0366C126.565 70.0374 126.495 70.0384 126.402 70.0398C126.309 70.0879 126.053 70.1152 125.633 70.1215C125.918 70.4906 126.109 70.8377 126.207 71.1629C126.303 71.3948 126.379 71.7671 126.432 72.2796C126.532 72.7448 126.56 73.0944 126.517 73.3285C126.518 73.4685 126.472 73.5158 126.378 73.4706C126.284 73.3787 126.237 73.3794 126.239 73.4727C126.24 73.6127 126.288 73.7053 126.382 73.7506C126.522 73.7484 126.594 73.864 126.597 74.0973C126.599 74.2373 126.578 74.4243 126.535 74.6583C126.491 74.8457 126.447 75.0564 126.403 75.2904C126.361 75.5711 126.295 75.8755 126.206 76.2035C126.163 76.4842 126.05 76.766 125.867 77.0488L125.662 77.4019L125.668 77.8219C125.673 78.1952 125.56 78.4536 125.329 78.5971C125.144 78.74 125.006 78.9054 124.915 79.0935C124.826 79.3749 124.758 79.5626 124.713 79.6566C124.714 79.75 124.623 79.938 124.441 80.2208C123.847 81.1633 123.136 82.0609 122.307 82.9136C121.479 83.7663 120.673 84.5487 119.889 85.2607C119.198 85.878 118.249 86.4525 117.043 86.9842C115.882 87.4686 114.742 87.7193 113.623 87.7364ZM114.305 86.4658C114.445 86.4637 114.725 86.4361 115.144 86.383C115.563 86.2833 116.003 86.0666 116.465 85.7329C116.558 85.6848 116.652 85.7067 116.746 85.7986C116.841 85.8905 116.935 85.9124 117.027 85.8643C117.259 85.7674 117.352 85.696 117.304 85.6501C117.257 85.6041 117.326 85.5564 117.512 85.5069L117.582 85.5058C117.862 85.5016 117.979 85.4765 117.931 85.4305C117.93 85.3372 117.952 85.2202 117.997 85.0795C117.995 84.9395 118.063 84.8218 118.202 84.7263C118.34 84.6309 118.456 84.5591 118.549 84.511C119.056 84.0832 119.677 83.3737 120.41 82.3824C121.142 81.3445 121.875 80.3066 122.607 79.2686C122.653 79.1746 122.723 79.1502 122.817 79.1954C122.91 79.2407 122.98 79.2396 123.026 79.1923C123.073 79.1449 123.094 79.0045 123.091 78.7712C123.089 78.6312 123.156 78.4202 123.292 78.1381C123.428 77.8093 123.564 77.5505 123.701 77.3618C123.746 77.2211 123.836 76.963 123.971 76.5876C124.105 76.1655 124.217 75.7904 124.306 75.4624C124.44 75.0869 124.461 74.8999 124.368 74.9013C124.274 74.8561 124.227 74.8102 124.226 74.7635C124.225 74.6702 124.363 74.5747 124.642 74.4771C124.921 74.3795 124.897 74.3099 124.569 74.2682C124.475 74.223 124.497 74.1293 124.635 73.9872C124.773 73.8451 124.702 73.7528 124.422 73.7104C124.188 73.6673 124.093 73.5987 124.139 73.5047C124.231 73.4099 124.3 73.3389 124.346 73.2915C124.484 73.1494 124.552 73.0083 124.55 72.8683C124.544 72.4484 124.422 72.0302 124.183 71.6138C123.99 71.1967 123.775 70.8266 123.538 70.5035C123.26 70.6944 123.122 70.7898 123.122 70.7898C123.075 70.7906 123.052 70.7909 123.052 70.7909C123.051 70.7442 123.004 70.7216 122.911 70.723C122.864 70.7238 122.841 70.7241 122.841 70.7241C122.84 70.6774 122.816 70.6545 122.77 70.6552C122.723 70.6559 122.677 70.6799 122.631 70.7273C122.585 70.7747 122.562 70.7984 122.562 70.7984C122.516 70.8457 122.423 70.8705 122.283 70.8726C122.189 70.874 122.119 70.8751 122.073 70.8758C122.026 70.8765 121.979 70.8539 121.932 70.808C121.931 70.7613 121.907 70.7383 121.861 70.739C121.814 70.7397 121.745 70.7875 121.653 70.8822C121.607 70.9762 121.538 71.024 121.445 71.0254C121.398 71.0261 121.374 71.0031 121.374 70.9565C121.373 70.9098 121.326 70.8872 121.233 70.8886C121.186 70.8893 121.14 70.9134 121.094 70.9607C121.094 71.0074 121.071 71.0311 121.025 71.0318C120.978 71.0325 120.884 70.9639 120.742 70.8261L120.672 70.8271C120.676 71.1071 120.608 71.2482 120.468 71.2503C120.421 71.251 120.35 71.2054 120.256 71.1135C119.747 71.4479 118.894 72.231 117.698 73.4627C116.5 74.6477 115.446 76.0173 114.534 77.5713C114.352 77.9475 114.125 78.3943 113.852 78.9119C113.626 79.4287 113.424 80.0152 113.246 80.6713C113.203 80.952 113.066 81.1641 112.834 81.3076C112.65 81.4504 112.512 81.6159 112.421 81.804C112.377 81.9913 112.402 82.1076 112.496 82.1529C112.59 82.1981 112.661 82.267 112.709 82.3596C112.711 82.5463 112.668 82.8036 112.579 83.1317C112.537 83.459 112.518 83.7627 112.522 84.0427C112.534 84.9293 112.706 85.5567 113.038 85.925C113.416 86.2927 113.839 86.4729 114.305 86.4658ZM129.039 87.0817C128.759 87.0859 128.617 86.9247 128.612 86.5981C128.609 86.3648 128.675 86.0837 128.811 85.755C129.173 84.956 129.601 83.8294 130.095 82.375C130.588 80.9207 131.201 79.6746 131.934 78.6366L134.58 72.5056C134.58 72.5056 134.533 72.483 134.439 72.4378C134.345 72.3459 134.297 72.2533 134.295 72.1599C134.013 71.9776 133.706 71.7255 133.375 71.4039C133.09 71.0348 133.061 70.6619 133.29 70.285C133.382 70.1903 133.451 70.1426 133.498 70.1419C133.544 70.1411 133.568 70.1408 133.568 70.1408L133.566 70.0008C133.563 69.8142 133.632 69.6964 133.771 69.6476C133.957 69.5981 134.073 69.5264 134.118 69.4323C134.202 68.7776 134.732 68.2795 135.708 67.938C136.73 67.5957 137.637 67.4185 138.431 67.4065C139.224 67.3944 139.622 67.505 139.625 67.7383C139.627 67.8783 139.49 68.0438 139.212 68.2347C139.12 68.3294 138.89 68.5429 138.521 68.8753C138.199 69.2069 137.901 69.6081 137.627 70.079L137.149 70.9264L136.667 71.5638C135.939 72.9283 135.348 74.0808 134.895 75.0212C134.441 75.9615 133.897 77.1599 133.264 78.6164C133.127 78.8985 133.061 79.1329 133.063 79.3195C133.066 79.5528 133.161 79.6681 133.348 79.6652C133.441 79.6638 133.534 79.6391 133.627 79.591C133.766 79.4955 133.905 79.4234 134.044 79.3746C134.414 79.1356 134.715 78.921 134.945 78.7308C135.222 78.4932 135.522 78.2553 135.846 78.017C135.984 77.8749 136.1 77.8731 136.196 78.0117C136.29 78.1036 136.292 78.2436 136.201 78.4317C136.02 78.8078 135.883 79.0432 135.791 79.138C135.745 79.1854 135.676 79.2331 135.583 79.2812C135.49 79.3292 135.283 79.5424 134.962 79.9207L134.689 80.4849C134.597 80.5796 134.483 80.7681 134.347 81.0502C134.257 81.2849 134.212 81.4256 134.213 81.4723C134.214 81.5656 134.168 81.613 134.075 81.6144C133.981 81.5691 133.842 81.6413 133.658 81.8308C133.612 81.8781 133.59 81.9718 133.591 82.1118C133.64 82.2511 133.618 82.3681 133.526 82.4628C133.482 82.6035 133.413 82.7212 133.321 82.816C133.228 82.8641 133.182 82.9114 133.183 82.9581C133.139 83.1455 133.047 83.2635 132.908 83.3123C132.815 83.3138 132.722 83.3618 132.63 83.4566C132.583 83.4573 132.56 83.5043 132.562 83.5976C132.567 83.9709 132.522 84.135 132.428 84.0897C132.334 84.0445 132.242 84.0926 132.15 84.234C132.06 84.422 131.944 84.5171 131.804 84.5193C131.526 84.6169 131.41 84.6886 131.457 84.7346C131.504 84.7805 131.575 84.8261 131.669 84.8714C131.762 84.87 131.693 84.941 131.462 85.0845C131.323 85.1333 131.208 85.2751 131.118 85.5098C131.027 85.6979 130.936 85.8393 130.844 85.9341C130.751 86.0288 130.636 86.1006 130.496 86.1494C130.357 86.1982 130.242 86.2933 130.15 86.4347C129.736 86.861 129.366 87.0767 129.039 87.0817ZM149.889 86.2042C149.702 86.2071 149.539 86.2096 149.399 86.2117C149.258 86.1672 149.118 86.1226 148.977 86.0781C148.509 85.9919 148.087 85.8583 147.712 85.6773C147.382 85.4956 147.098 85.1499 146.857 84.6402C146.807 84.4076 146.687 84.1061 146.495 83.7356C146.35 83.3644 146.252 83.0159 146.201 82.69C146.151 82.4574 146.124 82.1777 146.119 81.8511C146.069 81.6185 146.042 81.3156 146.037 80.9423C145.937 80.4771 145.884 80.0578 145.879 79.6845C145.921 79.3105 145.938 78.8669 145.931 78.3536C145.924 77.8403 145.942 77.4666 145.986 77.2326C146.073 76.8112 146.117 76.6005 146.117 76.6005C146.117 76.5539 146.113 76.3206 146.108 75.9006C146.147 75.3399 146.162 74.7563 146.154 74.1497C146.145 73.5431 146.162 73.0528 146.204 72.6788C146.324 71.2768 146.035 70.5811 145.335 70.5918C145.055 70.596 144.683 70.7184 144.22 70.9588C144.175 71.0995 144.083 71.1942 143.944 71.243C143.85 71.2444 143.711 71.2932 143.526 71.3894L143.179 71.6047C143.179 71.6513 143.133 71.6754 143.04 71.6768C142.946 71.6316 142.899 71.6556 142.901 71.7489C142.95 71.9349 142.928 72.0519 142.835 72.1C142.789 72.1473 142.719 72.1251 142.624 72.0332L141.862 72.6048C141.863 72.6515 141.794 72.7459 141.656 72.888L141.587 72.9591C141.403 73.1486 141.241 73.2444 141.101 73.2465L140.894 73.4597C140.894 73.5063 140.849 73.6004 140.758 73.7418C140.712 73.8358 140.596 73.8609 140.409 73.8171L140.063 74.1724C139.881 74.4552 139.72 74.621 139.58 74.6698C139.488 74.7179 139.371 74.7663 139.232 74.8151L138.682 75.5236L138.403 75.5978C138.405 75.7845 138.199 76.0676 137.784 76.4473C137.416 76.8263 137.163 77.0869 137.025 77.229C136.887 77.3711 136.748 77.4432 136.608 77.4454C136.515 77.4468 136.467 77.4008 136.466 77.3075C136.465 77.2608 136.579 77.0724 136.808 76.7422C136.992 76.5527 137.268 76.1985 137.634 75.6795C138.047 75.1599 138.277 74.923 138.324 74.969C138.554 74.7321 138.714 74.4963 138.805 74.2616C138.894 73.9802 139.054 73.7444 139.285 73.5542C139.286 73.6008 139.286 73.6475 139.287 73.6942C139.333 73.6934 139.357 73.6931 139.357 73.6931C139.45 73.6917 139.565 73.5732 139.702 73.3378C139.838 73.0557 139.93 72.9376 139.977 72.9836L141.153 71.9156C141.152 71.8689 141.267 71.7738 141.499 71.6303C141.684 71.5341 141.8 71.4857 141.847 71.4849C141.893 71.4842 142.008 71.3425 142.191 71.0597L142.676 70.7022C142.722 70.6082 142.769 70.6308 142.817 70.7701C142.912 70.862 142.982 70.8843 143.028 70.8369L143.231 70.3437C143.323 70.2023 143.461 70.0835 143.646 69.9874C143.878 69.8438 144.109 69.7003 144.341 69.5568C144.893 68.9883 145.309 68.7019 145.589 68.6977L145.869 68.6934C146.472 68.4509 147.031 68.3257 147.544 68.3179C148.291 68.3065 148.878 68.5776 149.305 69.1312C149.401 69.2697 149.497 69.5249 149.596 69.8968C149.69 69.9421 149.714 70.0117 149.669 70.1057C149.669 70.1524 149.694 70.222 149.742 70.3147C149.789 70.4073 149.884 70.5225 150.026 70.6604C150.168 70.7516 150.239 70.8671 150.241 71.0071L150.243 71.1471C150.246 71.3338 150.131 71.4989 149.9 71.6424C150.136 71.8255 150.23 71.9407 150.184 71.9881C150.184 71.9881 150.162 72.0585 150.117 72.1992L149.991 73.1812C149.949 73.5085 149.882 73.7662 149.791 73.9543C149.7 74.0957 149.61 74.3538 149.522 74.7285C149.712 75.0056 149.715 75.1923 149.53 75.2885L149.39 75.2906L149.323 75.5716C149.325 75.6649 149.373 75.7576 149.467 75.8495L149.263 76.2726C149.309 76.2252 149.332 76.2249 149.333 76.2716C149.38 76.2708 149.403 76.2705 149.403 76.2705C149.358 76.3645 149.29 76.5522 149.201 76.8336C149.111 77.0684 149.043 77.2561 148.998 77.3968C148.955 77.6308 148.863 77.7489 148.723 77.751C148.583 77.7531 148.538 77.8705 148.588 78.1031C148.635 78.1491 148.661 78.312 148.665 78.592C148.715 78.8246 148.693 78.9416 148.599 78.943L148.471 79.7851L148.474 79.9951C148.477 80.2284 148.434 80.4624 148.343 80.6971C148.3 80.9311 148.257 81.1652 148.213 81.3992C148.17 81.6332 148.126 81.8906 148.084 82.1712C148.087 82.4046 148.09 82.6379 148.093 82.8712C148.096 83.0578 148.099 83.2678 148.102 83.5011C148.151 83.6871 148.2 83.873 148.249 84.0589C148.25 84.1056 148.322 84.2445 148.465 84.4757C148.608 84.7069 148.68 84.8458 148.681 84.8925L148.894 85.0993C148.988 85.1445 149.128 85.1424 149.314 85.0929C149.546 85.0426 149.71 85.0635 149.805 85.1554C150.225 85.1957 150.759 84.9775 151.406 84.501C152.099 83.977 152.721 83.4075 153.273 82.7923C153.411 82.6502 153.55 82.5781 153.69 82.576C153.783 82.5746 153.854 82.6435 153.903 82.7828C153.951 82.922 153.907 83.1094 153.77 83.3448C153.038 84.4294 152.349 85.1867 151.701 85.6166C151.053 85.9998 150.449 86.1957 149.889 86.2042ZM159.068 86.5546C157.901 86.5723 156.87 86.2613 155.975 85.6215C155.079 84.9818 154.621 83.8686 154.599 82.2821C154.591 81.6755 154.652 81.0678 154.784 80.4591C154.915 79.8037 155.07 79.1712 155.248 78.5618C155.333 77.9538 155.466 77.415 155.646 76.9456C155.69 76.7582 155.712 76.6645 155.712 76.6645C155.758 76.6171 155.874 76.5454 156.059 76.4492L156.608 75.6008L156.604 75.3208C156.557 75.3215 156.534 75.3219 156.534 75.3219C156.533 75.2752 156.533 75.2519 156.533 75.2519C156.531 75.1119 156.645 74.9468 156.876 74.7566C157.107 74.5664 157.222 74.4713 157.222 74.4713C157.266 74.2373 157.334 74.1195 157.428 74.1181C157.521 74.1167 157.637 74.0449 157.775 73.9028L158.545 73.8911L158.543 73.7511C158.539 73.5178 158.422 73.4262 158.189 73.4765C158.002 73.4793 157.909 73.4574 157.908 73.4107C157.907 73.3641 157.976 73.2697 158.114 73.1276C158.298 72.9381 158.413 72.8196 158.459 72.7723C158.597 72.5835 158.711 72.4184 158.802 72.277C158.893 72.0889 159.031 71.9468 159.217 71.8506C160.043 70.8113 160.547 70.1502 160.73 69.8674C160.959 69.5838 161.19 69.3703 161.421 69.2268C161.514 69.2254 161.585 69.271 161.633 69.3636C161.727 69.4088 161.728 69.4788 161.636 69.5736C161.731 69.7121 161.801 69.7344 161.847 69.6403C161.939 69.5456 161.985 69.4982 161.985 69.4982L162.263 69.354C162.168 69.2621 162.12 69.1461 162.118 69.0061C162.115 68.7728 162.159 68.5855 162.25 68.4441C162.341 68.256 162.502 68.0669 162.733 67.8767C163.01 67.6858 163.148 67.567 163.148 67.5203C163.427 67.4227 163.635 67.3262 163.774 67.2307C163.959 67.1346 164.145 67.0851 164.332 67.0822C164.659 67.0773 164.987 67.1889 165.317 67.4173C166.21 67.8704 166.963 68.3257 167.576 68.7831C168.188 69.2405 168.501 69.8891 168.512 70.729C168.524 71.6156 168.162 72.3912 167.424 73.0559C166.732 73.6731 165.876 74.1995 164.855 74.6351C163.835 75.0707 162.813 75.4363 161.79 75.7319C160.813 75.9801 160.046 76.1785 159.488 76.327C159.162 76.3786 159.001 76.5211 159.004 76.7544C159.053 76.9404 159.033 77.1507 158.942 77.3854L158.463 78.1628L158.056 79.1491L157.715 79.7844C157.392 80.0693 157.279 80.2811 157.374 80.4197C157.469 80.5582 157.632 80.5324 157.863 80.3422C157.91 80.3882 157.934 80.4578 157.936 80.5511C157.938 80.7378 157.895 80.9718 157.805 81.2532C157.715 81.4879 157.648 81.6756 157.603 81.8163C157.559 82.0037 157.56 82.097 157.607 82.0963C157.699 82.0482 157.747 82.1408 157.751 82.3741L157.834 83.353C158.126 84.2353 158.763 84.739 159.745 84.8641C159.838 84.8627 159.932 84.8846 160.026 84.9298C160.166 84.9277 160.282 84.9259 160.376 84.9245C161.216 84.9117 161.658 84.835 161.703 84.6943C161.794 84.5529 161.909 84.4578 162.049 84.409C162.467 84.3092 162.816 84.2106 163.095 84.113C163.42 84.0147 163.745 83.8698 164.069 83.6781C164.626 83.4363 165.158 83.1248 165.666 82.7437C166.175 82.3626 166.706 81.9811 167.261 81.5993L167.954 81.0987C167.999 81.0047 167.998 80.9347 167.951 80.8887C167.904 80.8428 167.903 80.7961 167.949 80.7487C168.042 80.7007 168.112 80.6996 168.159 80.7456C168.253 80.7441 168.322 80.7197 168.368 80.6724C168.461 80.6243 168.553 80.5529 168.645 80.4581C168.737 80.3167 168.828 80.1986 168.921 80.1039C169.013 80.0091 169.058 79.9151 169.057 79.8218C169.102 79.7278 169.171 79.6334 169.263 79.5386C169.631 79.1596 169.999 78.7573 170.366 78.3317C170.781 77.9053 171.125 77.5267 171.401 77.1958C171.721 76.7242 171.975 76.487 172.161 76.4842C172.255 76.4827 172.302 76.5287 172.303 76.622C172.306 76.8553 172.148 77.2078 171.828 77.6794C171.05 78.858 170.156 80.0151 169.145 81.1506C168.133 82.2395 167.027 83.2364 165.825 84.1415C164.947 84.7616 163.905 85.3142 162.698 85.7992C161.491 86.2843 160.281 86.5361 159.068 86.5546ZM159.964 75.2697C160.663 75.2123 161.57 75.0118 162.686 74.6682C163.8 74.2778 164.727 73.7737 165.465 73.1557C166.249 72.4903 166.636 71.761 166.625 70.9678C166.615 70.2212 166.209 69.5039 165.406 68.8161C164.759 69.2927 164.045 69.9803 163.264 70.8789C162.529 71.7302 161.864 72.5804 161.268 73.4296C160.673 74.2321 160.238 74.8454 159.964 75.2697Z" fill="black"/>
</g>
<defs>
<filter id="filter0_bd_120_484" x="0.399994" y="9.91998" width="191.197" height="72.8" filterUnits="userSpaceOnUse" color-interpolation-filters="sRGB">
<feFlood flood-opacity="0" result="BackgroundImageFix"/>
<feGaussianBlur in="BackgroundImageFix" stdDeviation="2"/>
<feComposite in2="SourceAlpha" operator="in" result="effect1_backgroundBlur_120_484"/>
<feColorMatrix in="SourceAlpha" type="matrix" values="0 0 0 0 0 0 0 0 0 0 0 0 0 0 0 0 0 0 127 0" result="hardAlpha"/>
<feOffset dy="4"/>
<feGaussianBlur stdDeviation="2"/>
<feComposite in2="hardAlpha" operator="out"/>
<feColorMatrix type="matrix" values="0 0 0 0 0 0 0 0 0 0 0 0 0 0 0 0 0 0 0.25 0"/>
<feBlend mode="normal" in2="effect1_backgroundBlur_120_484" result="effect2_dropShadow_120_484"/>
<feBlend mode="normal" in="SourceGraphic" in2="effect2_dropShadow_120_484" result="shape"/>
</filter>
<filter id="filter1_d_120_484" x="65.4073" y="51.3544" width="111.078" height="48.1273" filterUnits="userSpaceOnUse" color-interpolation-filters="sRGB">
<feFlood flood-opacity="0" result="BackgroundImageFix"/>
<feColorMatrix in="SourceAlpha" type="matrix" values="0 0 0 0 0 0 0 0 0 0 0 0 0 0 0 0 0 0 127 0" result="hardAlpha"/>
<feOffset dy="4"/>
<feGaussianBlur stdDeviation="2"/>
<feComposite in2="hardAlpha" operator="out"/>
<feColorMatrix type="matrix" values="0 0 0 0 0 0 0 0 0 0 0 0 0 0 0 0 0 0 0.25 0"/>
<feBlend mode="normal" in2="BackgroundImageFix" result="effect1_dropShadow_120_484"/>
<feBlend mode="normal" in="SourceGraphic" in2="effect1_dropShadow_120_484" result="shape"/>
</filter>
</defs>
</svg>
